<?xml version="1.0" encoding="UTF-8"?><svg xmlns="http://www.w3.org/2000/svg" xmlns:xlink="http://www.w3.org/1999/xlink" contentScriptType="text/ecmascript" width="768pt" zoomAndPan="magnify" contentStyleType="text/css" viewBox="0 0 768 767.999994" height="767.999994pt" preserveAspectRatio="xMidYMid meet" version="1.2"><defs><clipPath xml:id="clip1" id="clip1"><path d="M 76.800781 89.457031 L 678.300781 89.457031 L 678.300781 690.957031 L 76.800781 690.957031 Z M 76.800781 89.457031 "/></clipPath></defs><g xml:id="surface1" id="surface1"><g clip-rule="nonzero" clip-path="url(#clip1)"><path style=" stroke:none;fill-rule:nonzero;fill:rgb(0%,0%,0%);fill-opacity:1;" d="M 377.550781 89.457031 C 372.628906 89.457031 367.707031 89.578125 362.792969 89.820312 C 357.875 90.058594 352.96875 90.421875 348.070312 90.90625 C 343.171875 91.386719 338.289062 91.988281 333.421875 92.710938 C 328.550781 93.433594 323.703125 94.273438 318.875 95.234375 C 314.050781 96.195312 309.25 97.273438 304.472656 98.46875 C 299.699219 99.664062 294.957031 100.976562 290.246094 102.40625 C 285.535156 103.835938 280.863281 105.378906 276.230469 107.035156 C 271.597656 108.695312 267.003906 110.464844 262.457031 112.347656 C 257.910156 114.234375 253.414062 116.226562 248.960938 118.332031 C 244.511719 120.4375 240.117188 122.648438 235.777344 124.96875 C 231.4375 127.289062 227.15625 129.714844 222.933594 132.246094 C 218.710938 134.773438 214.554688 137.40625 210.460938 140.140625 C 206.371094 142.875 202.347656 145.710938 198.394531 148.640625 C 194.441406 151.574219 190.5625 154.601562 186.757812 157.722656 C 182.953125 160.847656 179.226562 164.058594 175.578125 167.367188 C 171.933594 170.671875 168.367188 174.0625 164.886719 177.542969 C 161.40625 181.023438 158.015625 184.589844 154.707031 188.234375 C 151.402344 191.882812 148.191406 195.609375 145.066406 199.414062 C 141.945312 203.21875 138.917969 207.097656 135.984375 211.050781 C 133.054688 215.003906 130.21875 219.027344 127.484375 223.117188 C 124.75 227.210938 122.117188 231.367188 119.589844 235.589844 C 117.058594 239.8125 114.632812 244.09375 112.3125 248.433594 C 109.992188 252.773438 107.78125 257.167969 105.675781 261.621094 C 103.570312 266.070312 101.578125 270.566406 99.691406 275.113281 C 97.808594 279.660156 96.039062 284.253906 94.378906 288.886719 C 92.722656 293.519531 91.179688 298.191406 89.75 302.902344 C 88.320312 307.613281 87.007812 312.355469 85.8125 317.128906 C 84.617188 321.90625 83.539062 326.707031 82.578125 331.53125 C 81.617188 336.359375 80.777344 341.207031 80.054688 346.078125 C 79.332031 350.945312 78.730469 355.828125 78.25 360.726562 C 77.765625 365.625 77.402344 370.53125 77.164062 375.449219 C 76.921875 380.367188 76.800781 385.285156 76.800781 390.207031 C 76.800781 395.128906 76.921875 400.046875 77.164062 404.964844 C 77.402344 409.878906 77.765625 414.785156 78.25 419.683594 C 78.730469 424.582031 79.332031 429.46875 80.054688 434.335938 C 80.777344 439.203125 81.617188 444.050781 82.578125 448.878906 C 83.539062 453.707031 84.617188 458.507812 85.8125 463.28125 C 87.007812 468.058594 88.320312 472.800781 89.75 477.507812 C 91.179688 482.21875 92.722656 486.890625 94.378906 491.527344 C 96.039062 496.160156 97.808594 500.75 99.691406 505.296875 C 101.578125 509.84375 103.570312 514.34375 105.675781 518.792969 C 107.78125 523.242188 109.992188 527.636719 112.3125 531.980469 C 114.632812 536.320312 117.058594 540.601562 119.589844 544.824219 C 122.117188 549.042969 124.75 553.203125 127.484375 557.292969 C 130.21875 561.386719 133.054688 565.410156 135.984375 569.363281 C 138.917969 573.316406 141.945312 577.195312 145.066406 581 C 148.191406 584.804688 151.402344 588.53125 154.707031 592.175781 C 158.015625 595.824219 161.40625 599.386719 164.886719 602.867188 C 168.367188 606.347656 171.933594 609.742188 175.578125 613.046875 C 179.226562 616.351562 182.953125 619.566406 186.757812 622.6875 C 190.5625 625.8125 194.441406 628.839844 198.394531 631.769531 C 202.347656 634.703125 206.371094 637.535156 210.460938 640.269531 C 214.554688 643.003906 218.710938 645.636719 222.933594 648.167969 C 227.15625 650.699219 231.4375 653.125 235.777344 655.445312 C 240.117188 657.765625 244.511719 659.976562 248.960938 662.082031 C 253.414062 664.183594 257.910156 666.179688 262.457031 668.0625 C 267.003906 669.945312 271.597656 671.71875 276.230469 673.375 C 280.863281 675.035156 285.535156 676.578125 290.246094 678.007812 C 294.957031 679.433594 299.699219 680.746094 304.472656 681.941406 C 309.25 683.140625 314.050781 684.21875 318.875 685.175781 C 323.703125 686.136719 328.550781 686.980469 333.421875 687.699219 C 338.289062 688.421875 343.171875 689.027344 348.070312 689.507812 C 352.96875 689.992188 357.875 690.351562 362.792969 690.59375 C 367.707031 690.835938 372.628906 690.957031 377.550781 690.957031 C 382.472656 690.957031 387.390625 690.835938 392.308594 690.59375 C 397.222656 690.351562 402.128906 689.992188 407.027344 689.507812 C 411.925781 689.027344 416.808594 688.421875 421.679688 687.699219 C 426.546875 686.980469 431.394531 686.136719 436.222656 685.175781 C 441.050781 684.21875 445.851562 683.140625 450.625 681.941406 C 455.402344 680.746094 460.144531 679.433594 464.851562 678.007812 C 469.5625 676.578125 474.234375 675.035156 478.871094 673.375 C 483.503906 671.71875 488.09375 669.945312 492.640625 668.0625 C 497.1875 666.179688 501.6875 664.183594 506.136719 662.082031 C 510.585938 659.976562 514.980469 657.765625 519.324219 655.445312 C 523.664062 653.125 527.945312 650.699219 532.167969 648.167969 C 536.386719 645.636719 540.546875 643.003906 544.636719 640.269531 C 548.730469 637.535156 552.753906 634.703125 556.707031 631.769531 C 560.660156 628.839844 564.539062 625.8125 568.34375 622.6875 C 572.148438 619.566406 575.875 616.351562 579.519531 613.046875 C 583.167969 609.742188 586.730469 606.347656 590.210938 602.867188 C 593.691406 599.386719 597.085938 595.824219 600.390625 592.175781 C 603.695312 588.53125 606.910156 584.804688 610.03125 581 C 613.15625 577.195312 616.183594 573.316406 619.113281 569.363281 C 622.046875 565.410156 624.878906 561.386719 627.613281 557.292969 C 630.347656 553.203125 632.980469 549.042969 635.511719 544.824219 C 638.042969 540.601562 640.46875 536.320312 642.789062 531.980469 C 645.109375 527.636719 647.320312 523.242188 649.425781 518.792969 C 651.527344 514.34375 653.523438 509.84375 655.40625 505.296875 C 657.289062 500.75 659.0625 496.160156 660.71875 491.527344 C 662.378906 486.890625 663.921875 482.21875 665.351562 477.507812 C 666.777344 472.800781 668.089844 468.058594 669.285156 463.28125 C 670.484375 458.507812 671.5625 453.707031 672.519531 448.878906 C 673.480469 444.050781 674.324219 439.203125 675.042969 434.335938 C 675.765625 429.46875 676.371094 424.582031 676.851562 419.683594 C 677.335938 414.785156 677.695312 409.878906 677.9375 404.964844 C 678.179688 400.046875 678.300781 395.128906 678.300781 390.207031 C 678.300781 385.285156 678.179688 380.367188 677.9375 375.449219 C 677.695312 370.53125 677.335938 365.625 676.851562 360.726562 C 676.371094 355.828125 675.765625 350.945312 675.042969 346.078125 C 674.324219 341.207031 673.480469 336.359375 672.519531 331.53125 C 671.5625 326.707031 670.484375 321.90625 669.285156 317.128906 C 668.089844 312.355469 666.777344 307.613281 665.351562 302.902344 C 663.921875 298.191406 662.378906 293.519531 660.71875 288.886719 C 659.0625 284.253906 657.289062 279.660156 655.40625 275.113281 C 653.523438 270.566406 651.527344 266.070312 649.425781 261.621094 C 647.320312 257.167969 645.109375 252.773438 642.789062 248.433594 C 640.46875 244.09375 638.042969 239.8125 635.511719 235.589844 C 632.980469 231.367188 630.347656 227.210938 627.613281 223.117188 C 624.878906 219.027344 622.046875 215.003906 619.113281 211.050781 C 616.183594 207.097656 613.15625 203.21875 610.03125 199.414062 C 606.910156 195.609375 603.695312 191.882812 600.390625 188.234375 C 597.085938 184.589844 593.691406 181.023438 590.210938 177.542969 C 586.730469 174.0625 583.167969 170.671875 579.519531 167.367188 C 575.875 164.058594 572.148438 160.847656 568.34375 157.722656 C 564.539062 154.601562 560.660156 151.574219 556.707031 148.640625 C 552.753906 145.710938 548.730469 142.875 544.636719 140.140625 C 540.546875 137.40625 536.386719 134.773438 532.167969 132.246094 C 527.945312 129.714844 523.664062 127.289062 519.324219 124.96875 C 514.980469 122.648438 510.585938 120.4375 506.136719 118.332031 C 501.6875 116.226562 497.1875 114.234375 492.640625 112.347656 C 488.09375 110.464844 483.503906 108.695312 478.871094 107.035156 C 474.234375 105.378906 469.5625 103.835938 464.851562 102.40625 C 460.144531 100.976562 455.402344 99.664062 450.625 98.46875 C 445.851562 97.273438 441.050781 96.195312 436.222656 95.234375 C 431.394531 94.273438 426.546875 93.433594 421.679688 92.710938 C 416.808594 91.988281 411.925781 91.386719 407.027344 90.90625 C 402.128906 90.421875 397.222656 90.058594 392.308594 89.820312 C 387.390625 89.578125 382.472656 89.457031 377.550781 89.457031 Z M 506.441406 433.171875 L 420.515625 433.171875 L 420.515625 519.097656 C 420.515625 520.507812 420.445312 521.910156 420.308594 523.308594 C 420.167969 524.710938 419.964844 526.101562 419.6875 527.480469 C 419.414062 528.859375 419.074219 530.222656 418.664062 531.570312 C 418.253906 532.917969 417.78125 534.242188 417.242188 535.539062 C 416.707031 536.839844 416.105469 538.113281 415.441406 539.351562 C 414.777344 540.59375 414.054688 541.800781 413.273438 542.96875 C 412.492188 544.140625 411.65625 545.269531 410.761719 546.355469 C 409.867188 547.441406 408.925781 548.484375 407.929688 549.480469 C 406.933594 550.472656 405.894531 551.417969 404.804688 552.3125 C 403.71875 553.203125 402.589844 554.039062 401.417969 554.824219 C 400.25 555.605469 399.042969 556.328125 397.804688 556.992188 C 396.5625 557.652344 395.292969 558.253906 393.992188 558.792969 C 392.691406 559.332031 391.367188 559.804688 390.023438 560.214844 C 388.675781 560.621094 387.3125 560.964844 385.933594 561.238281 C 384.550781 561.511719 383.160156 561.71875 381.761719 561.855469 C 380.359375 561.996094 378.957031 562.0625 377.550781 562.0625 C 376.144531 562.0625 374.738281 561.996094 373.339844 561.855469 C 371.9375 561.71875 370.546875 561.511719 369.167969 561.238281 C 367.789062 560.964844 366.425781 560.621094 365.078125 560.214844 C 363.730469 559.804688 362.410156 559.332031 361.109375 558.792969 C 359.808594 558.253906 358.539062 557.652344 357.296875 556.992188 C 356.054688 556.328125 354.851562 555.605469 353.679688 554.824219 C 352.511719 554.039062 351.382812 553.203125 350.292969 552.3125 C 349.207031 551.417969 348.164062 550.472656 347.167969 549.480469 C 346.175781 548.484375 345.230469 547.441406 344.339844 546.355469 C 343.445312 545.269531 342.609375 544.140625 341.828125 542.96875 C 341.042969 541.800781 340.320312 540.59375 339.660156 539.351562 C 338.996094 538.113281 338.394531 536.839844 337.855469 535.539062 C 337.316406 534.242188 336.84375 532.917969 336.4375 531.570312 C 336.027344 530.222656 335.6875 528.859375 335.410156 527.480469 C 335.136719 526.101562 334.929688 524.710938 334.792969 523.308594 C 334.65625 521.910156 334.585938 520.507812 334.585938 519.097656 L 334.585938 433.171875 L 248.65625 433.171875 C 247.25 433.171875 245.847656 433.101562 244.445312 432.964844 C 243.046875 432.824219 241.65625 432.621094 240.273438 432.34375 C 238.894531 432.070312 237.53125 431.730469 236.183594 431.320312 C 234.839844 430.914062 233.515625 430.4375 232.214844 429.898438 C 230.914062 429.363281 229.644531 428.761719 228.402344 428.097656 C 227.164062 427.433594 225.957031 426.710938 224.789062 425.929688 C 223.617188 425.148438 222.488281 424.3125 221.402344 423.417969 C 220.3125 422.527344 219.273438 421.582031 218.277344 420.585938 C 217.28125 419.589844 216.339844 418.550781 215.445312 417.460938 C 214.550781 416.375 213.714844 415.246094 212.933594 414.074219 C 212.152344 412.90625 211.429688 411.699219 210.765625 410.460938 C 210.101562 409.21875 209.5 407.949219 208.964844 406.648438 C 208.425781 405.347656 207.953125 404.023438 207.542969 402.679688 C 207.132812 401.332031 206.792969 399.96875 206.519531 398.589844 C 206.242188 397.207031 206.039062 395.816406 205.898438 394.417969 C 205.761719 393.015625 205.691406 391.613281 205.691406 390.207031 C 205.691406 388.800781 205.761719 387.394531 205.898438 385.996094 C 206.039062 384.59375 206.242188 383.203125 206.519531 381.824219 C 206.792969 380.445312 207.132812 379.082031 207.542969 377.734375 C 207.953125 376.386719 208.425781 375.066406 208.964844 373.765625 C 209.5 372.464844 210.101562 371.195312 210.765625 369.953125 C 211.429688 368.710938 212.152344 367.507812 212.933594 366.335938 C 213.714844 365.167969 214.550781 364.039062 215.445312 362.949219 C 216.339844 361.863281 217.28125 360.820312 218.277344 359.824219 C 219.273438 358.832031 220.3125 357.886719 221.402344 356.996094 C 222.488281 356.101562 223.617188 355.265625 224.789062 354.484375 C 225.957031 353.699219 227.164062 352.980469 228.402344 352.316406 C 229.644531 351.652344 230.914062 351.050781 232.214844 350.511719 C 233.515625 349.972656 234.839844 349.5 236.183594 349.09375 C 237.53125 348.683594 238.894531 348.34375 240.273438 348.066406 C 241.65625 347.792969 243.046875 347.585938 244.445312 347.449219 C 245.847656 347.3125 247.25 347.242188 248.65625 347.242188 L 334.585938 347.242188 L 334.585938 261.3125 C 334.585938 259.90625 334.65625 258.503906 334.792969 257.101562 C 334.929688 255.703125 335.136719 254.3125 335.410156 252.929688 C 335.6875 251.550781 336.027344 250.1875 336.4375 248.839844 C 336.84375 247.496094 337.316406 246.171875 337.855469 244.871094 C 338.394531 243.570312 338.996094 242.300781 339.660156 241.058594 C 340.320312 239.820312 341.042969 238.613281 341.828125 237.445312 C 342.609375 236.273438 343.445312 235.144531 344.339844 234.058594 C 345.230469 232.96875 346.175781 231.929688 347.167969 230.933594 C 348.164062 229.9375 349.207031 228.996094 350.292969 228.101562 C 351.382812 227.207031 352.511719 226.371094 353.679688 225.589844 C 354.851562 224.808594 356.054688 224.085938 357.296875 223.421875 C 358.539062 222.757812 359.808594 222.15625 361.109375 221.621094 C 362.410156 221.082031 363.730469 220.609375 365.078125 220.199219 C 366.425781 219.789062 367.789062 219.449219 369.167969 219.175781 C 370.546875 218.898438 371.9375 218.695312 373.339844 218.554688 C 374.738281 218.417969 376.144531 218.347656 377.550781 218.347656 C 378.957031 218.347656 380.359375 218.417969 381.761719 218.554688 C 383.160156 218.695312 384.550781 218.898438 385.933594 219.175781 C 387.3125 219.449219 388.675781 219.789062 390.023438 220.199219 C 391.367188 220.609375 392.691406 221.082031 393.992188 221.621094 C 395.292969 222.15625 396.5625 222.757812 397.804688 223.421875 C 399.042969 224.085938 400.25 224.808594 401.417969 225.589844 C 402.589844 226.371094 403.71875 227.207031 404.804688 228.101562 C 405.894531 228.996094 406.933594 229.9375 407.929688 230.933594 C 408.925781 231.929688 409.867188 232.96875 410.761719 234.058594 C 411.65625 235.144531 412.492188 236.273438 413.273438 237.445312 C 414.054688 238.613281 414.777344 239.820312 415.441406 241.058594 C 416.105469 242.300781 416.707031 243.570312 417.242188 244.871094 C 417.78125 246.171875 418.253906 247.496094 418.664062 248.839844 C 419.074219 250.1875 419.414062 251.550781 419.6875 252.929688 C 419.964844 254.3125 420.167969 255.703125 420.308594 257.101562 C 420.445312 258.503906 420.515625 259.90625 420.515625 261.3125 L 420.515625 347.242188 L 506.441406 347.242188 C 507.851562 347.242188 509.253906 347.3125 510.652344 347.449219 C 512.054688 347.585938 513.445312 347.792969 514.824219 348.066406 C 516.203125 348.34375 517.566406 348.683594 518.914062 349.09375 C 520.261719 349.5 521.585938 349.972656 522.882812 350.511719 C 524.183594 351.050781 525.453125 351.652344 526.695312 352.316406 C 527.9375 352.980469 529.140625 353.699219 530.3125 354.484375 C 531.480469 355.265625 532.609375 356.101562 533.699219 356.996094 C 534.785156 357.886719 535.828125 358.832031 536.824219 359.824219 C 537.816406 360.820312 538.761719 361.863281 539.65625 362.949219 C 540.546875 364.039062 541.382812 365.167969 542.167969 366.335938 C 542.949219 367.507812 543.671875 368.710938 544.332031 369.953125 C 544.996094 371.195312 545.597656 372.464844 546.136719 373.765625 C 546.675781 375.066406 547.148438 376.386719 547.558594 377.734375 C 547.964844 379.082031 548.308594 380.445312 548.582031 381.824219 C 548.855469 383.203125 549.0625 384.59375 549.199219 385.996094 C 549.339844 387.394531 549.40625 388.800781 549.40625 390.207031 C 549.40625 391.613281 549.339844 393.015625 549.199219 394.417969 C 549.0625 395.816406 548.855469 397.207031 548.582031 398.589844 C 548.308594 399.96875 547.964844 401.332031 547.558594 402.679688 C 547.148438 404.023438 546.675781 405.347656 546.136719 406.648438 C 545.597656 407.949219 544.996094 409.21875 544.332031 410.460938 C 543.671875 411.699219 542.949219 412.90625 542.167969 414.074219 C 541.382812 415.246094 540.546875 416.375 539.65625 417.460938 C 538.761719 418.550781 537.816406 419.589844 536.824219 420.585938 C 535.828125 421.582031 534.785156 422.527344 533.699219 423.417969 C 532.609375 424.3125 531.484375 425.148438 530.3125 425.929688 C 529.140625 426.710938 527.9375 427.433594 526.695312 428.097656 C 525.453125 428.761719 524.183594 429.363281 522.882812 429.898438 C 521.585938 430.4375 520.261719 430.914062 518.914062 431.320312 C 517.566406 431.730469 516.203125 432.070312 514.824219 432.34375 C 513.445312 432.621094 512.054688 432.824219 510.652344 432.964844 C 509.253906 433.101562 507.851562 433.171875 506.441406 433.171875 Z M 506.441406 433.171875 "/></g></g></svg>