<?xml version="1.0" encoding="UTF-8"?><svg xmlns="http://www.w3.org/2000/svg" xmlns:xlink="http://www.w3.org/1999/xlink" width="150pt" zoomAndPan="magnify" viewBox="0 0 150 149.999998" height="149.999998pt" preserveAspectRatio="xMidYMid meet" version="1.2"><defs><clipPath xml:id="clip1" id="clip1"><path d="M 8.367188 8.367188 L 141.867188 8.367188 L 141.867188 141.867188 L 8.367188 141.867188 Z M 8.367188 8.367188 "/></clipPath></defs><g xml:id="surface1" id="surface1"><g clip-rule="nonzero" clip-path="url(#clip1)"><path style=" stroke:none;fill-rule:nonzero;fill:rgb(100%,100%,100%);fill-opacity:1;" d="M 131.851562 66.429688 L 85.394531 66.429688 L 85.394531 18.605469 C 85.394531 12.992188 80.84375 8.4375 75.230469 8.4375 C 69.617188 8.4375 65.066406 12.992188 65.066406 18.605469 L 65.066406 66.429688 L 18.605469 66.429688 C 12.992188 66.429688 8.441406 70.980469 8.441406 76.59375 C 8.441406 82.207031 12.992188 86.757812 18.605469 86.757812 L 65.066406 86.757812 L 65.066406 131.859375 C 65.066406 137.472656 69.617188 142.023438 75.230469 142.023438 C 80.84375 142.023438 85.394531 137.472656 85.394531 131.859375 L 85.394531 86.757812 L 131.851562 86.757812 C 137.464844 86.757812 142.019531 82.207031 142.019531 76.59375 C 142.019531 70.980469 137.464844 66.429688 131.851562 66.429688 Z M 131.851562 66.429688 "/></g></g></svg>