<?xml version="1.0" encoding="UTF-8"?>
<svg xmlns="http://www.w3.org/2000/svg" xmlns:xlink="http://www.w3.org/1999/xlink" width="768pt" height="767.999994pt" viewBox="0 0 768 767.999994" version="1.2">
<defs>
<clipPath id="clip1">
  <path d="M 6.359375 100.773438 L 761.585938 100.773438 L 761.585938 666.605469 L 6.359375 666.605469 Z M 6.359375 100.773438 "/>
</clipPath>
</defs>
<g id="surface1">
<g clip-path="url(#clip1)" clip-rule="nonzero">
<path style=" stroke:none;fill-rule:nonzero;fill:rgb(6.269836%,5.879211%,5.099487%);fill-opacity:1;" d="M 690.78125 312.96875 L 261.675781 312.96875 L 360.503906 224.054688 L 360.304688 223.855469 C 389.402344 197.925781 391.882812 153.300781 365.871094 124.289062 C 339.921875 95.277344 295.335938 92.800781 266.234375 118.796875 C 266.167969 118.863281 266.035156 118.929688 265.902344 119.0625 L 265.765625 118.863281 L 29.757812 331.125 L 29.960938 331.324219 C 0.996094 356.988281 -1.6875 401.277344 23.992188 430.222656 C 25.871094 432.296875 27.882812 434.308594 29.960938 436.183594 L 29.757812 436.320312 L 265.765625 648.582031 L 265.96875 648.445312 C 294.867188 674.511719 339.519531 672.300781 365.667969 643.421875 C 391.816406 614.476562 389.539062 569.921875 360.640625 543.789062 C 360.574219 543.722656 360.4375 543.65625 360.371094 543.523438 L 360.503906 543.386719 L 261.675781 454.476562 L 690.78125 454.476562 C 729.871094 454.476562 761.585938 422.785156 761.585938 383.722656 C 761.585938 344.660156 729.871094 312.96875 690.78125 312.96875 "/>
</g>
</g>
</svg>
