<?xml version="1.0" encoding="UTF-8"?>
<svg xmlns="http://www.w3.org/2000/svg" xmlns:xlink="http://www.w3.org/1999/xlink" width="768pt" height="767.999994pt" viewBox="0 0 768 767.999994" version="1.2">
<defs>
<clipPath id="clip1">
  <path d="M 17 185.601562 L 751 185.601562 L 751 582.304688 L 17 582.304688 Z M 17 185.601562 "/>
</clipPath>
</defs>
<g id="surface1">
<g clip-path="url(#clip1)" clip-rule="nonzero">
<path style=" stroke:none;fill-rule:nonzero;fill:rgb(0%,0%,0%);fill-opacity:1;" d="M 384.195312 185.648438 C 233.226562 185.648438 99.585938 263.882812 17.679688 384.019531 C 99.585938 504.164062 233.226562 582.402344 384.195312 582.402344 C 535.171875 582.402344 668.8125 504.164062 750.710938 384.019531 C 668.8125 263.882812 535.171875 185.648438 384.195312 185.648438 Z M 286.996094 256.382812 C 312.96875 230.453125 347.484375 216.160156 384.195312 216.160156 C 420.90625 216.160156 455.421875 230.453125 481.371094 256.382812 C 507.34375 282.324219 521.636719 316.816406 521.636719 353.496094 C 521.636719 390.1875 507.34375 424.679688 481.371094 450.609375 C 455.421875 476.539062 420.90625 490.84375 384.195312 490.84375 C 347.484375 490.84375 312.96875 476.539062 286.996094 450.609375 C 261.046875 424.679688 246.75 390.1875 246.75 353.496094 C 246.75 316.816406 261.046875 282.324219 286.996094 256.382812 Z M 659.464844 443.230469 C 634.722656 465.941406 607.496094 485.570312 578.570312 501.550781 C 549.175781 517.800781 517.992188 530.320312 485.867188 538.769531 C 452.804688 547.464844 418.601562 551.867188 384.195312 551.867188 C 349.789062 551.867188 315.585938 547.464844 282.519531 538.769531 C 250.394531 530.320312 219.222656 517.804688 189.828125 501.550781 C 160.894531 485.570312 133.679688 465.941406 108.925781 443.230469 C 89.375 425.261719 71.378906 405.410156 55.238281 384.019531 C 71.378906 362.617188 89.375 342.765625 108.925781 324.816406 C 133.679688 302.105469 160.894531 282.480469 189.828125 266.488281 C 214.257812 252.976562 239.925781 242.042969 266.347656 233.898438 C 235.410156 264.339844 216.203125 306.679688 216.203125 353.496094 C 216.203125 446.207031 291.425781 521.355469 384.195312 521.355469 C 476.964844 521.355469 552.175781 446.207031 552.175781 353.496094 C 552.175781 306.679688 532.980469 264.34375 502.042969 233.898438 C 528.460938 242.042969 554.140625 252.976562 578.570312 266.488281 C 607.496094 282.480469 634.71875 302.105469 659.460938 324.816406 C 679.011719 342.765625 697.019531 362.617188 713.152344 384.019531 C 697.023438 405.410156 679.015625 425.261719 659.464844 443.230469 Z M 659.464844 443.230469 "/>
</g>
<path style=" stroke:none;fill-rule:nonzero;fill:rgb(0%,0%,0%);fill-opacity:1;" d="M 292.566406 368.75 C 301 368.75 307.84375 361.921875 307.84375 353.496094 C 307.84375 311.425781 342.09375 277.203125 384.195312 277.203125 C 392.628906 277.203125 399.472656 270.367188 399.472656 261.9375 C 399.472656 253.511719 392.628906 246.683594 384.195312 246.683594 C 325.160156 246.683594 277.285156 294.507812 277.285156 353.496094 C 277.285156 361.921875 284.132812 368.75 292.566406 368.75 Z M 292.566406 368.75 "/>
</g>
</svg>
