<?xml version="1.0" encoding="UTF-8"?>
<svg xmlns="http://www.w3.org/2000/svg" xmlns:xlink="http://www.w3.org/1999/xlink" width="768pt" height="767.999994pt" viewBox="0 0 768 767.999994" version="1.2">
<defs>
<clipPath id="clip1">
  <path d="M 47 9.414062 L 719 9.414062 L 719 758.664062 L 47 758.664062 Z M 47 9.414062 "/>
</clipPath>
</defs>
<g id="surface1">
<g clip-path="url(#clip1)" clip-rule="nonzero">
<path style=" stroke:none;fill-rule:nonzero;fill:rgb(0%,0%,0%);fill-opacity:1;" d="M 711.675781 311.058594 C 699.453125 269.058594 661.199219 243.96875 609.332031 243.945312 L 423.789062 243.910156 C 461.34375 128.246094 438.324219 69.566406 420.597656 44.441406 C 404.917969 22.179688 382.042969 9.414062 357.835938 9.414062 C 328.203125 9.414062 302.726562 28.546875 292.949219 58.171875 C 287.90625 73.410156 285.707031 81.859375 284.183594 91.9375 C 251.152344 184.917969 222.242188 219.871094 201.121094 245.417969 C 189.886719 259.003906 180.53125 270.375 173.820312 285.714844 C 167.011719 280.289062 158.125 276.890625 148.285156 276.890625 L 85.460938 276.890625 C 64.269531 276.890625 47.027344 292.203125 47.027344 311.023438 L 47.027344 662.15625 C 47.027344 680.972656 64.269531 696.273438 85.460938 696.273438 L 148.285156 696.273438 C 161.621094 696.273438 173.359375 690.207031 180.253906 681.023438 C 214.636719 736.605469 291.882812 758.746094 345.445312 758.746094 L 517.671875 758.746094 C 518.191406 758.746094 518.710938 758.710938 519.234375 758.652344 C 570.15625 752.015625 599.488281 714.683594 599.246094 657.878906 C 620.261719 653.890625 645.820312 640.644531 662.25 616.832031 C 674.316406 599.359375 685.441406 570.351562 673.457031 528.96875 C 697.75 515.273438 714.542969 488.792969 718.242188 457.296875 C 721.507812 429.5625 713.476562 403.480469 696.9375 385.894531 C 713.695312 367.574219 719.765625 338.917969 711.675781 311.058594 Z M 162.527344 662.15625 C 162.527344 666.859375 156.6875 672.101562 148.285156 672.101562 L 85.460938 672.101562 C 77.070312 672.101562 71.207031 666.859375 71.207031 662.15625 L 71.207031 311.035156 C 71.207031 306.320312 77.058594 301.074219 85.460938 301.074219 L 148.285156 301.074219 C 156.675781 301.074219 162.527344 306.320312 162.527344 311.035156 Z M 694.21875 454.46875 C 691.738281 475.546875 679.964844 501.546875 654.332031 511.3125 C 648.140625 513.667969 645.007812 520.558594 647.292969 526.769531 C 658.128906 556.308594 656.433594 582.703125 642.351562 603.09375 C 628.046875 623.796875 603.480469 634.816406 586.613281 635 C 583.289062 635.035156 580.109375 636.449219 577.847656 638.890625 C 575.585938 641.332031 574.449219 644.621094 574.679688 647.941406 C 576.746094 677.082031 571.945312 726.960938 516.863281 734.574219 L 345.445312 734.574219 C 284.074219 734.574219 186.707031 702.644531 186.707031 616.953125 L 186.707031 356.234375 C 186.707031 300.808594 198.449219 286.609375 219.75 260.828125 C 242.117188 233.78125 272.757812 196.738281 307.371094 98.902344 C 307.636719 98.152344 307.832031 97.378906 307.953125 96.59375 C 309.089844 88.675781 310.636719 81.738281 315.894531 65.761719 C 322.460938 45.914062 338.527344 33.585938 357.835938 33.585938 C 374.074219 33.585938 389.742188 42.617188 400.84375 58.351562 C 427.78125 96.554688 425.820312 167.101562 395.523438 251.921875 C 394.203125 255.621094 394.761719 259.730469 397.023438 262.945312 C 399.296875 266.160156 402.96875 268.066406 406.898438 268.066406 L 609.332031 268.117188 C 649.832031 268.128906 679.40625 286.71875 688.449219 317.800781 C 695.183594 340.933594 688.222656 365.25 671.910156 375.632812 C 668.488281 377.820312 666.386719 381.578125 666.3125 385.640625 C 666.253906 389.703125 668.234375 393.53125 671.597656 395.816406 C 688.449219 407.300781 697.121094 429.777344 694.21875 454.46875 Z M 694.21875 454.46875 "/>
</g>
</g>
</svg>
