<?xml version="1.0" encoding="UTF-8"?>
<svg xmlns="http://www.w3.org/2000/svg" xmlns:xlink="http://www.w3.org/1999/xlink" width="768pt" height="767.999994pt" viewBox="0 0 768 767.999994" version="1.2">
<defs>
<clipPath id="clip1">
  <path d="M 47 9.414062 L 719 9.414062 L 719 758.582031 L 47 758.582031 Z M 47 9.414062 "/>
</clipPath>
</defs>
<g id="surface1">
<g clip-path="url(#clip1)" clip-rule="nonzero">
<path style=" stroke:none;fill-rule:nonzero;fill:rgb(0%,0%,0%);fill-opacity:1;" d="M 711.675781 456.941406 C 699.453125 498.941406 661.199219 524.03125 609.332031 524.054688 L 423.789062 524.089844 C 461.34375 639.753906 438.324219 698.433594 420.597656 723.558594 C 404.917969 745.820312 382.042969 758.582031 357.835938 758.582031 C 328.203125 758.582031 302.726562 739.453125 292.949219 709.828125 C 287.90625 694.589844 285.707031 686.140625 284.183594 676.058594 C 251.152344 583.082031 222.242188 548.128906 201.121094 522.582031 C 189.886719 508.996094 180.53125 497.621094 173.820312 482.285156 C 167.011719 487.710938 158.125 491.109375 148.285156 491.109375 L 85.460938 491.109375 C 64.269531 491.109375 47.027344 475.796875 47.027344 456.976562 L 47.027344 105.84375 C 47.027344 87.023438 64.269531 71.722656 85.460938 71.722656 L 148.285156 71.722656 C 161.621094 71.722656 173.359375 77.792969 180.253906 86.976562 C 214.636719 31.394531 291.882812 9.25 345.445312 9.25 L 517.671875 9.25 C 518.191406 9.25 518.710938 9.289062 519.234375 9.347656 C 570.15625 15.984375 599.488281 53.316406 599.246094 110.121094 C 620.261719 114.109375 645.820312 127.355469 662.25 151.164062 C 674.316406 168.640625 685.441406 197.648438 673.457031 239.03125 C 697.75 252.722656 714.542969 279.203125 718.242188 310.699219 C 721.507812 338.4375 713.476562 364.519531 696.9375 382.105469 C 713.695312 400.425781 719.765625 429.082031 711.675781 456.941406 Z M 162.527344 105.84375 C 162.527344 101.140625 156.6875 95.894531 148.285156 95.894531 L 85.460938 95.894531 C 77.070312 95.894531 71.207031 101.140625 71.207031 105.84375 L 71.207031 456.964844 C 71.207031 461.679688 77.058594 466.925781 85.460938 466.925781 L 148.285156 466.925781 C 156.675781 466.925781 162.527344 461.679688 162.527344 456.964844 Z M 694.21875 313.527344 C 691.738281 292.449219 679.964844 266.453125 654.332031 256.6875 C 648.140625 254.332031 645.007812 247.441406 647.292969 241.230469 C 658.128906 211.691406 656.433594 185.296875 642.351562 164.90625 C 628.046875 144.203125 603.480469 133.179688 586.613281 133 C 583.289062 132.964844 580.109375 131.550781 577.847656 129.109375 C 575.585938 126.667969 574.449219 123.378906 574.679688 120.054688 C 576.746094 90.917969 571.945312 41.039062 516.863281 33.421875 L 345.445312 33.421875 C 284.074219 33.421875 186.707031 65.355469 186.707031 151.042969 L 186.707031 411.765625 C 186.707031 467.191406 198.449219 481.390625 219.75 507.171875 C 242.117188 534.21875 272.757812 571.261719 307.371094 669.097656 C 307.636719 669.847656 307.832031 670.621094 307.953125 671.40625 C 309.089844 679.324219 310.636719 686.261719 315.894531 702.238281 C 322.460938 722.082031 338.527344 734.410156 357.835938 734.410156 C 374.074219 734.410156 389.742188 725.382812 400.84375 709.648438 C 427.78125 671.445312 425.820312 600.898438 395.523438 516.078125 C 394.203125 512.378906 394.761719 508.269531 397.023438 505.054688 C 399.296875 501.839844 402.96875 499.929688 406.898438 499.929688 L 609.332031 499.882812 C 649.832031 499.871094 679.40625 481.28125 688.449219 450.199219 C 695.183594 427.066406 688.222656 402.746094 671.910156 392.367188 C 668.488281 390.179688 666.386719 386.417969 666.3125 382.359375 C 666.253906 378.296875 668.234375 374.464844 671.597656 372.183594 C 688.449219 360.699219 697.121094 338.21875 694.21875 313.527344 Z M 694.21875 313.527344 "/>
</g>
</g>
</svg>
