<?xml version="1.0" encoding="UTF-8"?>
<svg xmlns="http://www.w3.org/2000/svg" xmlns:xlink="http://www.w3.org/1999/xlink" width="768pt" height="767.999994pt" viewBox="0 0 768 767.999994" version="1.2">
<defs>
<clipPath id="clip1">
  <path d="M 16 385 L 753 385 L 753 720.125 L 16 720.125 Z M 16 385 "/>
</clipPath>
</defs>
<g id="surface1">
<g clip-path="url(#clip1)" clip-rule="nonzero">
<path style=" stroke:none;fill-rule:nonzero;fill:rgb(0%,0%,0%);fill-opacity:1;" d="M 718.777344 385.925781 C 717.679688 385.925781 716.589844 385.980469 715.5 386.085938 C 714.40625 386.195312 713.324219 386.355469 712.25 386.570312 C 711.175781 386.78125 710.117188 387.046875 709.066406 387.367188 C 708.019531 387.683594 706.988281 388.050781 705.976562 388.472656 C 704.964844 388.890625 703.976562 389.359375 703.007812 389.875 C 702.042969 390.390625 701.105469 390.953125 700.195312 391.5625 C 699.285156 392.171875 698.40625 392.824219 697.558594 393.519531 C 696.710938 394.210938 695.898438 394.949219 695.125 395.722656 C 694.351562 396.496094 693.617188 397.308594 692.921875 398.152344 C 692.226562 399 691.574219 399.878906 690.964844 400.789062 C 690.359375 401.699219 689.796875 402.640625 689.277344 403.605469 C 688.761719 404.570312 688.292969 405.5625 687.875 406.574219 C 687.457031 407.585938 687.085938 408.613281 686.769531 409.664062 C 686.453125 410.710938 686.1875 411.773438 685.972656 412.847656 C 685.757812 413.921875 685.597656 415.003906 685.488281 416.09375 C 685.382812 417.183594 685.328125 418.277344 685.328125 419.371094 L 685.328125 653.492188 L 83.273438 653.492188 L 83.273438 419.371094 C 83.273438 418.277344 83.21875 417.183594 83.113281 416.09375 C 83.003906 415.003906 82.84375 413.921875 82.628906 412.847656 C 82.417969 411.773438 82.152344 410.710938 81.832031 409.664062 C 81.515625 408.613281 81.144531 407.585938 80.726562 406.574219 C 80.308594 405.558594 79.839844 404.570312 79.324219 403.605469 C 78.808594 402.640625 78.246094 401.699219 77.636719 400.789062 C 77.027344 399.878906 76.375 399 75.679688 398.152344 C 74.984375 397.308594 74.25 396.496094 73.476562 395.722656 C 72.703125 394.949219 71.890625 394.210938 71.042969 393.519531 C 70.199219 392.824219 69.320312 392.171875 68.40625 391.5625 C 67.496094 390.953125 66.558594 390.390625 65.59375 389.875 C 64.625 389.359375 63.636719 388.890625 62.625 388.472656 C 61.613281 388.050781 60.582031 387.683594 59.535156 387.367188 C 58.488281 387.046875 57.425781 386.78125 56.351562 386.570312 C 55.277344 386.355469 54.195312 386.195312 53.105469 386.085938 C 52.011719 385.980469 50.921875 385.925781 49.824219 385.925781 C 48.730469 385.925781 47.636719 385.980469 46.546875 386.085938 C 45.457031 386.195312 44.375 386.355469 43.300781 386.570312 C 42.226562 386.78125 41.164062 387.046875 40.117188 387.367188 C 39.066406 387.683594 38.039062 388.050781 37.027344 388.472656 C 36.011719 388.890625 35.023438 389.359375 34.058594 389.875 C 33.09375 390.390625 32.152344 390.953125 31.242188 391.5625 C 30.332031 392.171875 29.453125 392.824219 28.605469 393.519531 C 27.757812 394.210938 26.949219 394.949219 26.175781 395.722656 C 25.398438 396.496094 24.664062 397.308594 23.96875 398.152344 C 23.273438 399 22.625 399.878906 22.015625 400.789062 C 21.40625 401.699219 20.84375 402.640625 20.328125 403.605469 C 19.8125 404.570312 19.34375 405.558594 18.921875 406.574219 C 18.503906 407.585938 18.136719 408.613281 17.816406 409.664062 C 17.5 410.710938 17.234375 411.773438 17.019531 412.847656 C 16.808594 413.921875 16.644531 415.003906 16.539062 416.09375 C 16.429688 417.183594 16.378906 418.277344 16.378906 419.371094 L 16.378906 686.9375 C 16.378906 688.03125 16.429688 689.125 16.539062 690.214844 C 16.644531 691.304688 16.808594 692.386719 17.019531 693.460938 C 17.234375 694.535156 17.5 695.597656 17.816406 696.644531 C 18.136719 697.695312 18.503906 698.722656 18.921875 699.734375 C 19.34375 700.75 19.8125 701.738281 20.328125 702.703125 C 20.84375 703.667969 21.40625 704.609375 22.015625 705.519531 C 22.625 706.429688 23.273438 707.308594 23.96875 708.15625 C 24.664062 709 25.398438 709.8125 26.175781 710.585938 C 26.949219 711.359375 27.757812 712.097656 28.605469 712.789062 C 29.453125 713.484375 30.332031 714.136719 31.242188 714.746094 C 32.152344 715.355469 33.09375 715.917969 34.058594 716.433594 C 35.023438 716.949219 36.011719 717.417969 37.027344 717.835938 C 38.039062 718.257812 39.066406 718.625 40.117188 718.941406 C 41.164062 719.261719 42.226562 719.527344 43.300781 719.738281 C 44.375 719.953125 45.457031 720.113281 46.546875 720.222656 C 47.636719 720.328125 48.730469 720.382812 49.824219 720.382812 L 718.777344 720.382812 C 719.871094 720.382812 720.964844 720.328125 722.054688 720.222656 C 723.144531 720.113281 724.226562 719.953125 725.300781 719.738281 C 726.375 719.527344 727.4375 719.261719 728.484375 718.941406 C 729.535156 718.625 730.5625 718.257812 731.578125 717.835938 C 732.589844 717.417969 733.578125 716.949219 734.542969 716.433594 C 735.511719 715.917969 736.449219 715.355469 737.359375 714.746094 C 738.269531 714.136719 739.148438 713.484375 739.996094 712.789062 C 740.84375 712.097656 741.652344 711.359375 742.425781 710.585938 C 743.203125 709.8125 743.9375 709 744.632812 708.15625 C 745.328125 707.308594 745.980469 706.429688 746.585938 705.519531 C 747.195312 704.609375 747.757812 703.667969 748.273438 702.703125 C 748.792969 701.738281 749.257812 700.75 749.679688 699.734375 C 750.097656 698.722656 750.464844 697.695312 750.785156 696.644531 C 751.101562 695.597656 751.367188 694.535156 751.582031 693.460938 C 751.796875 692.386719 751.957031 691.304688 752.0625 690.214844 C 752.171875 689.125 752.222656 688.03125 752.222656 686.9375 L 752.222656 419.371094 C 752.222656 418.277344 752.171875 417.183594 752.0625 416.09375 C 751.957031 415.003906 751.796875 413.921875 751.582031 412.847656 C 751.367188 411.773438 751.101562 410.710938 750.785156 409.664062 C 750.464844 408.613281 750.097656 407.585938 749.679688 406.574219 C 749.257812 405.558594 748.792969 404.570312 748.273438 403.605469 C 747.757812 402.640625 747.195312 401.699219 746.585938 400.789062 C 745.980469 399.878906 745.328125 399 744.632812 398.152344 C 743.9375 397.308594 743.203125 396.496094 742.425781 395.722656 C 741.652344 394.949219 740.84375 394.210938 739.996094 393.519531 C 739.148438 392.824219 738.269531 392.171875 737.359375 391.5625 C 736.449219 390.953125 735.511719 390.390625 734.542969 389.875 C 733.578125 389.359375 732.589844 388.890625 731.578125 388.472656 C 730.5625 388.050781 729.535156 387.683594 728.484375 387.367188 C 727.4375 387.046875 726.375 386.78125 725.300781 386.570312 C 724.226562 386.355469 723.144531 386.195312 722.054688 386.085938 C 720.964844 385.980469 719.871094 385.925781 718.777344 385.925781 Z M 718.777344 385.925781 "/>
</g>
<path style=" stroke:none;fill-rule:nonzero;fill:rgb(0%,0%,0%);fill-opacity:1;" d="M 384.300781 586.601562 C 385.398438 586.601562 386.488281 586.546875 387.578125 586.4375 C 388.667969 586.332031 389.75 586.171875 390.828125 585.957031 C 391.902344 585.742188 392.960938 585.476562 394.011719 585.160156 C 395.058594 584.84375 396.089844 584.472656 397.101562 584.054688 C 398.113281 583.636719 399.101562 583.167969 400.066406 582.652344 C 401.035156 582.132812 401.972656 581.570312 402.882812 580.964844 C 403.792969 580.355469 404.671875 579.703125 405.519531 579.007812 C 406.367188 578.3125 407.175781 577.578125 407.953125 576.804688 C 408.726562 576.03125 409.460938 575.21875 410.15625 574.371094 C 410.851562 573.523438 411.503906 572.644531 412.113281 571.734375 C 412.71875 570.824219 413.28125 569.886719 413.800781 568.921875 C 414.316406 567.953125 414.785156 566.964844 415.203125 565.953125 C 415.621094 564.941406 415.992188 563.910156 416.308594 562.863281 C 416.625 561.816406 416.890625 560.753906 417.105469 559.679688 C 417.320312 558.605469 417.480469 557.523438 417.585938 556.433594 C 417.695312 555.34375 417.75 554.25 417.75 553.15625 L 417.75 165.652344 L 494.445312 242.34375 C 495.222656 243.097656 496.035156 243.808594 496.886719 244.484375 C 497.734375 245.15625 498.613281 245.785156 499.523438 246.375 C 500.433594 246.964844 501.367188 247.503906 502.332031 248.003906 C 503.292969 248.5 504.277344 248.949219 505.285156 249.351562 C 506.289062 249.753906 507.3125 250.105469 508.355469 250.40625 C 509.394531 250.707031 510.445312 250.960938 511.511719 251.160156 C 512.578125 251.359375 513.648438 251.507812 514.726562 251.601562 C 515.804688 251.699219 516.886719 251.742188 517.972656 251.730469 C 519.054688 251.722656 520.132812 251.660156 521.210938 251.546875 C 522.289062 251.429688 523.359375 251.265625 524.417969 251.046875 C 525.480469 250.828125 526.527344 250.558594 527.5625 250.238281 C 528.597656 249.917969 529.617188 249.550781 530.613281 249.128906 C 531.613281 248.710938 532.589844 248.246094 533.542969 247.730469 C 534.496094 247.21875 535.425781 246.660156 536.324219 246.054688 C 537.222656 245.453125 538.089844 244.804688 538.925781 244.117188 C 539.765625 243.429688 540.566406 242.703125 541.332031 241.9375 C 542.097656 241.171875 542.824219 240.371094 543.511719 239.53125 C 544.199219 238.695312 544.847656 237.828125 545.449219 236.929688 C 546.054688 236.03125 546.613281 235.101562 547.128906 234.148438 C 547.640625 233.195312 548.105469 232.21875 548.527344 231.21875 C 548.945312 230.222656 549.316406 229.203125 549.636719 228.167969 C 549.953125 227.132812 550.222656 226.085938 550.441406 225.027344 C 550.660156 223.964844 550.828125 222.894531 550.941406 221.816406 C 551.054688 220.742188 551.117188 219.660156 551.125 218.578125 C 551.136719 217.496094 551.09375 216.414062 550.996094 215.335938 C 550.902344 214.253906 550.753906 213.183594 550.554688 212.117188 C 550.355469 211.054688 550.105469 210 549.800781 208.960938 C 549.5 207.921875 549.148438 206.898438 548.746094 205.890625 C 548.34375 204.886719 547.894531 203.902344 547.398438 202.9375 C 546.902344 201.976562 546.359375 201.039062 545.769531 200.128906 C 545.183594 199.21875 544.550781 198.339844 543.878906 197.492188 C 543.203125 196.644531 542.492188 195.832031 541.738281 195.050781 L 407.949219 61.269531 C 407.175781 60.496094 406.363281 59.761719 405.515625 59.066406 C 404.667969 58.371094 403.792969 57.71875 402.878906 57.109375 C 401.96875 56.503906 401.03125 55.941406 400.066406 55.425781 C 399.097656 54.90625 398.109375 54.441406 397.097656 54.019531 C 396.085938 53.601562 395.058594 53.234375 394.007812 52.917969 C 392.960938 52.597656 391.898438 52.332031 390.824219 52.117188 C 389.75 51.90625 388.667969 51.746094 387.578125 51.636719 C 386.488281 51.53125 385.394531 51.476562 384.300781 51.476562 C 383.207031 51.476562 382.113281 51.53125 381.023438 51.636719 C 379.933594 51.746094 378.851562 51.90625 377.777344 52.117188 C 376.703125 52.332031 375.640625 52.597656 374.59375 52.917969 C 373.546875 53.234375 372.515625 53.601562 371.503906 54.019531 C 370.492188 54.441406 369.503906 54.90625 368.535156 55.425781 C 367.570312 55.941406 366.632812 56.503906 365.722656 57.109375 C 364.8125 57.71875 363.933594 58.371094 363.085938 59.066406 C 362.238281 59.761719 361.429688 60.496094 360.652344 61.269531 L 226.863281 195.050781 C 226.066406 195.820312 225.308594 196.628906 224.59375 197.472656 C 223.878906 198.316406 223.203125 199.195312 222.574219 200.105469 C 221.945312 201.019531 221.363281 201.957031 220.828125 202.925781 C 220.292969 203.898438 219.804688 204.890625 219.367188 205.90625 C 218.929688 206.925781 218.542969 207.960938 218.210938 209.019531 C 217.875 210.074219 217.59375 211.144531 217.367188 212.226562 C 217.140625 213.3125 216.964844 214.402344 216.847656 215.503906 C 216.726562 216.605469 216.664062 217.710938 216.652344 218.816406 C 216.644531 219.925781 216.6875 221.03125 216.789062 222.132812 C 216.890625 223.238281 217.042969 224.332031 217.253906 225.421875 C 217.460938 226.507812 217.722656 227.582031 218.039062 228.644531 C 218.355469 229.707031 218.722656 230.75 219.140625 231.773438 C 219.5625 232.800781 220.03125 233.800781 220.550781 234.777344 C 221.070312 235.757812 221.636719 236.707031 222.25 237.628906 C 222.863281 238.550781 223.519531 239.441406 224.222656 240.300781 C 224.921875 241.15625 225.664062 241.976562 226.449219 242.757812 C 227.230469 243.542969 228.050781 244.285156 228.910156 244.984375 C 229.765625 245.6875 230.65625 246.34375 231.578125 246.957031 C 232.5 247.570312 233.449219 248.136719 234.429688 248.65625 C 235.40625 249.175781 236.410156 249.644531 237.433594 250.0625 C 238.457031 250.484375 239.503906 250.851562 240.5625 251.167969 C 241.625 251.484375 242.699219 251.746094 243.789062 251.953125 C 244.875 252.164062 245.972656 252.316406 247.074219 252.417969 C 248.175781 252.519531 249.28125 252.5625 250.390625 252.554688 C 251.496094 252.542969 252.601562 252.480469 253.703125 252.359375 C 254.804688 252.242188 255.898438 252.066406 256.980469 251.839844 C 258.066406 251.613281 259.132812 251.332031 260.191406 250.996094 C 261.246094 250.664062 262.285156 250.277344 263.300781 249.839844 C 264.320312 249.402344 265.3125 248.914062 266.28125 248.378906 C 267.25 247.84375 268.191406 247.261719 269.101562 246.632812 C 270.015625 246.003906 270.890625 245.328125 271.738281 244.613281 C 272.582031 243.898438 273.390625 243.140625 274.15625 242.34375 L 350.851562 165.652344 L 350.851562 553.15625 C 350.851562 554.25 350.90625 555.34375 351.015625 556.433594 C 351.121094 557.523438 351.28125 558.605469 351.496094 559.679688 C 351.710938 560.753906 351.976562 561.816406 352.292969 562.863281 C 352.613281 563.910156 352.980469 564.941406 353.398438 565.953125 C 353.820312 566.964844 354.285156 567.953125 354.804688 568.921875 C 355.320312 569.886719 355.882812 570.824219 356.492188 571.734375 C 357.097656 572.644531 357.75 573.523438 358.445312 574.371094 C 359.140625 575.21875 359.875 576.03125 360.648438 576.804688 C 361.425781 577.578125 362.234375 578.3125 363.082031 579.007812 C 363.929688 579.703125 364.808594 580.355469 365.71875 580.964844 C 366.628906 581.570312 367.566406 582.132812 368.535156 582.652344 C 369.5 583.167969 370.488281 583.636719 371.5 584.054688 C 372.511719 584.472656 373.542969 584.84375 374.589844 585.160156 C 375.640625 585.476562 376.703125 585.742188 377.777344 585.957031 C 378.851562 586.171875 379.933594 586.332031 381.023438 586.4375 C 382.113281 586.546875 383.207031 586.601562 384.300781 586.601562 Z M 384.300781 586.601562 "/>
</g>
</svg>
