<?xml version="1.0" encoding="UTF-8"?><svg xmlns="http://www.w3.org/2000/svg" xmlns:xlink="http://www.w3.org/1999/xlink" contentScriptType="text/ecmascript" width="768pt" zoomAndPan="magnify" contentStyleType="text/css" viewBox="0 0 768 767.999994" height="767.999994pt" preserveAspectRatio="xMidYMid meet" version="1.2"><defs><clipPath xml:id="clip1" id="clip1"><path d="M 304 216 L 724 216 L 724 696.535156 L 304 696.535156 Z M 304 216 "/></clipPath></defs><g xml:id="surface1" id="surface1"><path style=" stroke:none;fill-rule:nonzero;fill:rgb(0%,0%,0%);fill-opacity:1;" d="M 298.457031 72.066406 C 157.527344 72.066406 43.289062 180.082031 43.289062 313.359375 C 43.289062 362.539062 58.964844 408.28125 85.707031 446.449219 L 45.449219 543.769531 C 39.46875 558.273438 46.332031 574.855469 60.816406 580.859375 C 68.046875 583.855469 75.796875 583.667969 82.5 580.859375 L 195.488281 534.019531 C 227.003906 547.175781 261.773438 554.644531 298.457031 554.644531 C 439.414062 554.644531 553.628906 446.585938 553.628906 313.359375 C 553.628906 180.074219 439.414062 72.066406 298.457031 72.066406 Z M 298.457031 72.066406 "/><g clip-rule="nonzero" clip-path="url(#clip1)"><path style=" stroke:none;fill-rule:nonzero;fill:rgb(0%,0%,0%);fill-opacity:1;" d="M 681.324219 559.984375 C 708.066406 521.816406 723.742188 476.101562 723.742188 426.90625 C 723.742188 336.421875 671 257.800781 593.113281 216.550781 C 604.074219 246.933594 610.335938 279.421875 610.335938 313.351562 C 610.335938 475.648438 473.800781 607.835938 304.796875 611.105469 C 349.101562 646.464844 405.996094 668.171875 468.570312 668.171875 C 505.257812 668.171875 540.027344 660.722656 571.566406 647.546875 L 684.53125 694.402344 C 691.234375 697.195312 698.980469 697.398438 706.238281 694.402344 C 720.6875 688.382812 727.5625 671.816406 721.582031 657.316406 Z M 681.324219 559.984375 "/></g></g></svg>