<?xml version="1.0" encoding="UTF-8"?><svg xmlns="http://www.w3.org/2000/svg" xmlns:xlink="http://www.w3.org/1999/xlink" width="150pt" zoomAndPan="magnify" viewBox="0 0 150 149.999998" height="149.999998pt" preserveAspectRatio="xMidYMid meet" version="1.2"><defs><clipPath xml:id="clip1" id="clip1"><path d="M 15.703125 10.035156 L 134.203125 10.035156 L 134.203125 139.785156 L 15.703125 139.785156 Z M 15.703125 10.035156 "/></clipPath></defs><g xml:id="surface1" id="surface1"><g clip-rule="nonzero" clip-path="url(#clip1)"><path style=" stroke:none;fill-rule:nonzero;fill:rgb(92.158508%,19.60907%,13.729858%);fill-opacity:1;" d="M 128.5625 32.617188 L 103.167969 32.617188 L 103.167969 28.640625 C 103.167969 28.03125 103.136719 27.425781 103.078125 26.820312 C 103.015625 26.214844 102.925781 25.613281 102.808594 25.019531 C 102.6875 24.421875 102.539062 23.832031 102.363281 23.25 C 102.183594 22.667969 101.980469 22.097656 101.746094 21.535156 C 101.511719 20.972656 101.253906 20.421875 100.964844 19.886719 C 100.675781 19.351562 100.363281 18.828125 100.027344 18.324219 C 99.6875 17.820312 99.324219 17.332031 98.941406 16.859375 C 98.554688 16.390625 98.144531 15.941406 97.714844 15.511719 C 97.285156 15.078125 96.832031 14.671875 96.363281 14.285156 C 95.894531 13.898438 95.40625 13.539062 94.898438 13.199219 C 94.390625 12.863281 93.871094 12.550781 93.335938 12.261719 C 92.796875 11.976562 92.25 11.714844 91.6875 11.480469 C 91.125 11.25 90.550781 11.042969 89.96875 10.867188 C 89.386719 10.6875 88.796875 10.539062 88.199219 10.421875 C 87.605469 10.300781 87.003906 10.210938 86.398438 10.152344 C 85.792969 10.089844 85.183594 10.0625 84.574219 10.058594 L 65.332031 10.058594 C 64.722656 10.0625 64.117188 10.089844 63.511719 10.152344 C 62.90625 10.210938 62.304688 10.300781 61.707031 10.421875 C 61.109375 10.539062 60.519531 10.6875 59.9375 10.867188 C 59.355469 11.042969 58.785156 11.25 58.222656 11.480469 C 57.660156 11.714844 57.109375 11.976562 56.574219 12.261719 C 56.039062 12.550781 55.515625 12.863281 55.011719 13.199219 C 54.503906 13.539062 54.015625 13.898438 53.546875 14.285156 C 53.074219 14.671875 52.625 15.078125 52.195312 15.511719 C 51.761719 15.941406 51.355469 16.390625 50.96875 16.859375 C 50.582031 17.332031 50.21875 17.820312 49.882812 18.324219 C 49.542969 18.828125 49.230469 19.351562 48.945312 19.886719 C 48.65625 20.421875 48.394531 20.972656 48.164062 21.535156 C 47.929688 22.097656 47.722656 22.667969 47.546875 23.25 C 47.371094 23.832031 47.222656 24.421875 47.101562 25.019531 C 46.984375 25.613281 46.890625 26.214844 46.832031 26.820312 C 46.773438 27.425781 46.742188 28.03125 46.738281 28.640625 L 46.738281 32.617188 L 21.347656 32.617188 C 20.976562 32.617188 20.609375 32.652344 20.246094 32.722656 C 19.882812 32.796875 19.53125 32.902344 19.1875 33.046875 C 18.84375 33.1875 18.519531 33.359375 18.210938 33.566406 C 17.902344 33.773438 17.617188 34.007812 17.355469 34.269531 C 17.09375 34.53125 16.859375 34.816406 16.65625 35.121094 C 16.449219 35.429688 16.277344 35.753906 16.132812 36.097656 C 15.992188 36.4375 15.886719 36.792969 15.8125 37.15625 C 15.742188 37.519531 15.703125 37.886719 15.703125 38.253906 C 15.703125 38.625 15.742188 38.992188 15.8125 39.355469 C 15.886719 39.71875 15.992188 40.070312 16.132812 40.414062 C 16.277344 40.753906 16.449219 41.082031 16.65625 41.386719 C 16.859375 41.695312 17.09375 41.980469 17.355469 42.242188 C 17.617188 42.503906 17.902344 42.738281 18.210938 42.945312 C 18.519531 43.148438 18.84375 43.324219 19.1875 43.464844 C 19.53125 43.605469 19.882812 43.714844 20.246094 43.785156 C 20.609375 43.859375 20.976562 43.894531 21.347656 43.894531 L 29.8125 43.894531 L 29.8125 121.09375 C 29.8125 121.707031 29.84375 122.316406 29.902344 122.925781 C 29.964844 123.53125 30.054688 124.136719 30.175781 124.738281 C 30.296875 125.335938 30.445312 125.929688 30.625 126.515625 C 30.800781 127.097656 31.007812 127.675781 31.242188 128.238281 C 31.476562 128.804688 31.742188 129.355469 32.03125 129.894531 C 32.320312 130.433594 32.632812 130.957031 32.972656 131.464844 C 33.3125 131.972656 33.679688 132.464844 34.066406 132.9375 C 34.457031 133.410156 34.867188 133.863281 35.300781 134.292969 C 35.734375 134.726562 36.1875 135.136719 36.660156 135.523438 C 37.132812 135.910156 37.625 136.277344 38.132812 136.613281 C 38.644531 136.953125 39.167969 137.269531 39.707031 137.554688 C 40.246094 137.84375 40.800781 138.105469 41.367188 138.339844 C 41.929688 138.574219 42.507812 138.777344 43.09375 138.957031 C 43.679688 139.132812 44.269531 139.28125 44.871094 139.402344 C 45.472656 139.519531 46.078125 139.609375 46.6875 139.667969 C 47.292969 139.730469 47.90625 139.757812 48.515625 139.757812 L 101.417969 139.757812 C 102.03125 139.757812 102.640625 139.726562 103.25 139.667969 C 103.859375 139.605469 104.460938 139.515625 105.0625 139.394531 C 105.660156 139.277344 106.253906 139.128906 106.839844 138.949219 C 107.421875 138.773438 107.996094 138.566406 108.5625 138.332031 C 109.128906 138.097656 109.679688 137.835938 110.21875 137.546875 C 110.757812 137.257812 111.28125 136.945312 111.789062 136.605469 C 112.296875 136.265625 112.789062 135.902344 113.261719 135.515625 C 113.734375 135.125 114.1875 134.714844 114.617188 134.285156 C 115.050781 133.851562 115.460938 133.398438 115.847656 132.925781 C 116.238281 132.457031 116.601562 131.964844 116.941406 131.457031 C 117.28125 130.949219 117.59375 130.425781 117.882812 129.886719 C 118.171875 129.347656 118.433594 128.796875 118.667969 128.234375 C 118.902344 127.667969 119.109375 127.09375 119.285156 126.507812 C 119.464844 125.925781 119.613281 125.332031 119.734375 124.734375 C 119.855469 124.132812 119.945312 123.53125 120.003906 122.921875 C 120.066406 122.316406 120.097656 121.707031 120.097656 121.09375 L 120.097656 43.894531 L 128.5625 43.894531 C 128.933594 43.894531 129.300781 43.859375 129.664062 43.785156 C 130.027344 43.714844 130.378906 43.605469 130.722656 43.464844 C 131.0625 43.324219 131.386719 43.148438 131.695312 42.945312 C 132.003906 42.738281 132.289062 42.503906 132.550781 42.242188 C 132.8125 41.980469 133.046875 41.695312 133.253906 41.386719 C 133.460938 41.082031 133.632812 40.753906 133.773438 40.414062 C 133.917969 40.070312 134.023438 39.71875 134.097656 39.355469 C 134.167969 38.992188 134.203125 38.625 134.203125 38.253906 C 134.203125 37.886719 134.167969 37.519531 134.097656 37.15625 C 134.023438 36.792969 133.917969 36.4375 133.773438 36.097656 C 133.632812 35.753906 133.460938 35.429688 133.253906 35.121094 C 133.046875 34.816406 132.8125 34.53125 132.550781 34.269531 C 132.289062 34.007812 132.003906 33.773438 131.695312 33.566406 C 131.386719 33.359375 131.0625 33.1875 130.722656 33.046875 C 130.378906 32.902344 130.027344 32.796875 129.664062 32.722656 C 129.300781 32.652344 128.933594 32.617188 128.5625 32.617188 Z M 58.027344 28.640625 C 58.027344 28.160156 58.074219 27.6875 58.167969 27.214844 C 58.257812 26.746094 58.398438 26.289062 58.582031 25.847656 C 58.765625 25.402344 58.992188 24.980469 59.257812 24.582031 C 59.523438 24.183594 59.828125 23.816406 60.167969 23.476562 C 60.503906 23.136719 60.875 22.835938 61.273438 22.570312 C 61.671875 22.300781 62.09375 22.078125 62.535156 21.894531 C 62.980469 21.710938 63.4375 21.570312 63.90625 21.476562 C 64.378906 21.382812 64.851562 21.339844 65.332031 21.339844 L 84.574219 21.339844 C 85.054688 21.339844 85.53125 21.382812 86 21.476562 C 86.472656 21.570312 86.929688 21.710938 87.371094 21.894531 C 87.816406 22.078125 88.234375 22.300781 88.636719 22.570312 C 89.035156 22.835938 89.402344 23.136719 89.742188 23.476562 C 90.082031 23.816406 90.382812 24.183594 90.652344 24.582031 C 90.917969 24.980469 91.144531 25.402344 91.328125 25.847656 C 91.511719 26.289062 91.648438 26.746094 91.742188 27.214844 C 91.835938 27.6875 91.882812 28.160156 91.882812 28.640625 L 91.882812 32.617188 L 58.027344 32.617188 Z M 108.8125 121.09375 C 108.808594 121.578125 108.761719 122.058594 108.664062 122.535156 C 108.570312 123.007812 108.425781 123.46875 108.242188 123.917969 C 108.054688 124.363281 107.828125 124.789062 107.558594 125.191406 C 107.289062 125.59375 106.980469 125.964844 106.636719 126.308594 C 106.296875 126.652344 105.921875 126.957031 105.519531 127.226562 C 105.117188 127.496094 104.691406 127.726562 104.242188 127.910156 C 103.796875 128.097656 103.335938 128.238281 102.859375 128.335938 C 102.382812 128.429688 101.902344 128.480469 101.417969 128.480469 L 48.515625 128.480469 C 48.03125 128.480469 47.550781 128.433594 47.074219 128.339844 C 46.597656 128.246094 46.132812 128.105469 45.683594 127.917969 C 45.234375 127.734375 44.808594 127.507812 44.402344 127.238281 C 44 126.96875 43.625 126.664062 43.28125 126.320312 C 42.9375 125.976562 42.628906 125.605469 42.359375 125.199219 C 42.085938 124.796875 41.855469 124.371094 41.671875 123.921875 C 41.484375 123.476562 41.339844 123.011719 41.246094 122.535156 C 41.148438 122.0625 41.097656 121.578125 41.097656 121.09375 L 41.097656 43.894531 L 108.8125 43.894531 Z M 108.8125 121.09375 "/></g><path style=" stroke:none;fill-rule:nonzero;fill:rgb(92.158508%,19.60907%,13.729858%);fill-opacity:1;" d="M 60.847656 56.554688 C 60.476562 56.554688 60.109375 56.589844 59.746094 56.664062 C 59.382812 56.734375 59.03125 56.84375 58.6875 56.984375 C 58.34375 57.125 58.019531 57.300781 57.710938 57.503906 C 57.402344 57.710938 57.117188 57.945312 56.855469 58.207031 C 56.59375 58.46875 56.359375 58.753906 56.15625 59.058594 C 55.949219 59.367188 55.777344 59.691406 55.632812 60.035156 C 55.492188 60.378906 55.386719 60.730469 55.3125 61.09375 C 55.242188 61.457031 55.203125 61.824219 55.203125 62.195312 L 55.203125 112.945312 C 55.203125 113.316406 55.242188 113.683594 55.3125 114.046875 C 55.386719 114.410156 55.492188 114.761719 55.632812 115.101562 C 55.777344 115.445312 55.949219 115.769531 56.15625 116.078125 C 56.359375 116.386719 56.59375 116.671875 56.855469 116.933594 C 57.117188 117.195312 57.402344 117.429688 57.710938 117.632812 C 58.019531 117.839844 58.34375 118.011719 58.6875 118.15625 C 59.03125 118.296875 59.382812 118.402344 59.746094 118.476562 C 60.109375 118.546875 60.476562 118.585938 60.847656 118.585938 C 61.21875 118.585938 61.585938 118.546875 61.949219 118.476562 C 62.3125 118.402344 62.664062 118.296875 63.007812 118.15625 C 63.347656 118.011719 63.675781 117.839844 63.980469 117.632812 C 64.289062 117.429688 64.574219 117.195312 64.835938 116.933594 C 65.097656 116.671875 65.332031 116.386719 65.539062 116.078125 C 65.746094 115.769531 65.917969 115.445312 66.058594 115.101562 C 66.203125 114.761719 66.308594 114.410156 66.382812 114.046875 C 66.453125 113.683594 66.488281 113.316406 66.488281 112.945312 L 66.488281 62.195312 C 66.488281 61.824219 66.453125 61.457031 66.382812 61.09375 C 66.308594 60.730469 66.203125 60.378906 66.058594 60.035156 C 65.917969 59.691406 65.746094 59.367188 65.539062 59.058594 C 65.332031 58.753906 65.097656 58.46875 64.835938 58.207031 C 64.574219 57.945312 64.289062 57.710938 63.980469 57.503906 C 63.675781 57.300781 63.347656 57.125 63.007812 56.984375 C 62.664062 56.839844 62.3125 56.734375 61.949219 56.664062 C 61.585938 56.589844 61.21875 56.554688 60.847656 56.554688 Z M 60.847656 56.554688 "/><path style=" stroke:none;fill-rule:nonzero;fill:rgb(92.158508%,19.60907%,13.729858%);fill-opacity:1;" d="M 89.0625 56.554688 C 88.691406 56.554688 88.324219 56.589844 87.960938 56.664062 C 87.597656 56.734375 87.246094 56.84375 86.902344 56.984375 C 86.558594 57.125 86.234375 57.300781 85.925781 57.503906 C 85.617188 57.710938 85.332031 57.945312 85.070312 58.207031 C 84.808594 58.46875 84.574219 58.753906 84.371094 59.058594 C 84.164062 59.367188 83.988281 59.691406 83.847656 60.035156 C 83.707031 60.378906 83.597656 60.730469 83.527344 61.09375 C 83.453125 61.457031 83.417969 61.824219 83.417969 62.195312 L 83.417969 112.945312 C 83.417969 113.316406 83.453125 113.683594 83.527344 114.046875 C 83.597656 114.410156 83.707031 114.761719 83.847656 115.101562 C 83.988281 115.445312 84.164062 115.769531 84.371094 116.078125 C 84.574219 116.386719 84.808594 116.671875 85.070312 116.933594 C 85.332031 117.195312 85.617188 117.429688 85.925781 117.632812 C 86.234375 117.839844 86.558594 118.011719 86.902344 118.15625 C 87.246094 118.296875 87.597656 118.402344 87.960938 118.476562 C 88.324219 118.546875 88.691406 118.585938 89.0625 118.585938 C 89.433594 118.585938 89.800781 118.546875 90.164062 118.476562 C 90.527344 118.402344 90.878906 118.296875 91.222656 118.15625 C 91.5625 118.011719 91.886719 117.839844 92.195312 117.632812 C 92.503906 117.429688 92.789062 117.195312 93.050781 116.933594 C 93.3125 116.671875 93.546875 116.386719 93.753906 116.078125 C 93.960938 115.769531 94.132812 115.445312 94.273438 115.101562 C 94.417969 114.761719 94.523438 114.410156 94.597656 114.046875 C 94.667969 113.683594 94.703125 113.316406 94.703125 112.945312 L 94.703125 62.195312 C 94.703125 61.824219 94.667969 61.457031 94.597656 61.09375 C 94.523438 60.730469 94.417969 60.378906 94.273438 60.035156 C 94.132812 59.691406 93.960938 59.367188 93.753906 59.058594 C 93.546875 58.753906 93.3125 58.46875 93.050781 58.207031 C 92.789062 57.945312 92.503906 57.710938 92.195312 57.503906 C 91.886719 57.300781 91.5625 57.125 91.222656 56.984375 C 90.878906 56.839844 90.527344 56.734375 90.164062 56.664062 C 89.800781 56.589844 89.433594 56.554688 89.0625 56.554688 Z M 89.0625 56.554688 "/></g></svg>