<?xml version="1.0" encoding="UTF-8"?><svg xmlns="http://www.w3.org/2000/svg" xmlns:xlink="http://www.w3.org/1999/xlink" width="150pt" zoomAndPan="magnify" viewBox="0 0 150 149.999998" height="149.999998pt" preserveAspectRatio="xMidYMid meet" version="1.2"><defs><clipPath xml:id="clip1" id="clip1"><path d="M 15 8.632812 L 135 8.632812 L 135 141.359375 L 15 141.359375 Z M 15 8.632812 "/></clipPath><clipPath xml:id="clip2" id="clip2"><path d="M 18 11.675781 L 132 11.675781 L 132 138.320312 L 18 138.320312 Z M 18 11.675781 "/></clipPath></defs><g xml:id="surface1" id="surface1"><g clip-rule="nonzero" clip-path="url(#clip1)"><path style=" stroke:none;fill-rule:nonzero;fill:rgb(14.118958%,14.118958%,14.118958%);fill-opacity:1;" d="M 133.003906 87.945312 C 130.839844 95.386719 124.0625 99.832031 114.878906 99.835938 L 82.011719 99.839844 C 88.664062 120.332031 84.585938 130.726562 81.449219 135.179688 C 78.671875 139.121094 74.617188 141.382812 70.332031 141.382812 C 65.082031 141.382812 60.570312 137.992188 58.839844 132.746094 C 57.945312 130.046875 57.554688 128.550781 57.285156 126.765625 C 51.433594 110.292969 46.316406 104.101562 42.574219 99.574219 C 40.582031 97.167969 38.925781 95.152344 37.738281 92.433594 C 36.53125 93.394531 34.957031 94 33.214844 94 L 22.085938 94 C 18.332031 94 15.28125 91.285156 15.28125 87.953125 L 15.28125 25.746094 C 15.28125 22.410156 18.332031 19.699219 22.085938 19.699219 L 33.214844 19.699219 C 35.578125 19.699219 37.65625 20.777344 38.878906 22.402344 C 44.96875 12.554688 58.648438 8.632812 68.136719 8.632812 L 98.640625 8.632812 C 98.734375 8.632812 98.828125 8.640625 98.917969 8.652344 C 107.9375 9.824219 113.132812 16.441406 113.089844 26.503906 C 116.8125 27.210938 121.339844 29.554688 124.25 33.773438 C 126.386719 36.871094 128.359375 42.007812 126.234375 49.339844 C 130.539062 51.765625 133.511719 56.457031 134.167969 62.039062 C 134.746094 66.953125 133.324219 71.570312 130.394531 74.6875 C 133.363281 77.933594 134.4375 83.011719 133.003906 87.945312 Z M 35.738281 25.746094 C 35.738281 24.914062 34.703125 23.984375 33.214844 23.984375 L 22.085938 23.984375 C 20.601562 23.984375 19.5625 24.914062 19.5625 25.746094 L 19.5625 87.949219 C 19.5625 88.785156 20.597656 89.714844 22.085938 89.714844 L 33.214844 89.714844 C 34.699219 89.714844 35.738281 88.785156 35.738281 87.949219 Z M 129.914062 62.539062 C 129.472656 58.804688 127.386719 54.199219 122.847656 52.46875 C 121.75 52.050781 121.195312 50.832031 121.601562 49.730469 C 123.519531 44.496094 123.21875 39.820312 120.726562 36.210938 C 118.191406 32.542969 113.839844 30.589844 110.851562 30.554688 C 110.265625 30.550781 109.699219 30.300781 109.300781 29.867188 C 108.898438 29.433594 108.699219 28.851562 108.738281 28.261719 C 109.105469 23.101562 108.253906 14.265625 98.5 12.914062 L 68.136719 12.914062 C 57.265625 12.914062 40.019531 18.574219 40.019531 33.753906 L 40.019531 79.941406 C 40.019531 89.761719 42.101562 92.277344 45.875 96.84375 C 49.835938 101.636719 55.261719 108.199219 61.394531 125.53125 C 61.441406 125.664062 61.472656 125.800781 61.496094 125.9375 C 61.695312 127.34375 61.972656 128.570312 62.902344 131.402344 C 64.066406 134.917969 66.910156 137.101562 70.332031 137.101562 C 73.207031 137.101562 75.984375 135.5 77.949219 132.714844 C 82.71875 125.945312 82.375 113.449219 77.007812 98.421875 C 76.773438 97.765625 76.871094 97.039062 77.273438 96.46875 C 77.675781 95.898438 78.324219 95.5625 79.023438 95.5625 L 114.878906 95.550781 C 122.050781 95.550781 127.289062 92.257812 128.890625 86.75 C 130.082031 82.652344 128.851562 78.34375 125.960938 76.503906 C 125.355469 76.117188 124.984375 75.453125 124.96875 74.730469 C 124.960938 74.011719 125.308594 73.335938 125.90625 72.929688 C 128.890625 70.894531 130.425781 66.914062 129.914062 62.539062 Z M 129.914062 62.539062 "/></g><g clip-rule="nonzero" clip-path="url(#clip2)"><path style=" stroke:none;fill-rule:nonzero;fill:rgb(14.118958%,14.118958%,14.118958%);fill-opacity:1;" d="M 130.613281 87.296875 C 128.542969 94.402344 122.0625 98.644531 113.277344 98.648438 L 81.851562 98.65625 C 88.210938 118.21875 84.3125 128.144531 81.3125 132.394531 C 78.65625 136.160156 74.78125 138.320312 70.679688 138.320312 C 65.660156 138.320312 61.347656 135.082031 59.691406 130.074219 C 58.835938 127.496094 58.460938 126.066406 58.203125 124.359375 C 52.609375 108.632812 47.714844 102.722656 44.136719 98.398438 C 42.234375 96.101562 40.648438 94.175781 39.511719 91.582031 C 38.359375 92.5 36.855469 93.074219 35.1875 93.074219 L 24.546875 93.074219 C 20.957031 93.074219 18.035156 90.484375 18.035156 87.300781 L 18.035156 27.90625 C 18.035156 24.726562 20.957031 22.136719 24.546875 22.136719 L 35.1875 22.136719 C 37.445312 22.136719 39.433594 23.164062 40.601562 24.714844 C 46.425781 15.316406 59.507812 11.570312 68.582031 11.570312 L 97.753906 11.570312 C 97.839844 11.570312 97.929688 11.574219 98.019531 11.585938 C 106.644531 12.707031 111.613281 19.023438 111.570312 28.632812 C 115.128906 29.304688 119.460938 31.546875 122.242188 35.574219 C 124.285156 38.53125 126.171875 43.4375 124.140625 50.4375 C 128.253906 52.753906 131.097656 57.230469 131.726562 62.558594 C 132.277344 67.25 130.917969 71.664062 128.117188 74.636719 C 130.957031 77.738281 131.984375 82.585938 130.613281 87.296875 Z M 37.597656 27.90625 C 37.597656 27.113281 36.609375 26.226562 35.1875 26.226562 L 24.546875 26.226562 C 23.125 26.226562 22.132812 27.113281 22.132812 27.90625 L 22.132812 87.300781 C 22.132812 88.097656 23.121094 88.984375 24.546875 88.984375 L 35.1875 88.984375 C 36.609375 88.984375 37.597656 88.097656 37.597656 87.300781 Z M 127.65625 63.039062 C 127.238281 59.472656 125.242188 55.074219 120.902344 53.421875 C 119.851562 53.023438 119.320312 51.859375 119.707031 50.808594 C 121.542969 45.8125 121.257812 41.347656 118.871094 37.898438 C 116.449219 34.398438 112.289062 32.53125 109.429688 32.5 C 108.867188 32.496094 108.328125 32.257812 107.945312 31.84375 C 107.5625 31.429688 107.371094 30.875 107.410156 30.3125 C 107.757812 25.382812 106.945312 16.945312 97.617188 15.65625 L 68.582031 15.65625 C 58.1875 15.65625 41.695312 21.058594 41.695312 35.554688 L 41.695312 79.65625 C 41.695312 89.03125 43.683594 91.433594 47.292969 95.792969 C 51.082031 100.367188 56.269531 106.632812 62.132812 123.183594 C 62.179688 123.308594 62.210938 123.441406 62.230469 123.574219 C 62.421875 124.914062 62.6875 126.085938 63.578125 128.789062 C 64.6875 132.144531 67.410156 134.230469 70.679688 134.230469 C 73.429688 134.230469 76.085938 132.703125 77.964844 130.042969 C 82.527344 123.578125 82.195312 111.648438 77.0625 97.300781 C 76.839844 96.675781 76.933594 95.980469 77.316406 95.433594 C 77.703125 94.890625 78.324219 94.566406 78.992188 94.566406 L 113.277344 94.558594 C 120.140625 94.558594 125.148438 91.414062 126.679688 86.15625 C 127.820312 82.242188 126.640625 78.128906 123.878906 76.375 C 123.300781 76.003906 122.941406 75.367188 122.929688 74.679688 C 122.921875 73.992188 123.253906 73.347656 123.824219 72.960938 C 126.679688 71.015625 128.148438 67.214844 127.65625 63.039062 Z M 127.65625 63.039062 "/></g><path style=" stroke:none;fill-rule:nonzero;fill:rgb(14.118958%,14.118958%,14.118958%);fill-opacity:1;" d="M 17.769531 24.082031 L 110.769531 24.082031 L 110.769531 91.582031 L 17.769531 91.582031 Z M 17.769531 24.082031 "/><path style=" stroke:none;fill-rule:nonzero;fill:rgb(14.118958%,14.118958%,14.118958%);fill-opacity:1;" d="M 46.230469 15 L 106.96875 15 L 106.96875 29.25 L 46.230469 29.25 Z M 46.230469 15 "/><path style=" stroke:none;fill-rule:nonzero;fill:rgb(14.118958%,14.118958%,14.118958%);fill-opacity:1;" d="M 41.042969 32.019531 L 121.292969 32.019531 L 121.292969 95.015625 L 41.042969 95.015625 Z M 41.042969 32.019531 "/><path style=" stroke:none;fill-rule:nonzero;fill:rgb(14.118958%,14.118958%,14.118958%);fill-opacity:1;" d="M 100.523438 53.613281 L 128.273438 53.613281 L 128.273438 92.609375 L 100.523438 92.609375 Z M 100.523438 53.613281 "/><path style=" stroke:none;fill-rule:nonzero;fill:rgb(14.118958%,14.118958%,14.118958%);fill-opacity:1;" d="M 44.910156 94.25 L 63.261719 85.6875 L 83.867188 129.867188 L 65.515625 138.425781 Z M 44.910156 94.25 "/><path style=" stroke:none;fill-rule:nonzero;fill:rgb(14.118958%,14.118958%,14.118958%);fill-opacity:1;" d="M 57.898438 94.960938 L 77.832031 91.40625 L 83.886719 125.371094 L 63.953125 128.921875 Z M 57.898438 94.960938 "/></g></svg>