<?xml version="1.0" encoding="UTF-8"?><svg xmlns="http://www.w3.org/2000/svg" xmlns:xlink="http://www.w3.org/1999/xlink" width="150pt" zoomAndPan="magnify" viewBox="0 0 150 149.999998" height="149.999998pt" preserveAspectRatio="xMidYMid meet" version="1.2"><defs><clipPath xml:id="clip1" id="clip1"><path d="M 15 8.632812 L 135 8.632812 L 135 141.359375 L 15 141.359375 Z M 15 8.632812 "/></clipPath></defs><g xml:id="surface1" id="surface1"><g clip-rule="nonzero" clip-path="url(#clip1)"><path style=" stroke:none;fill-rule:nonzero;fill:rgb(100%,100%,100%);fill-opacity:1;" d="M 133.003906 87.945312 C 130.839844 95.386719 124.0625 99.832031 114.878906 99.835938 L 82.011719 99.839844 C 88.664062 120.332031 84.585938 130.726562 81.449219 135.179688 C 78.671875 139.121094 74.617188 141.382812 70.332031 141.382812 C 65.082031 141.382812 60.570312 137.992188 58.839844 132.746094 C 57.945312 130.046875 57.554688 128.550781 57.285156 126.765625 C 51.433594 110.292969 46.316406 104.101562 42.574219 99.574219 C 40.582031 97.167969 38.925781 95.152344 37.738281 92.433594 C 36.53125 93.394531 34.957031 94 33.214844 94 L 22.085938 94 C 18.332031 94 15.28125 91.285156 15.28125 87.953125 L 15.28125 25.746094 C 15.28125 22.410156 18.332031 19.699219 22.085938 19.699219 L 33.214844 19.699219 C 35.578125 19.699219 37.65625 20.777344 38.878906 22.402344 C 44.96875 12.554688 58.648438 8.632812 68.136719 8.632812 L 98.640625 8.632812 C 98.734375 8.632812 98.828125 8.640625 98.917969 8.652344 C 107.9375 9.824219 113.132812 16.441406 113.089844 26.503906 C 116.8125 27.210938 121.339844 29.554688 124.25 33.773438 C 126.386719 36.871094 128.359375 42.007812 126.234375 49.339844 C 130.539062 51.765625 133.511719 56.457031 134.167969 62.039062 C 134.746094 66.953125 133.324219 71.570312 130.394531 74.6875 C 133.363281 77.933594 134.4375 83.011719 133.003906 87.945312 Z M 35.738281 25.746094 C 35.738281 24.914062 34.703125 23.984375 33.214844 23.984375 L 22.085938 23.984375 C 20.601562 23.984375 19.5625 24.914062 19.5625 25.746094 L 19.5625 87.949219 C 19.5625 88.785156 20.597656 89.714844 22.085938 89.714844 L 33.214844 89.714844 C 34.699219 89.714844 35.738281 88.785156 35.738281 87.949219 Z M 129.914062 62.539062 C 129.472656 58.804688 127.386719 54.199219 122.847656 52.46875 C 121.75 52.050781 121.195312 50.832031 121.601562 49.730469 C 123.519531 44.496094 123.21875 39.820312 120.726562 36.210938 C 118.191406 32.542969 113.839844 30.589844 110.851562 30.554688 C 110.265625 30.550781 109.699219 30.300781 109.300781 29.867188 C 108.898438 29.433594 108.699219 28.851562 108.738281 28.261719 C 109.105469 23.101562 108.253906 14.265625 98.5 12.914062 L 68.136719 12.914062 C 57.265625 12.914062 40.019531 18.574219 40.019531 33.753906 L 40.019531 79.941406 C 40.019531 89.761719 42.101562 92.277344 45.875 96.84375 C 49.835938 101.636719 55.261719 108.199219 61.394531 125.53125 C 61.441406 125.664062 61.472656 125.800781 61.496094 125.9375 C 61.695312 127.34375 61.972656 128.570312 62.902344 131.402344 C 64.066406 134.917969 66.910156 137.101562 70.332031 137.101562 C 73.207031 137.101562 75.984375 135.5 77.949219 132.714844 C 82.71875 125.945312 82.375 113.449219 77.007812 98.421875 C 76.773438 97.765625 76.871094 97.039062 77.273438 96.46875 C 77.675781 95.898438 78.324219 95.5625 79.023438 95.5625 L 114.878906 95.550781 C 122.050781 95.550781 127.289062 92.257812 128.890625 86.75 C 130.082031 82.652344 128.851562 78.34375 125.960938 76.503906 C 125.355469 76.117188 124.984375 75.453125 124.96875 74.730469 C 124.960938 74.011719 125.308594 73.335938 125.90625 72.929688 C 128.890625 70.894531 130.425781 66.914062 129.914062 62.539062 Z M 129.914062 62.539062 "/></g></g></svg>