<!-- Generator: Adobe Illustrator 25.0.1, SVG Export Plug-In  -->
<svg version="1.1" xmlns="http://www.w3.org/2000/svg" xmlns:xlink="http://www.w3.org/1999/xlink" x="0px" y="0px"
	 width="224.36px" height="223.48px" viewBox="0 0 224.36 223.48"
	 style="overflow:visible;enable-background:new 0 0 224.36 223.48;" xml:space="preserve">
<style type="text/css">
	.st0{fill:#1778F1;}
</style>
<defs>
</defs>
<g>
	<path class="st0" d="M103.86,0c5.55,0,11.1,0,16.65,0c4.46,0.52,8.96,0.58,13.41,1.47c13.52,2.73,26.16,7.59,37.87,14.91
		c7.71,4.82,14.85,10.37,21.13,16.92c16.37,17.05,26.72,37.2,30.6,60.59c0.55,3.3,0.38,6.65,0.85,9.96c0,5.7,0,11.39,0,17.09
		c-0.53,3.66-0.45,7.37-1.1,11.03c-2.52,14.26-7.66,27.49-15.28,39.79c-4.91,7.92-10.63,15.2-17.37,21.59
		c-16.57,15.71-36.02,25.88-58.6,29.85c-0.95,0.17-2.04,0.68-2.72-0.59c-0.35-1.07-0.26-2.17-0.26-3.26
		c-0.01-23.59-0.01-47.18,0-70.77c0-4.45,0.2-4.64,4.73-4.64c6.28-0.01,12.56-0.04,18.84,0.02c1.88,0.02,2.77-0.66,3.06-2.54
		c1.37-8.8,2.74-17.61,4.16-26.4c0.33-2.05-0.83-2.15-2.28-2.15c-7.89-0.01-15.78,0-23.66,0c-4.76,0-4.84-0.09-4.85-4.94
		c0-5.48,0-10.96,0-16.43c0-1.1,0.02-2.19,0.19-3.28c1.49-9.61,7.63-14.95,17.61-15.24c3.94-0.11,7.89,0,11.83-0.04
		c2.55-0.02,2.78-0.24,2.79-2.74c0.02-6.94,0.03-13.88,0-20.81c-0.01-2.58-0.26-2.79-2.83-3.16c-8.03-1.17-16.09-1.99-24.21-1.7
		c-6.65,0.23-13.03,1.65-18.98,4.71c-11.08,5.69-16.8,15.19-19.12,27.06c-0.69,3.52-1.03,7.06-1,10.67
		c0.08,7.45,0.04,14.9,0.01,22.35c-0.01,3.1-0.45,3.54-3.57,3.56c-7.3,0.03-14.61,0-21.91,0.02c-2.83,0.01-2.98,0.15-2.98,2.96
		c-0.01,8.4-0.02,16.8,0,25.2c0.01,2.67,0.22,2.89,2.86,2.9c7.23,0.02,14.46-0.01,21.69,0.02c3.51,0.01,3.92,0.41,3.92,3.9
		c0.01,24.1,0.01,48.2,0,72.3c0,0.8,0.02,1.61-0.22,2.38c-0.57,1.28-1.64,0.95-2.64,0.77c-19.2-3.53-36.5-11.28-51.57-23.71
		c-21.77-17.95-35.06-40.9-39.98-68.69c-0.58-3.3-0.4-6.66-0.92-9.96c0-5.84,0-11.69,0-17.53c0.56-4.24,0.61-8.52,1.43-12.75
		c2.6-13.41,7.49-25.89,14.61-37.53c4.86-7.95,10.55-15.26,17.27-21.69C49.46,15.99,68.41,5.78,90.46,1.46
		C94.91,0.58,99.4,0.58,103.86,0z"/>
</g>
</svg>
