<!-- Generator: Adobe Illustrator 25.0.1, SVG Export Plug-In  -->
<svg version="1.1" xmlns="http://www.w3.org/2000/svg" xmlns:xlink="http://www.w3.org/1999/xlink" x="0px" y="0px"
	 width="225.01px" height="224.51px" viewBox="0 0 225.01 224.51"
	 style="overflow:visible;enable-background:new 0 0 225.01 224.51;" xml:space="preserve">
<style type="text/css">
	.st0{fill:#E94235;}
	.st1{fill:#34A753;}
	.st2{fill:#4384F4;}
	.st3{fill:#F9BB05;}
</style>
<defs>
</defs>
<g>
	<path class="st0" d="M12.67,61.71C43.75-2.17,133.96-20.5,188.38,25.93c2.93,2.5,3.31,3.86,0.27,6.69
		c-9.08,8.42-17.84,17.15-26.6,25.89c-2,1.99-3.21,2.54-5.75,0.42C124.4,32.28,71.4,42.66,52.26,86.19
		c-0.64,1.45-1.23,2.91-1.84,4.37c-1.61,0.64-2.67-0.41-3.77-1.21c-10.3-7.51-20.42-15.25-30.53-22.99
		C14.52,65.13,13.05,63.8,12.67,61.71z"/>
	<path class="st1" d="M50.42,133.81c8.68,21.9,23.81,37.35,47.34,43.7c20.11,5.42,39.14,1.98,56.94-8.43
		c5.35,1.25,8.63,5.54,12.78,8.5c6.64,4.73,13.1,9.72,19.48,14.8c1.68,1.34,3.79,2.38,3.79,4.95
		c-19.59,18.12-43.57,25.45-69.86,27.01c-44.75,2.65-88.84-22.59-108.47-62.05c1.11-3.27,4.28-4.54,6.71-6.49
		c8.35-6.7,17.05-12.99,25.54-19.53C46.29,135,47.82,133.07,50.42,133.81z"/>
	<path class="st2" d="M190.75,197.31c-10.69-8.24-21.38-16.47-32.05-24.73c-1.4-1.09-2.67-2.34-4-3.51
		c10.37-7.76,17.95-17.37,21.45-29.91c1.07-3.82,0.3-4.74-3.7-4.7c-17.37,0.17-34.73-0.06-52.1,0.17c-4.28,0.06-5.48-1.16-5.37-5.29
		c0.28-11.23,0.25-22.48,0.01-33.71c-0.08-3.67,1.09-4.66,4.78-4.65c32.92,0.12,65.83,0.09,98.75,0.04c2.65,0,4.65,0.13,5.06,3.43
		C228.53,133.58,221.27,168.97,190.75,197.31z"/>
	<path class="st3" d="M50.42,133.81c-12.67,9.49-25.33,18.97-38,28.46C-4.13,128.7-4.23,95.18,12.68,61.7
		c12.58,9.62,25.16,19.24,37.74,28.86C45.84,104.98,45.89,119.39,50.42,133.81z"/>
</g>
</svg>
