<?xml version="1.0" encoding="UTF-8"?><svg xmlns="http://www.w3.org/2000/svg" xmlns:xlink="http://www.w3.org/1999/xlink" contentScriptType="text/ecmascript" width="768pt" zoomAndPan="magnify" contentStyleType="text/css" viewBox="0 0 768 767.999994" height="767.999994pt" preserveAspectRatio="xMidYMid meet" version="1.2"><defs><clipPath xml:id="clip1" id="clip1"><path d="M 31.355469 61.816406 L 736.003906 61.816406 L 736.003906 705.933594 L 31.355469 705.933594 Z M 31.355469 61.816406 "/></clipPath></defs><g xml:id="surface1" id="surface1"><g clip-rule="nonzero" clip-path="url(#clip1)"><path style=" stroke:none;fill-rule:nonzero;fill:rgb(6.269836%,5.879211%,5.099487%);fill-opacity:1;" d="M 723.304688 382.53125 L 414.898438 74.644531 C 397.820312 57.558594 369.605469 57.558594 352.589844 74.644531 L 44.117188 382.53125 C 27.101562 399.554688 27.101562 427.78125 44.117188 444.808594 C 61.195312 461.894531 89.347656 461.894531 106.425781 444.808594 L 144.273438 407.003906 L 144.273438 653.296875 C 144.273438 682.214844 167.980469 705.933594 196.882812 705.933594 L 569.789062 705.933594 C 598.753906 705.933594 622.460938 682.214844 622.460938 653.296875 L 622.460938 407.753906 L 660.308594 445.558594 C 669.191406 454.445312 680.328125 458.203125 691.464844 458.203125 C 702.535156 458.203125 714.421875 453.695312 722.554688 445.558594 C 740.382812 428.472656 740.382812 400.304688 723.304688 382.53125 "/></g></g></svg>