<?xml version="1.0" encoding="UTF-8"?><svg xmlns="http://www.w3.org/2000/svg" xmlns:xlink="http://www.w3.org/1999/xlink" width="150pt" zoomAndPan="magnify" viewBox="0 0 150 149.999998" height="149.999998pt" preserveAspectRatio="xMidYMid meet" version="1.2"><defs><clipPath xml:id="clip1" id="clip1"><path d="M 7.996094 7.996094 L 142.246094 7.996094 L 142.246094 142.246094 L 7.996094 142.246094 Z M 7.996094 7.996094 "/></clipPath></defs><g xml:id="surface1" id="surface1"><g clip-rule="nonzero" clip-path="url(#clip1)"><path style=" stroke:none;fill-rule:nonzero;fill:rgb(14.118958%,14.118958%,14.118958%);fill-opacity:1;" d="M 75.121094 142.246094 C 38.109375 142.246094 7.996094 112.128906 7.996094 75.121094 C 7.996094 38.109375 38.109375 7.996094 75.121094 7.996094 C 112.128906 7.996094 142.246094 38.109375 142.246094 75.121094 C 142.246094 112.128906 112.128906 142.246094 75.121094 142.246094 Z M 75.121094 17.726562 C 43.464844 17.726562 17.71875 43.464844 17.71875 75.121094 C 17.71875 106.765625 43.464844 132.511719 75.121094 132.511719 C 106.765625 132.511719 132.519531 106.765625 132.519531 75.121094 C 132.519531 43.464844 106.765625 17.726562 75.121094 17.726562 Z M 75.121094 17.726562 "/></g><path style=" stroke:none;fill-rule:nonzero;fill:rgb(14.118958%,14.118958%,14.118958%);fill-opacity:1;" d="M 76.503906 109.953125 C 75.988281 109.757812 75.429688 109.4375 75.429688 108.085938 C 75.429688 107.527344 75.519531 106.882812 75.714844 106.09375 L 84.195312 64.992188 C 84.382812 64.027344 84.480469 63.015625 84.480469 62.007812 C 84.480469 59.355469 83.660156 57.332031 82.046875 55.992188 C 78.425781 53.019531 72.089844 53.601562 61.550781 57.164062 L 60.527344 57.507812 L 60.109375 62.8125 L 61.878906 62.8125 C 67.246094 62.8125 68.542969 63.230469 68.808594 63.359375 C 69.171875 63.53125 69.367188 63.738281 69.367188 64.34375 C 69.367188 64.675781 69.324219 65.054688 69.238281 65.476562 C 69.132812 66.03125 69.007812 66.679688 68.886719 67.375 L 61.117188 105.125 C 60.753906 107.023438 60.566406 108.65625 60.566406 109.957031 C 60.566406 112.964844 61.433594 115.289062 63.128906 116.859375 C 64.789062 118.390625 67.070312 119.171875 69.898438 119.171875 C 73.207031 119.171875 77.648438 118.25 83.472656 116.367188 L 84.511719 116.03125 L 84.933594 110.660156 L 83.175781 110.660156 C 79.195312 110.660156 77.355469 110.273438 76.503906 109.953125 Z M 76.503906 109.953125 "/><path style=" stroke:none;fill-rule:nonzero;fill:rgb(14.118958%,14.118958%,14.118958%);fill-opacity:1;" d="M 87.664062 33.371094 C 86.066406 31.847656 84.007812 31.070312 81.558594 31.070312 C 79.019531 31.070312 76.875 31.902344 75.183594 33.542969 C 73.480469 35.191406 72.609375 37.414062 72.609375 40.148438 C 72.609375 42.664062 73.4375 44.753906 75.0625 46.375 C 76.683594 48.003906 78.765625 48.832031 81.230469 48.832031 C 83.75 48.832031 85.875 47.953125 87.574219 46.242188 C 89.261719 44.53125 90.113281 42.308594 90.113281 39.632812 C 90.113281 37.019531 89.296875 34.910156 87.664062 33.371094 Z M 87.664062 33.371094 "/></g></svg>