<?xml version="1.0" encoding="UTF-8"?><svg xmlns="http://www.w3.org/2000/svg" xmlns:xlink="http://www.w3.org/1999/xlink" width="150pt" zoomAndPan="magnify" viewBox="0 0 150 149.999998" height="149.999998pt" preserveAspectRatio="xMidYMid meet" version="1.2"><defs><clipPath xml:id="clip1" id="clip1"><path d="M 15 8.609375 L 135 8.609375 L 135 141.359375 L 15 141.359375 Z M 15 8.609375 "/></clipPath></defs><g xml:id="surface1" id="surface1"><g clip-rule="nonzero" clip-path="url(#clip1)"><path style=" stroke:none;fill-rule:nonzero;fill:rgb(100%,100%,100%);fill-opacity:1;" d="M 133.003906 62.046875 C 130.839844 54.609375 124.0625 50.164062 114.878906 50.160156 L 82.011719 50.152344 C 88.664062 29.660156 84.585938 19.265625 81.449219 14.816406 C 78.671875 10.871094 74.617188 8.609375 70.332031 8.609375 C 65.082031 8.609375 60.570312 12 58.839844 17.246094 C 57.945312 19.945312 57.554688 21.445312 57.285156 23.230469 C 51.433594 39.703125 46.316406 45.894531 42.574219 50.417969 C 40.582031 52.828125 38.925781 54.839844 37.738281 57.558594 C 36.53125 56.597656 34.957031 55.996094 33.214844 55.996094 L 22.085938 55.996094 C 18.332031 55.996094 15.28125 58.707031 15.28125 62.042969 L 15.28125 124.246094 C 15.28125 127.582031 18.332031 130.292969 22.085938 130.292969 L 33.214844 130.292969 C 35.578125 130.292969 37.65625 129.21875 38.878906 127.589844 C 44.96875 137.4375 58.648438 141.359375 68.136719 141.359375 L 98.640625 141.359375 C 98.734375 141.359375 98.828125 141.355469 98.917969 141.34375 C 107.9375 140.167969 113.132812 133.554688 113.089844 123.488281 C 116.8125 122.785156 121.339844 120.4375 124.25 116.21875 C 126.386719 113.121094 128.359375 107.984375 126.234375 100.652344 C 130.539062 98.226562 133.511719 93.535156 134.167969 87.957031 C 134.746094 83.042969 133.324219 78.421875 130.394531 75.304688 C 133.363281 72.058594 134.4375 66.984375 133.003906 62.046875 Z M 35.738281 124.246094 C 35.738281 125.082031 34.703125 126.011719 33.214844 126.011719 L 22.085938 126.011719 C 20.601562 126.011719 19.5625 125.082031 19.5625 124.246094 L 19.5625 62.042969 C 19.5625 61.207031 20.597656 60.28125 22.085938 60.28125 L 33.214844 60.28125 C 34.699219 60.28125 35.738281 61.207031 35.738281 62.042969 Z M 129.914062 87.453125 C 129.472656 91.1875 127.386719 95.792969 122.847656 97.523438 C 121.75 97.941406 121.195312 99.164062 121.601562 100.261719 C 123.519531 105.496094 123.21875 110.171875 120.726562 113.785156 C 118.191406 117.453125 113.839844 119.40625 110.851562 119.4375 C 110.265625 119.441406 109.699219 119.695312 109.300781 120.125 C 108.898438 120.558594 108.699219 121.140625 108.738281 121.730469 C 109.105469 126.890625 108.253906 135.730469 98.5 137.078125 L 68.136719 137.078125 C 57.265625 137.078125 40.019531 131.421875 40.019531 116.238281 L 40.019531 70.050781 C 40.019531 60.234375 42.101562 57.714844 45.875 53.148438 C 49.835938 48.359375 55.261719 41.796875 61.394531 24.460938 C 61.441406 24.332031 61.472656 24.191406 61.496094 24.054688 C 61.695312 22.652344 61.972656 21.421875 62.902344 18.59375 C 64.066406 15.074219 66.910156 12.890625 70.332031 12.890625 C 73.207031 12.890625 75.984375 14.492188 77.949219 17.28125 C 82.71875 24.046875 82.375 36.546875 77.007812 51.570312 C 76.773438 52.226562 76.871094 52.953125 77.273438 53.523438 C 77.675781 54.09375 78.324219 54.433594 79.023438 54.433594 L 114.878906 54.441406 C 122.050781 54.441406 127.289062 57.734375 128.890625 63.242188 C 130.082031 67.339844 128.851562 71.648438 125.960938 73.488281 C 125.355469 73.875 124.984375 74.542969 124.96875 75.261719 C 124.960938 75.980469 125.308594 76.660156 125.90625 77.0625 C 128.890625 79.097656 130.425781 83.082031 129.914062 87.453125 Z M 129.914062 87.453125 "/></g></g></svg>