<?xml version="1.0" encoding="UTF-8"?><svg xmlns="http://www.w3.org/2000/svg" xmlns:xlink="http://www.w3.org/1999/xlink" width="150pt" zoomAndPan="magnify" viewBox="0 0 150 149.999998" height="149.999998pt" preserveAspectRatio="xMidYMid meet" version="1.2"><defs><clipPath xml:id="clip1" id="clip1"><path d="M 15 8.609375 L 135 8.609375 L 135 141.359375 L 15 141.359375 Z M 15 8.609375 "/></clipPath><clipPath xml:id="clip2" id="clip2"><path d="M 17.515625 11.394531 L 132 11.394531 L 132 138.894531 L 17.515625 138.894531 Z M 17.515625 11.394531 "/></clipPath><clipPath xml:id="clip3" id="clip3"><path d="M 19.058594 13.101562 L 130.808594 13.101562 L 130.808594 136.851562 L 19.058594 136.851562 Z M 19.058594 13.101562 "/></clipPath><clipPath xml:id="clip4" id="clip4"><path d="M 23 17.265625 L 127 17.265625 L 127 132.765625 L 23 132.765625 Z M 23 17.265625 "/></clipPath><clipPath xml:id="clip5" id="clip5"><path d="M 24.382812 18.992188 L 125.632812 18.992188 L 125.632812 130.742188 L 24.382812 130.742188 Z M 24.382812 18.992188 "/></clipPath><clipPath xml:id="clip6" id="clip6"><path d="M 26.425781 21.253906 L 123.925781 21.253906 L 123.925781 128.503906 L 26.425781 128.503906 Z M 26.425781 21.253906 "/></clipPath></defs><g xml:id="surface1" id="surface1"><g clip-rule="nonzero" clip-path="url(#clip1)"><path style=" stroke:none;fill-rule:nonzero;fill:rgb(14.118958%,14.118958%,14.118958%);fill-opacity:1;" d="M 133.003906 62.046875 C 130.839844 54.609375 124.0625 50.164062 114.878906 50.160156 L 82.011719 50.152344 C 88.664062 29.660156 84.585938 19.265625 81.449219 14.816406 C 78.671875 10.871094 74.617188 8.609375 70.332031 8.609375 C 65.082031 8.609375 60.570312 12 58.839844 17.246094 C 57.945312 19.945312 57.554688 21.445312 57.285156 23.230469 C 51.433594 39.703125 46.316406 45.894531 42.574219 50.417969 C 40.582031 52.828125 38.925781 54.839844 37.738281 57.558594 C 36.53125 56.597656 34.957031 55.996094 33.214844 55.996094 L 22.085938 55.996094 C 18.332031 55.996094 15.28125 58.707031 15.28125 62.042969 L 15.28125 124.246094 C 15.28125 127.582031 18.332031 130.292969 22.085938 130.292969 L 33.214844 130.292969 C 35.578125 130.292969 37.65625 129.21875 38.878906 127.589844 C 44.96875 137.4375 58.648438 141.359375 68.136719 141.359375 L 98.640625 141.359375 C 98.734375 141.359375 98.828125 141.355469 98.917969 141.34375 C 107.9375 140.167969 113.132812 133.554688 113.089844 123.488281 C 116.8125 122.785156 121.339844 120.4375 124.25 116.21875 C 126.386719 113.121094 128.359375 107.984375 126.234375 100.652344 C 130.539062 98.226562 133.511719 93.535156 134.167969 87.957031 C 134.746094 83.042969 133.324219 78.421875 130.394531 75.304688 C 133.363281 72.058594 134.4375 66.984375 133.003906 62.046875 Z M 35.738281 124.246094 C 35.738281 125.082031 34.703125 126.011719 33.214844 126.011719 L 22.085938 126.011719 C 20.601562 126.011719 19.5625 125.082031 19.5625 124.246094 L 19.5625 62.042969 C 19.5625 61.207031 20.597656 60.28125 22.085938 60.28125 L 33.214844 60.28125 C 34.699219 60.28125 35.738281 61.207031 35.738281 62.042969 Z M 129.914062 87.453125 C 129.472656 91.1875 127.386719 95.792969 122.847656 97.523438 C 121.75 97.941406 121.195312 99.164062 121.601562 100.261719 C 123.519531 105.496094 123.21875 110.171875 120.726562 113.785156 C 118.191406 117.453125 113.839844 119.40625 110.851562 119.4375 C 110.265625 119.441406 109.699219 119.695312 109.300781 120.125 C 108.898438 120.558594 108.699219 121.140625 108.738281 121.730469 C 109.105469 126.890625 108.253906 135.730469 98.5 137.078125 L 68.136719 137.078125 C 57.265625 137.078125 40.019531 131.421875 40.019531 116.238281 L 40.019531 70.050781 C 40.019531 60.234375 42.101562 57.714844 45.875 53.148438 C 49.835938 48.359375 55.261719 41.796875 61.394531 24.460938 C 61.441406 24.332031 61.472656 24.191406 61.496094 24.054688 C 61.695312 22.652344 61.972656 21.421875 62.902344 18.59375 C 64.066406 15.074219 66.910156 12.890625 70.332031 12.890625 C 73.207031 12.890625 75.984375 14.492188 77.949219 17.28125 C 82.71875 24.046875 82.375 36.546875 77.007812 51.570312 C 76.773438 52.226562 76.871094 52.953125 77.273438 53.523438 C 77.675781 54.09375 78.324219 54.433594 79.023438 54.433594 L 114.878906 54.441406 C 122.050781 54.441406 127.289062 57.734375 128.890625 63.242188 C 130.082031 67.339844 128.851562 71.648438 125.960938 73.488281 C 125.355469 73.875 124.984375 74.542969 124.96875 75.261719 C 124.960938 75.980469 125.308594 76.660156 125.90625 77.0625 C 128.890625 79.097656 130.425781 83.082031 129.914062 87.453125 Z M 129.914062 87.453125 "/></g><g clip-rule="nonzero" clip-path="url(#clip2)"><path style=" stroke:none;fill-rule:nonzero;fill:rgb(14.118958%,14.118958%,14.118958%);fill-opacity:1;" d="M 130.363281 62.71875 C 128.292969 55.574219 121.8125 51.304688 113.027344 51.300781 L 81.597656 51.292969 C 87.957031 31.613281 84.058594 21.628906 81.058594 17.351562 C 78.402344 13.566406 74.527344 11.394531 70.425781 11.394531 C 65.40625 11.394531 61.089844 14.648438 59.433594 19.691406 C 58.582031 22.28125 58.207031 23.71875 57.949219 25.433594 C 52.355469 41.253906 47.457031 47.203125 43.878906 51.550781 C 41.976562 53.863281 40.394531 55.796875 39.257812 58.40625 C 38.101562 57.484375 36.597656 56.90625 34.929688 56.90625 L 24.289062 56.90625 C 20.699219 56.90625 17.78125 59.511719 17.78125 62.710938 L 17.78125 122.457031 C 17.78125 125.660156 20.699219 128.265625 24.289062 128.265625 L 34.929688 128.265625 C 37.191406 128.265625 39.179688 127.230469 40.347656 125.667969 C 46.171875 135.125 59.253906 138.894531 68.328125 138.894531 L 97.5 138.894531 C 97.589844 138.894531 97.675781 138.886719 97.765625 138.878906 C 106.390625 137.75 111.359375 131.394531 111.316406 121.730469 C 114.878906 121.050781 119.207031 118.796875 121.988281 114.746094 C 124.035156 111.773438 125.917969 106.835938 123.886719 99.796875 C 128.003906 97.464844 130.847656 92.960938 131.472656 87.601562 C 132.027344 82.882812 130.667969 78.445312 127.867188 75.453125 C 130.703125 72.335938 131.730469 67.457031 130.363281 62.71875 Z M 37.34375 122.457031 C 37.34375 123.257812 36.355469 124.152344 34.929688 124.152344 L 24.289062 124.152344 C 22.867188 124.152344 21.875 123.257812 21.875 122.457031 L 21.875 62.714844 C 21.875 61.914062 22.867188 61.019531 24.289062 61.019531 L 34.929688 61.019531 C 36.351562 61.019531 37.34375 61.914062 37.34375 62.714844 Z M 127.40625 87.121094 C 126.984375 90.707031 124.988281 95.128906 120.648438 96.792969 C 119.601562 97.191406 119.070312 98.363281 119.457031 99.421875 C 121.292969 104.449219 121.003906 108.9375 118.617188 112.410156 C 116.195312 115.929688 112.035156 117.808594 109.179688 117.835938 C 108.613281 117.84375 108.074219 118.085938 107.691406 118.5 C 107.308594 118.914062 107.117188 119.476562 107.15625 120.039062 C 107.507812 125 106.695312 133.484375 97.363281 134.78125 L 68.328125 134.78125 C 57.933594 134.78125 41.4375 129.347656 41.4375 114.765625 L 41.4375 70.40625 C 41.4375 60.976562 43.429688 58.558594 47.035156 54.171875 C 50.824219 49.570312 56.015625 43.265625 61.878906 26.621094 C 61.921875 26.492188 61.957031 26.359375 61.976562 26.226562 C 62.167969 24.878906 62.429688 23.699219 63.320312 20.980469 C 64.433594 17.605469 67.15625 15.507812 70.425781 15.507812 C 73.175781 15.507812 75.832031 17.042969 77.710938 19.71875 C 82.273438 26.222656 81.941406 38.222656 76.808594 52.65625 C 76.585938 53.285156 76.679688 53.984375 77.0625 54.53125 C 77.449219 55.078125 78.070312 55.402344 78.738281 55.402344 L 113.027344 55.410156 C 119.886719 55.414062 124.894531 58.578125 126.429688 63.867188 C 127.570312 67.800781 126.390625 71.941406 123.625 73.707031 C 123.046875 74.078125 122.691406 74.71875 122.679688 75.410156 C 122.667969 76.101562 123.003906 76.75 123.574219 77.140625 C 126.429688 79.09375 127.894531 82.917969 127.40625 87.121094 Z M 127.40625 87.121094 "/></g><g clip-rule="nonzero" clip-path="url(#clip3)"><path style=" stroke:none;fill-rule:nonzero;fill:rgb(14.118958%,14.118958%,14.118958%);fill-opacity:1;" d="M 128.949219 62.917969 C 126.933594 55.980469 120.625 51.839844 112.070312 51.835938 L 81.464844 51.828125 C 87.660156 32.726562 83.863281 23.035156 80.941406 18.886719 C 78.351562 15.210938 74.578125 13.101562 70.585938 13.101562 C 65.699219 13.101562 61.496094 16.261719 59.882812 21.152344 C 59.054688 23.671875 58.691406 25.066406 58.4375 26.730469 C 52.992188 42.085938 48.222656 47.859375 44.738281 52.078125 C 42.886719 54.320312 41.34375 56.199219 40.234375 58.730469 C 39.113281 57.835938 37.648438 57.273438 36.023438 57.273438 L 25.660156 57.273438 C 22.164062 57.273438 19.320312 59.804688 19.320312 62.910156 L 19.320312 120.902344 C 19.320312 124.007812 22.164062 126.535156 25.660156 126.535156 L 36.023438 126.535156 C 38.222656 126.535156 40.160156 125.535156 41.296875 124.015625 C 46.96875 133.195312 59.710938 136.851562 68.542969 136.851562 L 96.953125 136.851562 C 97.039062 136.851562 97.121094 136.847656 97.207031 136.835938 C 105.609375 135.742188 110.445312 129.574219 110.40625 120.195312 C 113.871094 119.535156 118.089844 117.347656 120.796875 113.414062 C 122.789062 110.53125 124.625 105.738281 122.648438 98.90625 C 126.652344 96.644531 129.421875 92.269531 130.035156 87.070312 C 130.570312 82.488281 129.246094 78.179688 126.519531 75.277344 C 129.285156 72.25 130.285156 67.519531 128.949219 62.917969 Z M 38.371094 120.902344 C 38.371094 121.675781 37.410156 122.542969 36.023438 122.542969 L 25.660156 122.542969 C 24.277344 122.542969 23.308594 121.675781 23.308594 120.902344 L 23.308594 62.914062 C 23.308594 62.136719 24.277344 61.269531 25.660156 61.269531 L 36.023438 61.269531 C 37.40625 61.269531 38.371094 62.136719 38.371094 62.914062 Z M 126.070312 86.601562 C 125.664062 90.082031 123.71875 94.375 119.492188 95.988281 C 118.472656 96.378906 117.953125 97.515625 118.332031 98.542969 C 120.117188 103.421875 119.839844 107.777344 117.515625 111.144531 C 115.15625 114.566406 111.105469 116.386719 108.324219 116.414062 C 107.773438 116.421875 107.25 116.65625 106.875 117.058594 C 106.503906 117.460938 106.316406 118.003906 106.355469 118.554688 C 106.695312 123.367188 105.902344 131.601562 96.816406 132.859375 L 68.542969 132.859375 C 58.421875 132.859375 42.359375 127.585938 42.359375 113.4375 L 42.359375 70.378906 C 42.359375 61.226562 44.296875 58.878906 47.8125 54.621094 C 51.5 50.15625 56.554688 44.039062 62.265625 27.878906 C 62.308594 27.757812 62.339844 27.628906 62.359375 27.5 C 62.546875 26.191406 62.800781 25.046875 63.667969 22.40625 C 64.753906 19.128906 67.402344 17.09375 70.585938 17.09375 C 73.265625 17.09375 75.851562 18.585938 77.679688 21.183594 C 82.125 27.492188 81.800781 39.144531 76.804688 53.152344 C 76.585938 53.761719 76.679688 54.441406 77.050781 54.972656 C 77.425781 55.503906 78.03125 55.816406 78.679688 55.816406 L 112.070312 55.824219 C 118.75 55.828125 123.628906 58.898438 125.121094 64.03125 C 126.230469 67.851562 125.082031 71.867188 122.390625 73.582031 C 121.828125 73.945312 121.480469 74.5625 121.46875 75.234375 C 121.457031 75.90625 121.785156 76.539062 122.339844 76.914062 C 125.121094 78.8125 126.550781 82.523438 126.070312 86.601562 Z M 126.070312 86.601562 "/></g><path style=" stroke:none;fill-rule:nonzero;fill:rgb(14.118958%,14.118958%,14.118958%);fill-opacity:1;" d="M 127.722656 63.304688 C 125.757812 56.578125 119.617188 52.5625 111.292969 52.558594 L 81.507812 52.550781 C 87.535156 34.03125 83.839844 24.632812 80.992188 20.609375 C 78.476562 17.042969 74.804688 15 70.917969 15 C 66.160156 15 62.070312 18.0625 60.5 22.808594 C 59.691406 25.25 59.339844 26.601562 59.09375 28.214844 C 53.792969 43.105469 49.152344 48.703125 45.761719 52.792969 C 43.957031 54.96875 42.457031 56.789062 41.378906 59.246094 C 40.285156 58.378906 38.859375 57.835938 37.277344 57.835938 L 27.195312 57.835938 C 23.792969 57.835938 21.023438 60.285156 21.023438 63.300781 L 21.023438 119.53125 C 21.023438 122.546875 23.792969 124.996094 27.195312 124.996094 L 37.277344 124.996094 C 39.417969 124.996094 41.304688 124.023438 42.410156 122.554688 C 47.929688 131.453125 60.332031 135 68.929688 135 L 96.578125 135 C 96.660156 135 96.746094 134.996094 96.828125 134.984375 C 105.003906 133.921875 109.710938 127.941406 109.671875 118.847656 C 113.046875 118.207031 117.148438 116.085938 119.789062 112.273438 C 121.722656 109.476562 123.511719 104.828125 121.585938 98.203125 C 125.484375 96.007812 128.183594 91.769531 128.777344 86.726562 C 129.300781 82.285156 128.011719 78.105469 125.355469 75.289062 C 128.046875 72.355469 129.019531 67.765625 127.722656 63.304688 Z M 39.566406 119.53125 C 39.566406 120.285156 38.628906 121.125 37.277344 121.125 L 27.195312 121.125 C 25.847656 121.125 24.90625 120.285156 24.90625 119.53125 L 24.90625 63.300781 C 24.90625 62.546875 25.84375 61.707031 27.195312 61.707031 L 37.277344 61.707031 C 38.625 61.707031 39.566406 62.546875 39.566406 63.300781 Z M 124.917969 86.273438 C 124.519531 89.648438 122.628906 93.8125 118.515625 95.375 C 117.523438 95.753906 117.019531 96.855469 117.386719 97.851562 C 119.125 102.582031 118.855469 106.808594 116.59375 110.074219 C 114.296875 113.386719 110.351562 115.152344 107.644531 115.183594 C 107.109375 115.1875 106.601562 115.414062 106.238281 115.804688 C 105.875 116.195312 105.691406 116.722656 105.730469 117.253906 C 106.0625 121.921875 105.289062 129.910156 96.449219 131.128906 L 68.929688 131.128906 C 59.078125 131.128906 43.445312 126.015625 43.445312 112.292969 L 43.445312 70.539062 C 43.445312 61.664062 45.332031 59.390625 48.75 55.261719 C 52.34375 50.929688 57.261719 45 62.816406 29.332031 C 62.859375 29.210938 62.890625 29.085938 62.910156 28.960938 C 63.09375 27.691406 63.339844 26.582031 64.1875 24.023438 C 65.238281 20.84375 67.820312 18.871094 70.917969 18.871094 C 73.527344 18.871094 76.039062 20.316406 77.824219 22.835938 C 82.148438 28.953125 81.832031 40.253906 76.96875 53.835938 C 76.757812 54.429688 76.847656 55.085938 77.210938 55.601562 C 77.574219 56.117188 78.164062 56.421875 78.796875 56.421875 L 111.292969 56.429688 C 117.792969 56.429688 122.542969 59.40625 123.992188 64.386719 C 125.074219 68.089844 123.957031 71.984375 121.339844 73.648438 C 120.789062 73.996094 120.449219 74.597656 120.441406 75.25 C 120.429688 75.898438 120.75 76.511719 121.289062 76.878906 C 123.992188 78.71875 125.386719 82.316406 124.917969 86.273438 Z M 124.917969 86.273438 "/><g clip-rule="nonzero" clip-path="url(#clip4)"><path style=" stroke:none;fill-rule:nonzero;fill:rgb(14.118958%,14.118958%,14.118958%);fill-opacity:1;" d="M 125.339844 63.757812 C 123.457031 57.285156 117.570312 53.417969 109.589844 53.414062 L 81.039062 53.40625 C 86.816406 35.582031 83.273438 26.535156 80.546875 22.664062 C 78.136719 19.230469 74.613281 17.265625 70.890625 17.265625 C 66.332031 17.265625 62.410156 20.214844 60.90625 24.777344 C 60.128906 27.128906 59.789062 28.429688 59.554688 29.984375 C 54.472656 44.316406 50.023438 49.703125 46.773438 53.640625 C 45.046875 55.734375 43.605469 57.488281 42.574219 59.851562 C 41.527344 59.015625 40.160156 58.492188 38.644531 58.492188 L 28.976562 58.492188 C 25.714844 58.492188 23.0625 60.851562 23.0625 63.753906 L 23.0625 117.875 C 23.0625 120.777344 25.714844 123.132812 28.976562 123.132812 L 38.644531 123.132812 C 40.695312 123.132812 42.503906 122.199219 43.5625 120.785156 C 48.855469 129.351562 60.742188 132.765625 68.984375 132.765625 L 95.484375 132.765625 C 95.566406 132.765625 95.644531 132.757812 95.726562 132.75 C 103.5625 131.726562 108.074219 125.972656 108.039062 117.214844 C 111.273438 116.601562 115.203125 114.558594 117.734375 110.890625 C 119.589844 108.195312 121.300781 103.726562 119.457031 97.347656 C 123.195312 95.234375 125.78125 91.152344 126.347656 86.300781 C 126.851562 82.023438 125.617188 78.003906 123.070312 75.292969 C 125.648438 72.46875 126.582031 68.050781 125.339844 63.757812 Z M 40.835938 117.875 C 40.835938 118.601562 39.9375 119.410156 38.644531 119.410156 L 28.976562 119.410156 C 27.6875 119.410156 26.785156 118.601562 26.785156 117.875 L 26.785156 63.753906 C 26.785156 63.027344 27.683594 62.21875 28.976562 62.21875 L 38.644531 62.21875 C 39.9375 62.21875 40.835938 63.027344 40.835938 63.753906 Z M 122.652344 85.863281 C 122.269531 89.113281 120.457031 93.121094 116.515625 94.625 C 115.5625 94.988281 115.078125 96.050781 115.429688 97.007812 C 117.097656 101.558594 116.839844 105.628906 114.671875 108.773438 C 112.46875 111.960938 108.6875 113.660156 106.09375 113.691406 C 105.582031 113.695312 105.09375 113.914062 104.746094 114.289062 C 104.398438 114.664062 104.222656 115.171875 104.257812 115.683594 C 104.574219 120.175781 103.835938 127.863281 95.359375 129.039062 L 68.984375 129.039062 C 59.539062 129.039062 44.558594 124.117188 44.558594 110.910156 L 44.558594 70.722656 C 44.558594 62.179688 46.363281 59.988281 49.640625 56.015625 C 53.082031 51.847656 57.796875 46.136719 63.125 31.058594 C 63.164062 30.941406 63.195312 30.820312 63.214844 30.699219 C 63.390625 29.480469 63.628906 28.410156 64.4375 25.949219 C 65.445312 22.890625 67.917969 20.988281 70.890625 20.988281 C 73.390625 20.988281 75.800781 22.382812 77.507812 24.808594 C 81.652344 30.695312 81.351562 41.570312 76.6875 54.644531 C 76.488281 55.214844 76.570312 55.847656 76.921875 56.34375 C 77.269531 56.835938 77.835938 57.132812 78.441406 57.132812 L 109.589844 57.140625 C 115.820312 57.140625 120.371094 60.007812 121.765625 64.796875 C 122.800781 68.363281 121.730469 72.113281 119.21875 73.710938 C 118.691406 74.050781 118.367188 74.628906 118.359375 75.253906 C 118.347656 75.878906 118.652344 76.472656 119.171875 76.824219 C 121.765625 78.59375 123.097656 82.058594 122.652344 85.863281 Z M 122.652344 85.863281 "/></g><g clip-rule="nonzero" clip-path="url(#clip5)"><path style=" stroke:none;fill-rule:nonzero;fill:rgb(14.118958%,14.118958%,14.118958%);fill-opacity:1;" d="M 123.949219 63.976562 C 122.125 57.710938 116.40625 53.96875 108.65625 53.964844 L 80.925781 53.960938 C 86.535156 36.710938 83.097656 27.960938 80.449219 24.214844 C 78.105469 20.894531 74.683594 18.992188 71.066406 18.992188 C 66.636719 18.992188 62.832031 21.84375 61.367188 26.261719 C 60.617188 28.535156 60.285156 29.792969 60.058594 31.296875 C 55.121094 45.164062 50.800781 50.375 47.644531 54.1875 C 45.964844 56.210938 44.566406 57.910156 43.566406 60.195312 C 42.546875 59.386719 41.21875 58.878906 39.75 58.878906 L 30.359375 58.878906 C 27.191406 58.878906 24.613281 61.164062 24.613281 63.96875 L 24.613281 116.335938 C 24.613281 119.140625 27.191406 121.421875 30.359375 121.421875 L 39.75 121.421875 C 41.742188 121.421875 43.496094 120.519531 44.527344 119.148438 C 49.664062 127.4375 61.210938 130.742188 69.214844 130.742188 L 94.957031 130.742188 C 95.035156 130.742188 95.109375 130.734375 95.1875 130.726562 C 102.800781 129.738281 107.183594 124.167969 107.148438 115.699219 C 110.289062 115.101562 114.109375 113.128906 116.5625 109.578125 C 118.367188 106.96875 120.03125 102.644531 118.238281 96.472656 C 121.867188 94.429688 124.378906 90.480469 124.933594 85.785156 C 125.417969 81.648438 124.21875 77.757812 121.746094 75.136719 C 124.253906 72.402344 125.160156 68.128906 123.949219 63.976562 Z M 41.878906 116.335938 C 41.878906 117.035156 41.003906 117.820312 39.75 117.820312 L 30.359375 117.820312 C 29.105469 117.820312 28.230469 117.035156 28.230469 116.335938 L 28.230469 63.972656 C 28.230469 63.269531 29.101562 62.488281 30.359375 62.488281 L 39.75 62.488281 C 41.003906 62.488281 41.878906 63.269531 41.878906 63.972656 Z M 121.339844 85.363281 C 120.972656 88.507812 119.210938 92.382812 115.378906 93.839844 C 114.453125 94.191406 113.988281 95.21875 114.328125 96.144531 C 115.949219 100.550781 115.695312 104.488281 113.589844 107.527344 C 111.453125 110.613281 107.78125 112.257812 105.257812 112.285156 C 104.761719 112.289062 104.285156 112.5 103.949219 112.867188 C 103.609375 113.230469 103.441406 113.71875 103.476562 114.214844 C 103.785156 118.5625 103.066406 126 94.835938 127.136719 L 69.214844 127.136719 C 60.042969 127.136719 45.492188 122.375 45.492188 109.59375 L 45.492188 70.710938 C 45.492188 62.445312 47.246094 60.328125 50.429688 56.484375 C 53.773438 52.449219 58.351562 46.925781 63.523438 32.335938 C 63.566406 32.222656 63.59375 32.109375 63.613281 31.992188 C 63.78125 30.8125 64.011719 29.777344 64.796875 27.394531 C 65.78125 24.433594 68.179688 22.59375 71.066406 22.59375 C 73.492188 22.59375 75.835938 23.941406 77.496094 26.289062 C 81.519531 31.984375 81.226562 42.507812 76.699219 55.15625 C 76.503906 55.707031 76.585938 56.320312 76.921875 56.800781 C 77.261719 57.28125 77.8125 57.5625 78.398438 57.5625 L 108.65625 57.570312 C 114.707031 57.574219 119.128906 60.34375 120.480469 64.980469 C 121.484375 68.429688 120.445312 72.058594 118.007812 73.605469 C 117.496094 73.933594 117.183594 74.492188 117.171875 75.097656 C 117.160156 75.703125 117.457031 76.273438 117.960938 76.617188 C 120.480469 78.328125 121.773438 81.679688 121.339844 85.363281 Z M 121.339844 85.363281 "/></g><g clip-rule="nonzero" clip-path="url(#clip6)"><path style=" stroke:none;fill-rule:nonzero;fill:rgb(14.118958%,14.118958%,14.118958%);fill-opacity:1;" d="M 122.308594 64.429688 C 120.550781 58.417969 115.046875 54.824219 107.578125 54.820312 L 80.875 54.816406 C 86.28125 38.261719 82.96875 29.863281 80.417969 26.269531 C 78.160156 23.082031 74.867188 21.253906 71.382812 21.253906 C 67.121094 21.253906 63.453125 23.992188 62.046875 28.234375 C 61.320312 30.414062 61.003906 31.625 60.785156 33.066406 C 56.03125 46.375 51.867188 51.375 48.828125 55.03125 C 47.210938 56.976562 45.867188 58.605469 44.898438 60.800781 C 43.921875 60.023438 42.640625 59.539062 41.226562 59.539062 L 32.183594 59.539062 C 29.132812 59.539062 26.652344 61.730469 26.652344 64.421875 L 26.652344 114.679688 C 26.652344 117.375 29.132812 119.5625 32.183594 119.5625 L 41.226562 119.5625 C 43.144531 119.5625 44.832031 118.695312 45.824219 117.378906 C 50.773438 125.335938 61.890625 128.503906 69.601562 128.503906 L 94.386719 128.503906 C 94.464844 128.503906 94.539062 128.5 94.613281 128.492188 C 101.941406 127.542969 106.164062 122.199219 106.128906 114.066406 C 109.152344 113.496094 112.832031 111.601562 115.195312 108.191406 C 116.933594 105.691406 118.535156 101.539062 116.808594 95.617188 C 120.304688 93.65625 122.722656 89.867188 123.253906 85.359375 C 123.726562 81.390625 122.570312 77.65625 120.1875 75.140625 C 122.601562 72.515625 123.472656 68.414062 122.308594 64.429688 Z M 43.273438 114.679688 C 43.273438 115.351562 42.433594 116.101562 41.226562 116.101562 L 32.183594 116.101562 C 30.976562 116.101562 30.132812 115.351562 30.132812 114.679688 L 30.132812 64.425781 C 30.132812 63.75 30.972656 63 32.183594 63 L 41.226562 63 C 42.433594 63 43.273438 63.75 43.273438 64.425781 Z M 119.796875 84.953125 C 119.441406 87.972656 117.746094 91.691406 114.058594 93.089844 C 113.164062 93.425781 112.714844 94.414062 113.042969 95.300781 C 114.601562 99.53125 114.359375 103.308594 112.332031 106.226562 C 110.273438 109.1875 106.738281 110.765625 104.308594 110.792969 C 103.832031 110.796875 103.375 111 103.046875 111.351562 C 102.722656 111.699219 102.558594 112.167969 102.59375 112.644531 C 102.890625 116.816406 102.199219 123.957031 94.273438 125.042969 L 69.601562 125.042969 C 60.769531 125.042969 46.753906 120.476562 46.753906 108.210938 L 46.753906 70.894531 C 46.753906 62.960938 48.445312 60.929688 51.511719 57.238281 C 54.730469 53.367188 59.140625 48.066406 64.121094 34.0625 C 64.160156 33.953125 64.1875 33.84375 64.203125 33.730469 C 64.367188 32.597656 64.589844 31.605469 65.347656 29.320312 C 66.292969 26.480469 68.605469 24.714844 71.382812 24.714844 C 73.722656 24.714844 75.976562 26.007812 77.574219 28.257812 C 81.449219 33.726562 81.167969 43.824219 76.808594 55.964844 C 76.617188 56.492188 76.699219 57.082031 77.023438 57.542969 C 77.351562 58 77.878906 58.273438 78.445312 58.273438 L 107.578125 58.28125 C 113.410156 58.285156 117.664062 60.945312 118.96875 65.394531 C 119.9375 68.703125 118.933594 72.183594 116.585938 73.671875 C 116.09375 73.984375 115.792969 74.523438 115.78125 75.101562 C 115.773438 75.683594 116.058594 76.230469 116.542969 76.558594 C 118.96875 78.203125 120.214844 81.421875 119.796875 84.953125 Z M 119.796875 84.953125 "/></g><path style=" stroke:none;fill-rule:nonzero;fill:rgb(14.118958%,14.118958%,14.118958%);fill-opacity:1;" d="M 26.433594 61.289062 L 111.171875 61.289062 L 111.171875 125.789062 L 26.433594 125.789062 Z M 26.433594 61.289062 "/><path style=" stroke:none;fill-rule:nonzero;fill:rgb(14.118958%,14.118958%,14.118958%);fill-opacity:1;" d="M 55.890625 57.589844 L 123.390625 57.589844 L 123.390625 113.089844 L 55.890625 113.089844 Z M 55.890625 57.589844 "/><path style=" stroke:none;fill-rule:nonzero;fill:rgb(14.118958%,14.118958%,14.118958%);fill-opacity:1;" d="M 47.113281 63.5 L 63.382812 21.554688 L 84.359375 29.691406 L 68.09375 71.636719 Z M 47.113281 63.5 "/><path style=" stroke:none;fill-rule:nonzero;fill:rgb(14.118958%,14.118958%,14.118958%);fill-opacity:1;" d="M 55.894531 55.863281 L 59.816406 39.839844 L 81.667969 45.1875 L 77.746094 61.214844 Z M 55.894531 55.863281 "/></g></svg>