<?xml version="1.0" encoding="UTF-8"?><svg xmlns="http://www.w3.org/2000/svg" xmlns:xlink="http://www.w3.org/1999/xlink" width="150pt" zoomAndPan="magnify" viewBox="0 0 150 149.999998" height="149.999998pt" preserveAspectRatio="xMidYMid meet" version="1.2"><defs><clipPath xml:id="clip1" id="clip1"><path d="M 6.550781 6.550781 L 143.800781 6.550781 L 143.800781 143.800781 L 6.550781 143.800781 Z M 6.550781 6.550781 "/></clipPath></defs><g xml:id="surface1" id="surface1"><g clip-rule="nonzero" clip-path="url(#clip1)"><path style=" stroke:none;fill-rule:nonzero;fill:rgb(92.158508%,19.60907%,13.729858%);fill-opacity:1;" d="M 75.269531 6.457031 C 37.4375 6.457031 6.644531 37.253906 6.644531 75.082031 C 6.644531 112.910156 37.4375 143.707031 75.269531 143.707031 C 95.546875 143.707031 113.804688 134.847656 126.351562 120.832031 C 126.628906 120.542969 126.871094 120.230469 127.082031 119.890625 C 127.292969 119.554688 127.472656 119.199219 127.609375 118.824219 C 127.75 118.449219 127.855469 118.066406 127.917969 117.671875 C 127.980469 117.277344 128.003906 116.882812 127.988281 116.484375 C 127.972656 116.085938 127.917969 115.691406 127.820312 115.304688 C 127.726562 114.914062 127.59375 114.542969 127.421875 114.179688 C 127.253906 113.820312 127.050781 113.476562 126.8125 113.160156 C 126.570312 112.839844 126.304688 112.546875 126.007812 112.277344 C 125.710938 112.011719 125.390625 111.777344 125.042969 111.578125 C 124.699219 111.375 124.339844 111.207031 123.960938 111.078125 C 123.585938 110.949219 123.199219 110.859375 122.800781 110.808594 C 122.40625 110.753906 122.007812 110.742188 121.609375 110.769531 C 121.210938 110.796875 120.820312 110.867188 120.4375 110.972656 C 120.050781 111.078125 119.679688 111.222656 119.324219 111.402344 C 118.96875 111.582031 118.632812 111.796875 118.320312 112.042969 C 118.007812 112.292969 117.722656 112.570312 117.464844 112.875 C 107.078125 124.472656 92.078125 131.773438 75.269531 131.773438 C 43.886719 131.773438 18.578125 106.460938 18.578125 75.082031 C 18.578125 43.703125 43.886719 18.390625 75.269531 18.390625 C 92.074219 18.390625 107.078125 25.691406 117.464844 37.289062 C 117.722656 37.59375 118.007812 37.871094 118.320312 38.121094 C 118.632812 38.367188 118.96875 38.582031 119.324219 38.761719 C 119.679688 38.941406 120.050781 39.085938 120.4375 39.191406 C 120.820312 39.296875 121.210938 39.367188 121.609375 39.394531 C 122.007812 39.421875 122.40625 39.410156 122.800781 39.355469 C 123.199219 39.304688 123.582031 39.214844 123.960938 39.085938 C 124.339844 38.957031 124.699219 38.789062 125.042969 38.585938 C 125.390625 38.386719 125.710938 38.152344 126.007812 37.886719 C 126.304688 37.617188 126.570312 37.324219 126.8125 37.003906 C 127.050781 36.683594 127.253906 36.34375 127.421875 35.984375 C 127.59375 35.621094 127.726562 35.25 127.820312 34.859375 C 127.917969 34.472656 127.972656 34.078125 127.988281 33.679688 C 128.003906 33.28125 127.980469 32.886719 127.917969 32.492188 C 127.855469 32.097656 127.75 31.714844 127.609375 31.339844 C 127.472656 30.964844 127.292969 30.609375 127.082031 30.273438 C 126.871094 29.933594 126.628906 29.621094 126.351562 29.328125 C 113.800781 15.316406 95.542969 6.457031 75.269531 6.457031 Z M 116.789062 48.171875 C 116.195312 48.171875 115.617188 48.257812 115.046875 48.433594 C 114.480469 48.605469 113.953125 48.859375 113.460938 49.191406 C 112.96875 49.523438 112.535156 49.917969 112.160156 50.378906 C 111.789062 50.839844 111.488281 51.34375 111.265625 51.894531 C 111.042969 52.445312 110.90625 53.015625 110.851562 53.605469 C 110.800781 54.199219 110.835938 54.785156 110.957031 55.363281 C 111.078125 55.945312 111.28125 56.496094 111.566406 57.015625 C 111.855469 57.535156 112.210938 58 112.632812 58.414062 L 123.332031 69.113281 L 69.113281 69.113281 C 68.71875 69.109375 68.328125 69.140625 67.9375 69.214844 C 67.550781 69.285156 67.171875 69.398438 66.804688 69.542969 C 66.4375 69.691406 66.089844 69.875 65.757812 70.089844 C 65.425781 70.308594 65.121094 70.554688 64.839844 70.832031 C 64.558594 71.109375 64.308594 71.414062 64.085938 71.738281 C 63.863281 72.066406 63.675781 72.414062 63.523438 72.777344 C 63.371094 73.144531 63.257812 73.519531 63.179688 73.90625 C 63.101562 74.292969 63.0625 74.6875 63.0625 75.082031 C 63.0625 75.476562 63.101562 75.867188 63.179688 76.257812 C 63.257812 76.644531 63.371094 77.019531 63.523438 77.386719 C 63.675781 77.75 63.863281 78.097656 64.085938 78.421875 C 64.308594 78.75 64.558594 79.054688 64.839844 79.332031 C 65.121094 79.609375 65.425781 79.855469 65.757812 80.074219 C 66.089844 80.289062 66.4375 80.472656 66.804688 80.621094 C 67.171875 80.765625 67.550781 80.875 67.9375 80.949219 C 68.328125 81.023438 68.71875 81.054688 69.113281 81.050781 L 123.332031 81.050781 L 112.632812 91.75 C 112.347656 92.023438 112.089844 92.324219 111.867188 92.648438 C 111.640625 92.976562 111.445312 93.320312 111.289062 93.6875 C 111.132812 94.050781 111.011719 94.425781 110.929688 94.816406 C 110.847656 95.203125 110.804688 95.597656 110.800781 95.992188 C 110.796875 96.390625 110.832031 96.785156 110.90625 97.171875 C 110.980469 97.5625 111.09375 97.941406 111.242188 98.308594 C 111.394531 98.675781 111.578125 99.027344 111.796875 99.355469 C 112.015625 99.6875 112.265625 99.992188 112.546875 100.273438 C 112.828125 100.554688 113.132812 100.804688 113.464844 101.023438 C 113.796875 101.242188 114.144531 101.429688 114.511719 101.578125 C 114.878906 101.730469 115.257812 101.839844 115.648438 101.914062 C 116.039062 101.988281 116.429688 102.023438 116.828125 102.019531 C 117.226562 102.015625 117.617188 101.972656 118.007812 101.890625 C 118.394531 101.808594 118.769531 101.6875 119.136719 101.53125 C 119.5 101.375 119.84375 101.183594 120.171875 100.957031 C 120.496094 100.730469 120.796875 100.472656 121.074219 100.1875 L 141.429688 79.832031 C 141.796875 79.550781 142.125 79.234375 142.421875 78.878906 C 142.714844 78.523438 142.964844 78.136719 143.167969 77.726562 C 143.371094 77.3125 143.527344 76.878906 143.632812 76.429688 C 143.734375 75.980469 143.789062 75.527344 143.785156 75.0625 C 143.785156 74.601562 143.730469 74.148438 143.625 73.699219 C 143.519531 73.25 143.359375 72.820312 143.15625 72.40625 C 142.949219 71.996094 142.695312 71.609375 142.402344 71.257812 C 142.105469 70.902344 141.773438 70.585938 141.40625 70.308594 L 121.074219 49.976562 C 120.511719 49.398438 119.859375 48.953125 119.113281 48.640625 C 118.371094 48.324219 117.597656 48.167969 116.789062 48.171875 Z M 116.789062 48.171875 "/></g></g></svg>