<?xml version="1.0" encoding="UTF-8"?>
<svg xmlns="http://www.w3.org/2000/svg" xmlns:xlink="http://www.w3.org/1999/xlink" width="768pt" height="767.999994pt" viewBox="0 0 768 767.999994" version="1.2">
<defs>
<clipPath id="clip1">
  <path d="M 293.25 293 L 474.75 293 L 474.75 475 L 293.25 475 Z M 293.25 293 "/>
</clipPath>
<clipPath id="clip2">
  <path d="M 293.25 21 L 474.75 21 L 474.75 203 L 293.25 203 Z M 293.25 21 "/>
</clipPath>
<clipPath id="clip3">
  <path d="M 293.25 565 L 474.75 565 L 474.75 747 L 293.25 747 Z M 293.25 565 "/>
</clipPath>
</defs>
<g id="surface1">
<g clip-path="url(#clip1)" clip-rule="nonzero">
<path style=" stroke:none;fill-rule:nonzero;fill:rgb(6.269836%,5.879211%,5.099487%);fill-opacity:1;" d="M 474.75 384 C 474.75 385.484375 474.714844 386.96875 474.640625 388.453125 C 474.566406 389.9375 474.457031 391.417969 474.3125 392.894531 C 474.167969 394.371094 473.984375 395.847656 473.769531 397.316406 C 473.550781 398.785156 473.296875 400.246094 473.007812 401.703125 C 472.714844 403.160156 472.390625 404.609375 472.03125 406.050781 C 471.667969 407.492188 471.273438 408.921875 470.84375 410.34375 C 470.410156 411.765625 469.945312 413.175781 469.445312 414.574219 C 468.945312 415.972656 468.410156 417.355469 467.84375 418.726562 C 467.273438 420.101562 466.671875 421.457031 466.035156 422.800781 C 465.402344 424.144531 464.734375 425.46875 464.035156 426.777344 C 463.335938 428.089844 462.601562 429.378906 461.839844 430.65625 C 461.074219 431.929688 460.28125 433.183594 459.457031 434.417969 C 458.628906 435.652344 457.777344 436.867188 456.890625 438.058594 C 456.007812 439.253906 455.09375 440.421875 454.152344 441.570312 C 453.207031 442.71875 452.238281 443.84375 451.242188 444.945312 C 450.242188 446.042969 449.21875 447.121094 448.167969 448.167969 C 447.121094 449.21875 446.042969 450.242188 444.945312 451.242188 C 443.84375 452.238281 442.71875 453.207031 441.570312 454.152344 C 440.421875 455.09375 439.253906 456.007812 438.058594 456.890625 C 436.867188 457.777344 435.652344 458.628906 434.417969 459.457031 C 433.183594 460.28125 431.929688 461.074219 430.65625 461.839844 C 429.378906 462.601562 428.089844 463.335938 426.777344 464.035156 C 425.46875 464.734375 424.144531 465.402344 422.800781 466.035156 C 421.457031 466.671875 420.101562 467.273438 418.726562 467.84375 C 417.355469 468.410156 415.972656 468.945312 414.574219 469.445312 C 413.175781 469.945312 411.765625 470.410156 410.34375 470.84375 C 408.921875 471.273438 407.492188 471.667969 406.050781 472.03125 C 404.609375 472.390625 403.160156 472.714844 401.703125 473.007812 C 400.246094 473.296875 398.785156 473.550781 397.316406 473.765625 C 395.847656 473.984375 394.371094 474.167969 392.894531 474.3125 C 391.417969 474.457031 389.9375 474.566406 388.453125 474.640625 C 386.96875 474.714844 385.484375 474.75 384 474.75 C 382.515625 474.75 381.03125 474.714844 379.546875 474.640625 C 378.0625 474.566406 376.582031 474.457031 375.105469 474.3125 C 373.625 474.167969 372.152344 473.984375 370.683594 473.765625 C 369.214844 473.550781 367.753906 473.296875 366.296875 473.007812 C 364.839844 472.714844 363.390625 472.390625 361.949219 472.03125 C 360.507812 471.667969 359.078125 471.273438 357.65625 470.84375 C 356.234375 470.410156 354.824219 469.945312 353.425781 469.445312 C 352.027344 468.945312 350.644531 468.410156 349.269531 467.84375 C 347.898438 467.273438 346.542969 466.671875 345.199219 466.035156 C 343.855469 465.402344 342.53125 464.734375 341.21875 464.035156 C 339.910156 463.335938 338.617188 462.601562 337.34375 461.839844 C 336.070312 461.074219 334.816406 460.28125 333.582031 459.457031 C 332.347656 458.628906 331.132812 457.777344 329.941406 456.890625 C 328.746094 456.007812 327.578125 455.09375 326.429688 454.152344 C 325.28125 453.207031 324.15625 452.238281 323.054688 451.242188 C 321.957031 450.242188 320.878906 449.21875 319.828125 448.167969 C 318.78125 447.121094 317.757812 446.042969 316.757812 444.945312 C 315.761719 443.84375 314.792969 442.71875 313.847656 441.570312 C 312.90625 440.421875 311.992188 439.253906 311.109375 438.058594 C 310.222656 436.867188 309.367188 435.652344 308.542969 434.417969 C 307.71875 433.183594 306.925781 431.929688 306.160156 430.65625 C 305.398438 429.378906 304.664062 428.089844 303.964844 426.777344 C 303.265625 425.46875 302.597656 424.144531 301.960938 422.800781 C 301.328125 421.457031 300.726562 420.101562 300.15625 418.726562 C 299.589844 417.355469 299.054688 415.972656 298.554688 414.574219 C 298.054688 413.175781 297.589844 411.765625 297.15625 410.34375 C 296.726562 408.921875 296.332031 407.492188 295.96875 406.050781 C 295.609375 404.609375 295.285156 403.160156 294.992188 401.703125 C 294.703125 400.246094 294.449219 398.785156 294.230469 397.316406 C 294.015625 395.847656 293.832031 394.371094 293.6875 392.894531 C 293.542969 391.417969 293.433594 389.9375 293.359375 388.453125 C 293.285156 386.96875 293.25 385.484375 293.25 384 C 293.25 382.515625 293.285156 381.03125 293.359375 379.546875 C 293.433594 378.0625 293.542969 376.582031 293.6875 375.105469 C 293.832031 373.625 294.015625 372.152344 294.230469 370.683594 C 294.449219 369.214844 294.703125 367.75 294.992188 366.296875 C 295.285156 364.839844 295.609375 363.390625 295.96875 361.949219 C 296.332031 360.507812 296.726562 359.078125 297.15625 357.65625 C 297.589844 356.234375 298.054688 354.824219 298.554688 353.425781 C 299.054688 352.027344 299.589844 350.644531 300.15625 349.269531 C 300.726562 347.898438 301.328125 346.542969 301.960938 345.199219 C 302.597656 343.855469 303.265625 342.53125 303.964844 341.21875 C 304.664062 339.910156 305.398438 338.617188 306.160156 337.34375 C 306.925781 336.070312 307.71875 334.816406 308.542969 333.582031 C 309.367188 332.347656 310.222656 331.132812 311.109375 329.941406 C 311.992188 328.746094 312.90625 327.578125 313.847656 326.429688 C 314.792969 325.28125 315.761719 324.15625 316.757812 323.054688 C 317.757812 321.957031 318.78125 320.878906 319.828125 319.828125 C 320.878906 318.78125 321.957031 317.753906 323.054688 316.757812 C 324.15625 315.761719 325.28125 314.792969 326.429688 313.847656 C 327.578125 312.90625 328.746094 311.992188 329.941406 311.109375 C 331.132812 310.222656 332.347656 309.367188 333.582031 308.542969 C 334.816406 307.71875 336.070312 306.925781 337.34375 306.160156 C 338.617188 305.398438 339.910156 304.664062 341.21875 303.964844 C 342.53125 303.265625 343.855469 302.597656 345.199219 301.960938 C 346.542969 301.328125 347.898438 300.726562 349.269531 300.15625 C 350.644531 299.589844 352.027344 299.054688 353.425781 298.554688 C 354.824219 298.054688 356.234375 297.589844 357.65625 297.15625 C 359.078125 296.726562 360.507812 296.332031 361.949219 295.96875 C 363.390625 295.609375 364.839844 295.285156 366.296875 294.992188 C 367.753906 294.703125 369.214844 294.449219 370.683594 294.230469 C 372.152344 294.015625 373.625 293.832031 375.105469 293.6875 C 376.582031 293.542969 378.0625 293.433594 379.546875 293.359375 C 381.03125 293.285156 382.515625 293.25 384 293.25 C 385.484375 293.25 386.96875 293.285156 388.453125 293.359375 C 389.9375 293.433594 391.417969 293.542969 392.894531 293.6875 C 394.371094 293.832031 395.847656 294.015625 397.316406 294.230469 C 398.785156 294.449219 400.246094 294.703125 401.703125 294.992188 C 403.160156 295.285156 404.609375 295.609375 406.050781 295.96875 C 407.492188 296.332031 408.921875 296.726562 410.34375 297.15625 C 411.765625 297.589844 413.175781 298.054688 414.574219 298.554688 C 415.972656 299.054688 417.355469 299.589844 418.726562 300.15625 C 420.101562 300.726562 421.457031 301.328125 422.800781 301.960938 C 424.144531 302.597656 425.46875 303.265625 426.777344 303.964844 C 428.089844 304.664062 429.378906 305.398438 430.65625 306.160156 C 431.929688 306.925781 433.183594 307.71875 434.417969 308.542969 C 435.652344 309.367188 436.867188 310.222656 438.058594 311.109375 C 439.253906 311.992188 440.421875 312.90625 441.570312 313.847656 C 442.71875 314.792969 443.84375 315.761719 444.945312 316.757812 C 446.042969 317.753906 447.121094 318.78125 448.167969 319.828125 C 449.21875 320.878906 450.242188 321.957031 451.242188 323.054688 C 452.238281 324.15625 453.207031 325.28125 454.152344 326.429688 C 455.09375 327.578125 456.007812 328.746094 456.890625 329.941406 C 457.777344 331.132812 458.628906 332.347656 459.457031 333.582031 C 460.28125 334.816406 461.074219 336.070312 461.839844 337.34375 C 462.601562 338.617188 463.335938 339.910156 464.035156 341.21875 C 464.734375 342.53125 465.402344 343.855469 466.035156 345.199219 C 466.671875 346.542969 467.273438 347.898438 467.84375 349.269531 C 468.410156 350.644531 468.945312 352.027344 469.445312 353.425781 C 469.945312 354.824219 470.410156 356.234375 470.84375 357.65625 C 471.273438 359.078125 471.667969 360.507812 472.03125 361.949219 C 472.390625 363.390625 472.714844 364.839844 473.007812 366.296875 C 473.296875 367.75 473.550781 369.214844 473.769531 370.683594 C 473.984375 372.152344 474.167969 373.625 474.3125 375.105469 C 474.457031 376.582031 474.566406 378.0625 474.640625 379.546875 C 474.714844 381.03125 474.75 382.515625 474.75 384 Z M 474.75 384 "/>
</g>
<g clip-path="url(#clip2)" clip-rule="nonzero">
<path style=" stroke:none;fill-rule:nonzero;fill:rgb(6.269836%,5.879211%,5.099487%);fill-opacity:1;" d="M 474.75 111.75 C 474.75 113.234375 474.714844 114.71875 474.640625 116.203125 C 474.566406 117.6875 474.457031 119.167969 474.3125 120.644531 C 474.167969 122.121094 473.984375 123.597656 473.769531 125.066406 C 473.550781 126.535156 473.296875 127.996094 473.007812 129.453125 C 472.714844 130.910156 472.390625 132.359375 472.03125 133.800781 C 471.667969 135.242188 471.273438 136.671875 470.84375 138.09375 C 470.410156 139.515625 469.945312 140.925781 469.445312 142.324219 C 468.945312 143.722656 468.410156 145.105469 467.84375 146.476562 C 467.273438 147.851562 466.671875 149.207031 466.035156 150.550781 C 465.402344 151.894531 464.734375 153.21875 464.035156 154.527344 C 463.335938 155.839844 462.601562 157.128906 461.839844 158.40625 C 461.074219 159.679688 460.28125 160.933594 459.457031 162.167969 C 458.628906 163.402344 457.777344 164.617188 456.890625 165.808594 C 456.007812 167.003906 455.09375 168.171875 454.152344 169.320312 C 453.207031 170.46875 452.238281 171.59375 451.242188 172.695312 C 450.242188 173.792969 449.21875 174.871094 448.167969 175.917969 C 447.121094 176.96875 446.042969 177.992188 444.945312 178.992188 C 443.84375 179.988281 442.71875 180.957031 441.570312 181.902344 C 440.421875 182.84375 439.253906 183.757812 438.058594 184.640625 C 436.867188 185.527344 435.652344 186.378906 434.417969 187.207031 C 433.183594 188.03125 431.929688 188.824219 430.65625 189.589844 C 429.378906 190.351562 428.089844 191.085938 426.777344 191.785156 C 425.46875 192.484375 424.144531 193.152344 422.800781 193.785156 C 421.457031 194.421875 420.101562 195.023438 418.726562 195.59375 C 417.355469 196.160156 415.972656 196.695312 414.574219 197.195312 C 413.175781 197.695312 411.765625 198.160156 410.34375 198.59375 C 408.921875 199.023438 407.492188 199.417969 406.050781 199.78125 C 404.609375 200.140625 403.160156 200.464844 401.703125 200.757812 C 400.246094 201.046875 398.785156 201.300781 397.316406 201.515625 C 395.847656 201.734375 394.371094 201.917969 392.894531 202.0625 C 391.417969 202.207031 389.9375 202.316406 388.453125 202.390625 C 386.96875 202.464844 385.484375 202.5 384 202.5 C 382.515625 202.5 381.03125 202.464844 379.546875 202.390625 C 378.0625 202.316406 376.582031 202.207031 375.105469 202.0625 C 373.625 201.917969 372.152344 201.734375 370.683594 201.515625 C 369.214844 201.300781 367.753906 201.046875 366.296875 200.757812 C 364.839844 200.464844 363.390625 200.140625 361.949219 199.78125 C 360.507812 199.417969 359.078125 199.023438 357.65625 198.59375 C 356.234375 198.160156 354.824219 197.695312 353.425781 197.195312 C 352.027344 196.695312 350.644531 196.160156 349.269531 195.59375 C 347.898438 195.023438 346.542969 194.421875 345.199219 193.785156 C 343.855469 193.152344 342.53125 192.484375 341.21875 191.785156 C 339.910156 191.085938 338.617188 190.351562 337.34375 189.589844 C 336.070312 188.824219 334.816406 188.03125 333.582031 187.207031 C 332.347656 186.378906 331.132812 185.527344 329.941406 184.640625 C 328.746094 183.757812 327.578125 182.84375 326.429688 181.902344 C 325.28125 180.957031 324.15625 179.988281 323.054688 178.992188 C 321.957031 177.992188 320.878906 176.96875 319.828125 175.917969 C 318.78125 174.871094 317.757812 173.792969 316.757812 172.695312 C 315.761719 171.59375 314.792969 170.46875 313.847656 169.320312 C 312.90625 168.171875 311.992188 167.003906 311.109375 165.808594 C 310.222656 164.617188 309.367188 163.402344 308.542969 162.167969 C 307.71875 160.933594 306.925781 159.679688 306.160156 158.40625 C 305.398438 157.128906 304.664062 155.839844 303.964844 154.527344 C 303.265625 153.21875 302.597656 151.894531 301.960938 150.550781 C 301.328125 149.207031 300.726562 147.851562 300.15625 146.476562 C 299.589844 145.105469 299.054688 143.722656 298.554688 142.324219 C 298.054688 140.925781 297.589844 139.515625 297.15625 138.09375 C 296.726562 136.671875 296.332031 135.242188 295.96875 133.800781 C 295.609375 132.359375 295.285156 130.910156 294.992188 129.453125 C 294.703125 127.996094 294.449219 126.535156 294.230469 125.066406 C 294.015625 123.597656 293.832031 122.121094 293.6875 120.644531 C 293.542969 119.167969 293.433594 117.6875 293.359375 116.203125 C 293.285156 114.71875 293.25 113.234375 293.25 111.75 C 293.25 110.265625 293.285156 108.78125 293.359375 107.296875 C 293.433594 105.8125 293.542969 104.332031 293.6875 102.855469 C 293.832031 101.375 294.015625 99.902344 294.230469 98.433594 C 294.449219 96.964844 294.703125 95.503906 294.992188 94.046875 C 295.285156 92.589844 295.609375 91.140625 295.96875 89.699219 C 296.332031 88.257812 296.726562 86.828125 297.15625 85.40625 C 297.589844 83.984375 298.054688 82.574219 298.554688 81.175781 C 299.054688 79.777344 299.589844 78.394531 300.15625 77.019531 C 300.726562 75.648438 301.328125 74.292969 301.960938 72.949219 C 302.597656 71.605469 303.265625 70.28125 303.964844 68.96875 C 304.664062 67.660156 305.398438 66.367188 306.160156 65.09375 C 306.925781 63.820312 307.71875 62.566406 308.542969 61.332031 C 309.367188 60.097656 310.222656 58.882812 311.109375 57.691406 C 311.992188 56.496094 312.90625 55.328125 313.847656 54.179688 C 314.792969 53.03125 315.761719 51.90625 316.757812 50.804688 C 317.757812 49.707031 318.78125 48.628906 319.828125 47.578125 C 320.878906 46.53125 321.957031 45.507812 323.054688 44.507812 C 324.15625 43.511719 325.28125 42.542969 326.429688 41.597656 C 327.578125 40.65625 328.746094 39.742188 329.941406 38.859375 C 331.132812 37.972656 332.347656 37.117188 333.582031 36.292969 C 334.816406 35.46875 336.070312 34.675781 337.34375 33.910156 C 338.617188 33.148438 339.910156 32.414062 341.21875 31.714844 C 342.53125 31.015625 343.855469 30.347656 345.199219 29.710938 C 346.542969 29.078125 347.898438 28.476562 349.269531 27.90625 C 350.644531 27.339844 352.027344 26.804688 353.425781 26.304688 C 354.824219 25.804688 356.234375 25.339844 357.65625 24.90625 C 359.078125 24.476562 360.507812 24.082031 361.949219 23.71875 C 363.390625 23.359375 364.839844 23.035156 366.296875 22.742188 C 367.753906 22.453125 369.214844 22.199219 370.683594 21.980469 C 372.152344 21.765625 373.625 21.582031 375.105469 21.4375 C 376.582031 21.292969 378.0625 21.183594 379.546875 21.109375 C 381.03125 21.035156 382.515625 21 384 21 C 385.484375 21 386.96875 21.035156 388.453125 21.109375 C 389.9375 21.183594 391.417969 21.292969 392.894531 21.4375 C 394.371094 21.582031 395.847656 21.765625 397.316406 21.980469 C 398.785156 22.199219 400.246094 22.453125 401.703125 22.742188 C 403.160156 23.035156 404.609375 23.359375 406.050781 23.71875 C 407.492188 24.082031 408.921875 24.476562 410.34375 24.90625 C 411.765625 25.339844 413.175781 25.804688 414.574219 26.304688 C 415.972656 26.804688 417.355469 27.339844 418.726562 27.90625 C 420.101562 28.476562 421.457031 29.078125 422.800781 29.710938 C 424.144531 30.347656 425.46875 31.015625 426.777344 31.714844 C 428.089844 32.414062 429.378906 33.148438 430.65625 33.910156 C 431.929688 34.675781 433.183594 35.46875 434.417969 36.292969 C 435.652344 37.117188 436.867188 37.972656 438.058594 38.859375 C 439.253906 39.742188 440.421875 40.65625 441.570312 41.597656 C 442.71875 42.542969 443.84375 43.511719 444.945312 44.507812 C 446.042969 45.507812 447.121094 46.53125 448.167969 47.578125 C 449.21875 48.628906 450.242188 49.707031 451.242188 50.804688 C 452.238281 51.90625 453.207031 53.03125 454.152344 54.179688 C 455.09375 55.328125 456.007812 56.496094 456.890625 57.691406 C 457.777344 58.882812 458.628906 60.097656 459.457031 61.332031 C 460.28125 62.566406 461.074219 63.820312 461.839844 65.09375 C 462.601562 66.367188 463.335938 67.660156 464.035156 68.96875 C 464.734375 70.28125 465.402344 71.605469 466.035156 72.949219 C 466.671875 74.292969 467.273438 75.648438 467.84375 77.019531 C 468.410156 78.394531 468.945312 79.777344 469.445312 81.175781 C 469.945312 82.574219 470.410156 83.984375 470.84375 85.40625 C 471.273438 86.828125 471.667969 88.257812 472.03125 89.699219 C 472.390625 91.140625 472.714844 92.589844 473.007812 94.046875 C 473.296875 95.503906 473.550781 96.964844 473.769531 98.433594 C 473.984375 99.902344 474.167969 101.375 474.3125 102.855469 C 474.457031 104.332031 474.566406 105.8125 474.640625 107.296875 C 474.714844 108.78125 474.75 110.265625 474.75 111.75 Z M 474.75 111.75 "/>
</g>
<g clip-path="url(#clip3)" clip-rule="nonzero">
<path style=" stroke:none;fill-rule:nonzero;fill:rgb(6.269836%,5.879211%,5.099487%);fill-opacity:1;" d="M 474.75 656.25 C 474.75 657.734375 474.714844 659.21875 474.640625 660.703125 C 474.566406 662.1875 474.457031 663.667969 474.3125 665.144531 C 474.167969 666.621094 473.984375 668.097656 473.769531 669.566406 C 473.550781 671.035156 473.296875 672.496094 473.007812 673.953125 C 472.714844 675.410156 472.390625 676.859375 472.03125 678.300781 C 471.667969 679.742188 471.273438 681.171875 470.84375 682.59375 C 470.410156 684.015625 469.945312 685.425781 469.445312 686.824219 C 468.945312 688.222656 468.410156 689.605469 467.84375 690.976562 C 467.273438 692.351562 466.671875 693.707031 466.035156 695.050781 C 465.402344 696.394531 464.734375 697.71875 464.035156 699.027344 C 463.335938 700.339844 462.601562 701.628906 461.839844 702.90625 C 461.074219 704.179688 460.28125 705.433594 459.457031 706.667969 C 458.628906 707.902344 457.777344 709.117188 456.890625 710.308594 C 456.007812 711.503906 455.09375 712.671875 454.152344 713.820312 C 453.207031 714.96875 452.238281 716.09375 451.242188 717.195312 C 450.242188 718.292969 449.21875 719.371094 448.167969 720.417969 C 447.121094 721.46875 446.042969 722.492188 444.945312 723.492188 C 443.84375 724.488281 442.71875 725.457031 441.570312 726.402344 C 440.421875 727.34375 439.253906 728.257812 438.058594 729.140625 C 436.867188 730.027344 435.652344 730.878906 434.417969 731.707031 C 433.183594 732.53125 431.929688 733.324219 430.65625 734.089844 C 429.378906 734.851562 428.089844 735.582031 426.777344 736.285156 C 425.46875 736.984375 424.144531 737.652344 422.800781 738.285156 C 421.457031 738.921875 420.101562 739.523438 418.726562 740.089844 C 417.355469 740.660156 415.972656 741.195312 414.574219 741.695312 C 413.175781 742.195312 411.765625 742.660156 410.34375 743.09375 C 408.921875 743.523438 407.492188 743.917969 406.050781 744.28125 C 404.609375 744.640625 403.160156 744.964844 401.703125 745.257812 C 400.246094 745.546875 398.785156 745.800781 397.316406 746.015625 C 395.847656 746.234375 394.371094 746.417969 392.894531 746.5625 C 391.417969 746.707031 389.9375 746.816406 388.453125 746.890625 C 386.96875 746.964844 385.484375 747 384 747 C 382.515625 747 381.03125 746.964844 379.546875 746.890625 C 378.0625 746.816406 376.582031 746.707031 375.105469 746.5625 C 373.625 746.417969 372.152344 746.234375 370.683594 746.015625 C 369.214844 745.800781 367.753906 745.546875 366.296875 745.257812 C 364.839844 744.964844 363.390625 744.640625 361.949219 744.28125 C 360.507812 743.917969 359.078125 743.523438 357.65625 743.09375 C 356.234375 742.660156 354.824219 742.195312 353.425781 741.695312 C 352.027344 741.195312 350.644531 740.660156 349.269531 740.089844 C 347.898438 739.523438 346.542969 738.921875 345.199219 738.285156 C 343.855469 737.652344 342.53125 736.984375 341.21875 736.285156 C 339.910156 735.582031 338.617188 734.851562 337.34375 734.089844 C 336.070312 733.324219 334.816406 732.53125 333.582031 731.707031 C 332.347656 730.878906 331.132812 730.027344 329.941406 729.140625 C 328.746094 728.257812 327.578125 727.34375 326.429688 726.402344 C 325.28125 725.457031 324.15625 724.488281 323.054688 723.492188 C 321.957031 722.492188 320.878906 721.46875 319.828125 720.417969 C 318.78125 719.371094 317.757812 718.292969 316.757812 717.195312 C 315.761719 716.09375 314.792969 714.96875 313.847656 713.820312 C 312.90625 712.671875 311.992188 711.503906 311.109375 710.308594 C 310.222656 709.117188 309.367188 707.902344 308.542969 706.667969 C 307.71875 705.433594 306.925781 704.179688 306.160156 702.90625 C 305.398438 701.628906 304.664062 700.339844 303.964844 699.027344 C 303.265625 697.71875 302.597656 696.394531 301.960938 695.050781 C 301.328125 693.707031 300.726562 692.351562 300.15625 690.976562 C 299.589844 689.605469 299.054688 688.222656 298.554688 686.824219 C 298.054688 685.425781 297.589844 684.015625 297.15625 682.59375 C 296.726562 681.171875 296.332031 679.742188 295.96875 678.300781 C 295.609375 676.859375 295.285156 675.410156 294.992188 673.953125 C 294.703125 672.496094 294.449219 671.035156 294.230469 669.566406 C 294.015625 668.097656 293.832031 666.621094 293.6875 665.144531 C 293.542969 663.667969 293.433594 662.1875 293.359375 660.703125 C 293.285156 659.21875 293.25 657.734375 293.25 656.25 C 293.25 654.765625 293.285156 653.28125 293.359375 651.796875 C 293.433594 650.3125 293.542969 648.832031 293.6875 647.355469 C 293.832031 645.875 294.015625 644.402344 294.230469 642.933594 C 294.449219 641.464844 294.703125 640 294.992188 638.546875 C 295.285156 637.089844 295.609375 635.640625 295.96875 634.199219 C 296.332031 632.757812 296.726562 631.328125 297.15625 629.90625 C 297.589844 628.484375 298.054688 627.074219 298.554688 625.675781 C 299.054688 624.277344 299.589844 622.894531 300.15625 621.519531 C 300.726562 620.148438 301.328125 618.792969 301.960938 617.449219 C 302.597656 616.105469 303.265625 614.78125 303.964844 613.46875 C 304.664062 612.160156 305.398438 610.867188 306.160156 609.59375 C 306.925781 608.320312 307.71875 607.066406 308.542969 605.832031 C 309.367188 604.597656 310.222656 603.382812 311.109375 602.191406 C 311.992188 600.996094 312.90625 599.828125 313.847656 598.679688 C 314.792969 597.53125 315.761719 596.40625 316.757812 595.304688 C 317.757812 594.207031 318.78125 593.128906 319.828125 592.078125 C 320.878906 591.03125 321.957031 590.003906 323.054688 589.007812 C 324.15625 588.011719 325.28125 587.042969 326.429688 586.097656 C 327.578125 585.15625 328.746094 584.242188 329.941406 583.359375 C 331.132812 582.472656 332.347656 581.617188 333.582031 580.792969 C 334.816406 579.96875 336.070312 579.175781 337.34375 578.410156 C 338.617188 577.648438 339.910156 576.914062 341.21875 576.214844 C 342.53125 575.515625 343.855469 574.847656 345.199219 574.210938 C 346.542969 573.578125 347.898438 572.976562 349.269531 572.40625 C 350.644531 571.839844 352.027344 571.304688 353.425781 570.804688 C 354.824219 570.304688 356.234375 569.839844 357.65625 569.40625 C 359.078125 568.976562 360.507812 568.582031 361.949219 568.21875 C 363.390625 567.859375 364.839844 567.535156 366.296875 567.242188 C 367.753906 566.953125 369.214844 566.699219 370.683594 566.480469 C 372.152344 566.265625 373.625 566.082031 375.105469 565.9375 C 376.582031 565.792969 378.0625 565.683594 379.546875 565.609375 C 381.03125 565.535156 382.515625 565.5 384 565.5 C 385.484375 565.5 386.96875 565.535156 388.453125 565.609375 C 389.9375 565.683594 391.417969 565.792969 392.894531 565.9375 C 394.371094 566.082031 395.847656 566.265625 397.316406 566.480469 C 398.785156 566.699219 400.246094 566.953125 401.703125 567.242188 C 403.160156 567.535156 404.609375 567.859375 406.050781 568.21875 C 407.492188 568.582031 408.921875 568.976562 410.34375 569.40625 C 411.765625 569.839844 413.175781 570.304688 414.574219 570.804688 C 415.972656 571.304688 417.355469 571.839844 418.726562 572.40625 C 420.101562 572.976562 421.457031 573.578125 422.800781 574.210938 C 424.144531 574.847656 425.46875 575.515625 426.777344 576.214844 C 428.089844 576.914062 429.378906 577.648438 430.65625 578.410156 C 431.929688 579.175781 433.183594 579.96875 434.417969 580.792969 C 435.652344 581.617188 436.867188 582.472656 438.058594 583.359375 C 439.253906 584.242188 440.421875 585.15625 441.570312 586.097656 C 442.71875 587.042969 443.84375 588.011719 444.945312 589.007812 C 446.042969 590.003906 447.121094 591.03125 448.167969 592.078125 C 449.21875 593.128906 450.242188 594.207031 451.242188 595.304688 C 452.238281 596.40625 453.207031 597.53125 454.152344 598.679688 C 455.09375 599.828125 456.007812 600.996094 456.890625 602.191406 C 457.777344 603.382812 458.628906 604.597656 459.457031 605.832031 C 460.28125 607.066406 461.074219 608.320312 461.839844 609.59375 C 462.601562 610.867188 463.335938 612.160156 464.035156 613.46875 C 464.734375 614.78125 465.402344 616.105469 466.035156 617.449219 C 466.671875 618.792969 467.273438 620.148438 467.84375 621.519531 C 468.410156 622.894531 468.945312 624.277344 469.445312 625.675781 C 469.945312 627.074219 470.410156 628.484375 470.84375 629.90625 C 471.273438 631.328125 471.667969 632.757812 472.03125 634.199219 C 472.390625 635.640625 472.714844 637.089844 473.007812 638.546875 C 473.296875 640 473.550781 641.464844 473.769531 642.933594 C 473.984375 644.402344 474.167969 645.875 474.3125 647.355469 C 474.457031 648.832031 474.566406 650.3125 474.640625 651.796875 C 474.714844 653.28125 474.75 654.765625 474.75 656.25 Z M 474.75 656.25 "/>
</g>
</g>
</svg>
