<?xml version="1.0" encoding="UTF-8"?><svg xmlns="http://www.w3.org/2000/svg" xmlns:xlink="http://www.w3.org/1999/xlink" contentScriptType="text/ecmascript" width="768pt" zoomAndPan="magnify" contentStyleType="text/css" viewBox="0 0 768 767.999994" height="767.999994pt" preserveAspectRatio="xMidYMid meet" version="1.2"><defs><clipPath xml:id="clip1" id="clip1"><path d="M 22 129 L 748.746094 129 L 748.746094 638 L 22 638 Z M 22 129 "/></clipPath></defs><g xml:id="surface1" id="surface1"><g clip-rule="nonzero" clip-path="url(#clip1)"><path style=" stroke:none;fill-rule:nonzero;fill:rgb(0%,0%,0%);fill-opacity:1;" d="M 59.011719 129.824219 C 57.8125 129.808594 56.613281 129.847656 55.417969 129.953125 C 54.222656 130.054688 53.035156 130.214844 51.855469 130.433594 C 50.675781 130.652344 49.511719 130.929688 48.359375 131.265625 C 47.207031 131.597656 46.074219 131.992188 44.960938 132.4375 C 43.847656 132.886719 42.757812 133.386719 41.695312 133.941406 C 40.632812 134.496094 39.597656 135.101562 38.59375 135.761719 C 37.59375 136.417969 36.625 137.125 35.691406 137.875 C 34.757812 138.628906 33.863281 139.429688 33.007812 140.269531 C 32.152344 141.113281 31.34375 141.996094 30.578125 142.917969 C 29.808594 143.839844 29.089844 144.796875 28.417969 145.792969 C 27.746094 146.785156 27.125 147.808594 26.554688 148.863281 C 25.984375 149.921875 25.46875 151 25.003906 152.109375 C 24.542969 153.214844 24.136719 154.339844 23.785156 155.488281 C 23.433594 156.632812 23.140625 157.796875 22.902344 158.972656 C 22.667969 160.148438 22.488281 161.332031 22.371094 162.527344 C 22.253906 163.71875 22.191406 164.917969 22.191406 166.117188 C 22.191406 167.316406 22.253906 168.511719 22.371094 169.707031 C 22.488281 170.898438 22.667969 172.082031 22.902344 173.257812 C 23.140625 174.433594 23.433594 175.597656 23.785156 176.742188 C 24.136719 177.890625 24.542969 179.015625 25.003906 180.125 C 25.46875 181.230469 25.984375 182.3125 26.554688 183.367188 C 27.125 184.421875 27.746094 185.445312 28.417969 186.441406 C 29.089844 187.433594 29.808594 188.390625 30.578125 189.3125 C 31.34375 190.238281 32.152344 191.117188 33.007812 191.960938 C 33.863281 192.804688 34.757812 193.601562 35.691406 194.355469 C 36.625 195.109375 37.59375 195.8125 38.59375 196.472656 C 39.597656 197.128906 40.632812 197.734375 41.695312 198.289062 C 42.757812 198.84375 43.847656 199.347656 44.960938 199.792969 C 46.074219 200.242188 47.207031 200.632812 48.359375 200.96875 C 49.511719 201.300781 50.675781 201.578125 51.855469 201.796875 C 53.035156 202.019531 54.222656 202.179688 55.417969 202.28125 C 56.613281 202.382812 57.8125 202.425781 59.011719 202.40625 L 712.445312 202.40625 C 713.644531 202.425781 714.84375 202.382812 716.039062 202.28125 C 717.234375 202.179688 718.421875 202.019531 719.601562 201.796875 C 720.78125 201.578125 721.945312 201.300781 723.097656 200.96875 C 724.25 200.632812 725.382812 200.242188 726.496094 199.792969 C 727.609375 199.347656 728.699219 198.84375 729.761719 198.289062 C 730.824219 197.734375 731.859375 197.128906 732.863281 196.472656 C 733.863281 195.8125 734.832031 195.109375 735.765625 194.355469 C 736.699219 193.601562 737.59375 192.804688 738.449219 191.960938 C 739.304688 191.117188 740.113281 190.238281 740.878906 189.3125 C 741.648438 188.390625 742.367188 187.433594 743.039062 186.441406 C 743.710938 185.445312 744.332031 184.421875 744.902344 183.367188 C 745.472656 182.3125 745.988281 181.230469 746.449219 180.125 C 746.914062 179.015625 747.320312 177.890625 747.671875 176.742188 C 748.023438 175.597656 748.316406 174.433594 748.554688 173.257812 C 748.789062 172.082031 748.96875 170.898438 749.085938 169.707031 C 749.203125 168.511719 749.265625 167.316406 749.265625 166.117188 C 749.265625 164.917969 749.203125 163.71875 749.085938 162.527344 C 748.96875 161.332031 748.789062 160.148438 748.554688 158.972656 C 748.316406 157.796875 748.023438 156.632812 747.671875 155.488281 C 747.320312 154.339844 746.914062 153.214844 746.453125 152.109375 C 745.988281 151 745.472656 149.921875 744.902344 148.863281 C 744.332031 147.808594 743.710938 146.785156 743.039062 145.792969 C 742.367188 144.796875 741.648438 143.839844 740.878906 142.917969 C 740.113281 141.996094 739.304688 141.113281 738.449219 140.269531 C 737.59375 139.429688 736.699219 138.628906 735.765625 137.875 C 734.832031 137.125 733.863281 136.417969 732.863281 135.761719 C 731.859375 135.101562 730.824219 134.496094 729.761719 133.941406 C 728.699219 133.386719 727.609375 132.886719 726.496094 132.4375 C 725.382812 131.992188 724.25 131.597656 723.097656 131.265625 C 721.945312 130.929688 720.78125 130.652344 719.601562 130.433594 C 718.421875 130.214844 717.234375 130.054688 716.039062 129.953125 C 714.84375 129.847656 713.644531 129.808594 712.445312 129.824219 Z M 59.011719 347.574219 C 57.8125 347.558594 56.613281 347.601562 55.417969 347.703125 C 54.222656 347.804688 53.035156 347.964844 51.855469 348.183594 C 50.675781 348.402344 49.511719 348.679688 48.359375 349.015625 C 47.207031 349.351562 46.074219 349.742188 44.960938 350.1875 C 43.847656 350.636719 42.757812 351.136719 41.695312 351.691406 C 40.632812 352.246094 39.597656 352.851562 38.597656 353.511719 C 37.59375 354.167969 36.625 354.875 35.691406 355.628906 C 34.757812 356.382812 33.863281 357.179688 33.007812 358.019531 C 32.15625 358.863281 31.34375 359.746094 30.578125 360.667969 C 29.808594 361.589844 29.089844 362.546875 28.417969 363.542969 C 27.746094 364.535156 27.125 365.558594 26.554688 366.617188 C 25.984375 367.671875 25.46875 368.75 25.007812 369.859375 C 24.542969 370.964844 24.136719 372.089844 23.785156 373.238281 C 23.433594 374.386719 23.140625 375.546875 22.902344 376.722656 C 22.667969 377.898438 22.488281 379.082031 22.371094 380.277344 C 22.253906 381.46875 22.195312 382.667969 22.195312 383.867188 C 22.195312 385.066406 22.253906 386.261719 22.371094 387.457031 C 22.488281 388.648438 22.667969 389.832031 22.902344 391.011719 C 23.140625 392.1875 23.433594 393.347656 23.785156 394.492188 C 24.136719 395.640625 24.542969 396.765625 25.007812 397.875 C 25.46875 398.980469 25.984375 400.0625 26.554688 401.117188 C 27.125 402.171875 27.746094 403.195312 28.417969 404.191406 C 29.089844 405.183594 29.808594 406.140625 30.578125 407.066406 C 31.34375 407.988281 32.15625 408.871094 33.007812 409.710938 C 33.863281 410.554688 34.757812 411.351562 35.691406 412.105469 C 36.625 412.859375 37.59375 413.5625 38.597656 414.222656 C 39.597656 414.878906 40.632812 415.484375 41.695312 416.039062 C 42.761719 416.59375 43.847656 417.097656 44.960938 417.542969 C 46.074219 417.992188 47.207031 418.382812 48.359375 418.71875 C 49.511719 419.050781 50.675781 419.328125 51.855469 419.546875 C 53.035156 419.769531 54.222656 419.929688 55.417969 420.03125 C 56.613281 420.132812 57.8125 420.175781 59.011719 420.15625 L 712.445312 420.15625 C 713.644531 420.175781 714.84375 420.132812 716.039062 420.03125 C 717.234375 419.929688 718.421875 419.769531 719.601562 419.546875 C 720.78125 419.328125 721.945312 419.050781 723.097656 418.71875 C 724.25 418.382812 725.382812 417.992188 726.496094 417.542969 C 727.609375 417.097656 728.695312 416.59375 729.761719 416.039062 C 730.824219 415.484375 731.859375 414.878906 732.859375 414.222656 C 733.863281 413.5625 734.832031 412.859375 735.765625 412.105469 C 736.699219 411.351562 737.59375 410.554688 738.449219 409.710938 C 739.300781 408.871094 740.113281 407.988281 740.878906 407.066406 C 741.648438 406.140625 742.367188 405.183594 743.039062 404.191406 C 743.710938 403.195312 744.332031 402.171875 744.902344 401.117188 C 745.472656 400.0625 745.988281 398.980469 746.449219 397.875 C 746.914062 396.765625 747.320312 395.640625 747.671875 394.492188 C 748.023438 393.347656 748.316406 392.1875 748.554688 391.011719 C 748.789062 389.832031 748.96875 388.648438 749.085938 387.457031 C 749.203125 386.261719 749.261719 385.066406 749.261719 383.867188 C 749.261719 382.667969 749.203125 381.46875 749.085938 380.277344 C 748.96875 379.082031 748.789062 377.898438 748.554688 376.722656 C 748.316406 375.546875 748.023438 374.386719 747.671875 373.238281 C 747.320312 372.089844 746.914062 370.964844 746.449219 369.859375 C 745.988281 368.75 745.472656 367.671875 744.902344 366.617188 C 744.332031 365.558594 743.710938 364.535156 743.039062 363.542969 C 742.367188 362.546875 741.648438 361.589844 740.878906 360.667969 C 740.113281 359.746094 739.300781 358.863281 738.449219 358.019531 C 737.59375 357.179688 736.699219 356.382812 735.765625 355.628906 C 734.832031 354.875 733.863281 354.167969 732.859375 353.511719 C 731.859375 352.851562 730.824219 352.246094 729.761719 351.691406 C 728.695312 351.136719 727.609375 350.636719 726.496094 350.1875 C 725.382812 349.742188 724.25 349.351562 723.097656 349.015625 C 721.945312 348.679688 720.78125 348.402344 719.601562 348.183594 C 718.421875 347.964844 717.234375 347.804688 716.039062 347.703125 C 714.84375 347.601562 713.644531 347.558594 712.445312 347.574219 Z M 59.011719 565.324219 C 57.8125 565.308594 56.613281 565.351562 55.417969 565.453125 C 54.222656 565.554688 53.035156 565.714844 51.855469 565.933594 C 50.675781 566.152344 49.511719 566.429688 48.359375 566.765625 C 47.207031 567.101562 46.074219 567.492188 44.960938 567.9375 C 43.847656 568.386719 42.757812 568.886719 41.695312 569.441406 C 40.632812 569.996094 39.597656 570.601562 38.59375 571.261719 C 37.59375 571.917969 36.625 572.625 35.691406 573.378906 C 34.757812 574.132812 33.863281 574.929688 33.007812 575.769531 C 32.152344 576.613281 31.34375 577.496094 30.578125 578.417969 C 29.808594 579.339844 29.089844 580.296875 28.417969 581.292969 C 27.746094 582.285156 27.125 583.308594 26.554688 584.367188 C 25.984375 585.421875 25.46875 586.5 25.003906 587.609375 C 24.542969 588.714844 24.136719 589.839844 23.785156 590.988281 C 23.433594 592.136719 23.136719 593.296875 22.902344 594.472656 C 22.667969 595.648438 22.488281 596.832031 22.371094 598.027344 C 22.25 599.21875 22.191406 600.417969 22.191406 601.617188 C 22.191406 602.816406 22.25 604.011719 22.371094 605.207031 C 22.488281 606.398438 22.667969 607.585938 22.902344 608.761719 C 23.136719 609.9375 23.433594 611.097656 23.785156 612.246094 C 24.136719 613.390625 24.542969 614.519531 25.003906 615.625 C 25.46875 616.730469 25.984375 617.8125 26.554688 618.867188 C 27.125 619.921875 27.746094 620.949219 28.417969 621.941406 C 29.089844 622.933594 29.808594 623.894531 30.578125 624.816406 C 31.34375 625.738281 32.152344 626.621094 33.007812 627.460938 C 33.863281 628.304688 34.757812 629.101562 35.691406 629.855469 C 36.625 630.609375 37.59375 631.316406 38.59375 631.972656 C 39.597656 632.628906 40.632812 633.234375 41.695312 633.792969 C 42.757812 634.347656 43.847656 634.847656 44.960938 635.292969 C 46.074219 635.742188 47.207031 636.132812 48.359375 636.46875 C 49.511719 636.804688 50.675781 637.078125 51.855469 637.300781 C 53.035156 637.519531 54.222656 637.679688 55.417969 637.78125 C 56.613281 637.882812 57.8125 637.925781 59.011719 637.910156 L 712.445312 637.910156 C 713.644531 637.925781 714.84375 637.882812 716.039062 637.78125 C 717.234375 637.679688 718.421875 637.519531 719.601562 637.300781 C 720.78125 637.078125 721.945312 636.804688 723.097656 636.46875 C 724.25 636.132812 725.382812 635.742188 726.496094 635.292969 C 727.609375 634.847656 728.699219 634.347656 729.761719 633.792969 C 730.824219 633.234375 731.859375 632.628906 732.863281 631.972656 C 733.863281 631.316406 734.832031 630.609375 735.765625 629.855469 C 736.699219 629.101562 737.59375 628.304688 738.449219 627.460938 C 739.304688 626.621094 740.113281 625.738281 740.878906 624.816406 C 741.648438 623.894531 742.367188 622.933594 743.039062 621.941406 C 743.710938 620.949219 744.332031 619.921875 744.902344 618.867188 C 745.472656 617.8125 745.988281 616.730469 746.453125 615.625 C 746.914062 614.519531 747.320312 613.390625 747.671875 612.246094 C 748.023438 611.097656 748.316406 609.9375 748.554688 608.761719 C 748.789062 607.585938 748.96875 606.398438 749.085938 605.207031 C 749.207031 604.011719 749.265625 602.816406 749.265625 601.617188 C 749.265625 600.417969 749.207031 599.21875 749.085938 598.027344 C 748.96875 596.832031 748.789062 595.648438 748.554688 594.472656 C 748.316406 593.296875 748.023438 592.136719 747.671875 590.988281 C 747.320312 589.839844 746.914062 588.714844 746.453125 587.609375 C 745.988281 586.5 745.472656 585.421875 744.902344 584.367188 C 744.332031 583.308594 743.710938 582.285156 743.039062 581.292969 C 742.367188 580.296875 741.648438 579.339844 740.878906 578.417969 C 740.113281 577.496094 739.304688 576.613281 738.449219 575.769531 C 737.59375 574.929688 736.699219 574.132812 735.765625 573.378906 C 734.832031 572.625 733.863281 571.917969 732.863281 571.261719 C 731.859375 570.601562 730.824219 569.996094 729.761719 569.441406 C 728.699219 568.886719 727.609375 568.386719 726.496094 567.9375 C 725.382812 567.492188 724.25 567.101562 723.097656 566.765625 C 721.945312 566.429688 720.78125 566.152344 719.601562 565.933594 C 718.421875 565.714844 717.234375 565.554688 716.039062 565.453125 C 714.84375 565.351562 713.644531 565.308594 712.445312 565.324219 Z M 59.011719 565.324219 "/></g></g></svg>