<!-- Generator: Adobe Illustrator 25.0.1, SVG Export Plug-In  -->
<svg version="1.1" xmlns="http://www.w3.org/2000/svg" xmlns:xlink="http://www.w3.org/1999/xlink" x="0px" y="0px"
	 width="225.01px" height="186.58px" viewBox="0 0 225.01 186.58"
	 style="overflow:visible;enable-background:new 0 0 225.01 186.58;" xml:space="preserve">
<style type="text/css">
	.st0{fill:#44476A;}
</style>
<defs>
</defs>
<g>
	<path class="st0" d="M0,172.69C0,123.06,0,73.43,0,23.8c2.89-7.34,7.45-13.75,15.74-14.15c14.89-0.72,29.83-0.2,45.12-0.2
		c0,1.66-0.03,2.93,0.01,4.2C61.47,32.8,74.86,46.1,94.1,46.41c9.92,0.16,19.85,0.22,29.76-0.11c13.57-0.45,25.27-9.41,29.09-22.37
		c1.34-4.53,1.48-9.42,2.25-14.69c15.26,0,30.77,0.42,46.24-0.14c11.6-0.41,19.43,3.88,23.57,14.69c0,49.63,0,99.26,0,148.89
		c-4.81,10.75-13.21,13.97-24.78,13.89c-58.48-0.4-116.96-0.39-175.44,0C13.22,186.65,4.77,183.51,0,172.69z M65.17,149.17
		c8.62,0,17.24,0.08,25.85-0.02c7.78-0.09,12.2-5.21,11.15-12.68c-0.8-5.67-4.35-9.43-9.06-12.1c-4.54-2.57-9.46-4.49-13.96-7.11
		c-5.98-3.48-6.65-8.06-2.36-13.5c1.04-1.31,2.34-2.42,3.42-3.7c9.09-10.86,4.57-29.36-8.22-33.75c-8.76-3-18.06-0.06-22.84,7.22
		c-5.68,8.65-4.92,19.9,1.86,27.47c8.24,9.21,7.13,13.44-4.24,18.64c-5.04,2.3-10.01,5.12-14.3,8.58
		c-4.17,3.37-5.58,8.31-3.41,13.66c2.16,5.35,6.27,7.45,11.96,7.33C49.06,149.05,57.11,149.17,65.17,149.17z M163.82,97.78
		c11.81,0,23.61,0.07,35.42-0.07c1.93-0.02,5.38-0.67,5.51-1.46c0.78-4.66,1.37-9.54,0.69-14.15c-0.19-1.31-4.83-2.77-7.45-2.8
		c-21.74-0.22-43.48-0.13-65.22-0.13c-11,0-11.07,0.23-11.06,11.37c0,5.15,1.77,7.44,7.25,7.32
		C140.57,97.59,152.2,97.78,163.82,97.78z M159.18,135.14c8.61,0,17.22,0,25.83,0c12.19,0,12.37-0.3,11.92-12.62
		c-0.16-4.27-1.98-5.97-6.2-5.95c-20.97,0.08-41.93,0.09-62.9-0.01c-4.4-0.02-6.09,2.06-6.04,6.13c0.02,1.68-0.02,3.35,0,5.03
		c0.1,6.38,1.06,7.36,7.62,7.4C139.33,135.18,149.26,135.14,159.18,135.14z"/>
	<path class="st0" d="M107.97,0.09c5.06,0,10.13-0.23,15.17,0.05c7.28,0.41,12.46,5.88,12.84,13.08
		c0.36,6.89-4.02,13.59-10.96,14.03c-11.53,0.74-23.19,0.76-34.71-0.08c-7.13-0.52-11.11-7.32-10.47-14.83
		c0.57-6.72,5.51-11.59,12.4-12.24c0.37-0.03,0.75-0.07,1.12-0.07c4.87,0,9.74,0,14.61,0C107.97,0.05,107.97,0.07,107.97,0.09z"/>
</g>
</svg>
