<!-- Generator: Adobe Illustrator 25.0.1, SVG Export Plug-In . SVG Version: 6.00 Build 0)  -->
<svg version="1.1" id="Layer_1" xmlns="http://www.w3.org/2000/svg" xmlns:xlink="http://www.w3.org/1999/xlink" x="0px" y="0px"
	 viewBox="0 0 612 792" style="enable-background:new 0 0 612 792;" xml:space="preserve">
<g>
	<path d="M353.51,260.59c-15.39,59.99,38.22,118.57,104.39,103.59c1.32,8.66,3.22,17.22,3.83,25.87
		c4.58,64.22-32.78,123.67-92.7,146.43c-40.57,15.41-80.58,12.72-119.28-7.04c-2.9-1.48-5.28-1.78-8.41-0.72
		c-22.18,7.53-44.4,14.91-66.68,22.13c-2.25,0.73-5.91,0.97-7.19-0.29c-1.27-1.25-1.01-4.93-0.29-7.18
		c7.22-22.29,14.75-44.48,21.93-66.79c0.75-2.35,0.63-5.68-0.48-7.82c-45.12-86.59,5.35-191.88,101.14-210.4
		C311.08,254.25,332.41,254.95,353.51,260.59z"/>
	<path d="M436.53,349.94c-37.68,0.13-68.31-30.62-68.45-68.73c-0.14-36.83,30.78-68,67.58-68.12c38.05-0.13,69.14,30.41,69.25,67.99
		C505.01,318.94,474.36,349.81,436.53,349.94z M427.97,268.58c0,7.31-0.01,14.63,0,21.94c0.01,7.27,0.65,7.89,8.03,7.91
		c1.16,0,2.33-0.02,3.49-0.01c3.68,0.05,5.54-1.7,5.53-5.44c-0.02-16.13-0.01-32.25-0.01-48.38c0-3.88-1.82-5.87-5.83-5.67
		c-1.66,0.08-3.33,0.1-4.99,0c-4.47-0.29-6.35,1.75-6.26,6.21C428.07,252.95,427.97,260.77,427.97,268.58z M444.96,315.66
		c0-4.55-4.17-8.56-8.75-8.43c-4.41,0.13-8.22,4.06-8.18,8.44c0.03,4.45,3.75,8.25,8.2,8.38
		C440.81,324.18,444.96,320.19,444.96,315.66z"/>
</g>
</svg>
