<?xml version="1.0" encoding="UTF-8"?><svg xmlns="http://www.w3.org/2000/svg" xmlns:xlink="http://www.w3.org/1999/xlink" contentScriptType="text/ecmascript" width="768pt" zoomAndPan="magnify" contentStyleType="text/css" viewBox="0 0 768 767.999994" height="767.999994pt" preserveAspectRatio="xMidYMid meet" version="1.2"><defs><clipPath xml:id="clip1" id="clip1"><path d="M 164 62.078125 L 602 62.078125 L 602 703 L 164 703 Z M 164 62.078125 "/></clipPath></defs><g xml:id="surface1" id="surface1"><g clip-rule="nonzero" clip-path="url(#clip1)"><path style=" stroke:none;fill-rule:nonzero;fill:rgb(0%,0%,0%);fill-opacity:1;" d="M 253.25 149.082031 L 321.3125 81.472656 L 321.3125 179.949219 C 321.296875 181.171875 321.226562 182.394531 321.09375 183.609375 C 320.960938 184.828125 320.769531 186.035156 320.515625 187.234375 C 320.265625 188.433594 319.957031 189.613281 319.59375 190.785156 C 319.226562 191.953125 318.804688 193.097656 318.328125 194.226562 C 317.847656 195.355469 317.316406 196.453125 316.730469 197.53125 C 316.144531 198.605469 315.507812 199.648438 314.820312 200.664062 C 314.132812 201.675781 313.398438 202.65625 312.617188 203.597656 C 311.832031 204.539062 311.003906 205.441406 310.136719 206.300781 C 309.265625 207.164062 308.351562 207.980469 307.402344 208.753906 C 306.453125 209.527344 305.464844 210.25 304.445312 210.929688 C 303.421875 211.605469 302.371094 212.230469 301.289062 212.804688 C 300.207031 213.378906 299.097656 213.902344 297.964844 214.367188 C 296.832031 214.832031 295.679688 215.246094 294.503906 215.597656 C 293.332031 215.953125 292.144531 216.25 290.941406 216.488281 C 289.738281 216.726562 288.527344 216.90625 287.308594 217.027344 C 286.089844 217.148438 284.867188 217.210938 283.640625 217.214844 L 185.191406 217.214844 Z M 601.519531 665.617188 C 601.527344 666.832031 601.476562 668.046875 601.363281 669.257812 C 601.25 670.46875 601.078125 671.671875 600.847656 672.867188 C 600.617188 674.0625 600.328125 675.242188 599.980469 676.410156 C 599.628906 677.574219 599.226562 678.722656 598.761719 679.847656 C 598.300781 680.972656 597.785156 682.074219 597.214844 683.148438 C 596.640625 684.222656 596.019531 685.265625 595.34375 686.28125 C 594.667969 687.292969 593.945312 688.269531 593.175781 689.210938 C 592.402344 690.15625 591.585938 691.054688 590.722656 691.917969 C 589.863281 692.777344 588.960938 693.59375 588.019531 694.363281 C 587.078125 695.136719 586.097656 695.859375 585.085938 696.535156 C 584.070312 697.210938 583.027344 697.832031 581.949219 698.402344 C 580.875 698.976562 579.773438 699.492188 578.644531 699.953125 C 577.519531 700.417969 576.371094 700.824219 575.203125 701.171875 C 574.035156 701.519531 572.855469 701.8125 571.660156 702.042969 C 570.460938 702.277344 569.257812 702.449219 568.042969 702.5625 C 566.832031 702.671875 565.617188 702.726562 564.398438 702.71875 L 202.277344 702.71875 C 201.054688 702.726562 199.832031 702.675781 198.613281 702.5625 C 197.394531 702.453125 196.183594 702.28125 194.984375 702.050781 C 193.78125 701.820312 192.59375 701.53125 191.421875 701.183594 C 190.246094 700.835938 189.09375 700.433594 187.960938 699.972656 C 186.828125 699.511719 185.71875 698.996094 184.636719 698.425781 C 183.554688 697.855469 182.5 697.234375 181.480469 696.5625 C 180.460938 695.886719 179.472656 695.167969 178.523438 694.394531 C 177.574219 693.625 176.664062 692.8125 175.792969 691.949219 C 174.921875 691.089844 174.097656 690.191406 173.316406 689.25 C 172.535156 688.308594 171.800781 687.332031 171.117188 686.320312 C 170.433594 685.308594 169.800781 684.261719 169.21875 683.1875 C 168.636719 682.113281 168.109375 681.011719 167.636719 679.882812 C 167.164062 678.757812 166.746094 677.609375 166.386719 676.441406 C 166.027344 675.273438 165.722656 674.089844 165.480469 672.894531 C 165.238281 671.695312 165.054688 670.488281 164.929688 669.273438 C 164.804688 668.058594 164.738281 666.839844 164.734375 665.617188 L 164.734375 246.105469 L 283.640625 246.105469 C 284.726562 246.109375 285.8125 246.085938 286.898438 246.035156 C 287.980469 245.984375 289.0625 245.90625 290.144531 245.800781 C 291.226562 245.695312 292.304688 245.566406 293.378906 245.410156 C 294.453125 245.25 295.523438 245.066406 296.589844 244.859375 C 297.652344 244.648438 298.714844 244.414062 299.765625 244.152344 C 300.820312 243.890625 301.867188 243.601562 302.90625 243.289062 C 303.949219 242.976562 304.980469 242.636719 306 242.273438 C 307.023438 241.910156 308.039062 241.523438 309.042969 241.109375 C 310.046875 240.695312 311.039062 240.257812 312.023438 239.796875 C 313.003906 239.335938 313.976562 238.847656 314.933594 238.339844 C 315.890625 237.828125 316.835938 237.296875 317.769531 236.742188 C 318.703125 236.183594 319.621094 235.605469 320.523438 235.003906 C 321.429688 234.402344 322.316406 233.78125 323.191406 233.136719 C 324.0625 232.492188 324.921875 231.828125 325.761719 231.140625 C 326.601562 230.453125 327.425781 229.746094 328.230469 229.019531 C 329.035156 228.292969 329.824219 227.546875 330.59375 226.78125 C 331.359375 226.015625 332.109375 225.230469 332.839844 224.425781 C 333.570312 223.625 334.28125 222.804688 334.972656 221.96875 C 335.664062 221.128906 336.332031 220.277344 336.980469 219.40625 C 337.628906 218.535156 338.253906 217.652344 338.859375 216.75 C 339.464844 215.847656 340.046875 214.933594 340.605469 214.003906 C 341.164062 213.074219 341.699219 212.132812 342.214844 211.175781 C 342.726562 210.222656 343.214844 209.253906 343.679688 208.273438 C 344.148438 207.292969 344.589844 206.304688 345.003906 205.300781 C 345.421875 204.300781 345.8125 203.289062 346.179688 202.269531 C 346.546875 201.246094 346.890625 200.21875 347.207031 199.179688 C 347.523438 198.144531 347.8125 197.097656 348.078125 196.046875 C 348.34375 194.996094 348.582031 193.9375 348.796875 192.875 C 349.007812 191.8125 349.195312 190.742188 349.355469 189.671875 C 349.515625 188.597656 349.648438 187.523438 349.757812 186.445312 C 349.867188 185.363281 349.945312 184.285156 350 183.199219 C 350.054688 182.117188 350.082031 181.035156 350.082031 179.949219 L 350.082031 61.109375 L 564.429688 61.109375 C 565.648438 61.101562 566.863281 61.15625 568.074219 61.269531 C 569.289062 61.378906 570.492188 61.550781 571.6875 61.785156 C 572.882812 62.015625 574.0625 62.304688 575.230469 62.65625 C 576.398438 63.003906 577.542969 63.410156 578.671875 63.871094 C 579.796875 64.332031 580.898438 64.847656 581.972656 65.417969 C 583.050781 65.992188 584.09375 66.613281 585.105469 67.285156 C 586.121094 67.960938 587.097656 68.683594 588.039062 69.453125 C 588.984375 70.226562 589.882812 71.039062 590.746094 71.902344 C 591.605469 72.761719 592.421875 73.660156 593.195312 74.601562 C 593.964844 75.542969 594.691406 76.519531 595.367188 77.53125 C 596.039062 78.542969 596.664062 79.585938 597.234375 80.660156 C 597.808594 81.734375 598.324219 82.832031 598.785156 83.957031 C 599.25 85.082031 599.65625 86.230469 600.003906 87.394531 C 600.351562 88.558594 600.644531 89.738281 600.875 90.933594 C 601.109375 92.125 601.28125 93.328125 601.394531 94.539062 C 601.503906 95.75 601.558594 96.964844 601.550781 98.179688 Z M 601.519531 665.617188 "/></g></g></svg>