<!-- Generator: Adobe Illustrator 25.0.1, SVG Export Plug-In  -->
<svg version="1.1" xmlns="http://www.w3.org/2000/svg" xmlns:xlink="http://www.w3.org/1999/xlink" x="0px" y="0px"
	 width="225.01px" height="224.5px" viewBox="0 0 225.01 224.5" style="overflow:visible;enable-background:new 0 0 225.01 224.5;"
	 xml:space="preserve">
<style type="text/css">
	.st0{fill:#44476A;}
</style>
<defs>
</defs>
<g>
	<path class="st0" d="M173.39,224.5c-10.83-0.07-18.74-1.77-26.41-4.51c-15.79-5.65-31.8-10.83-46.13-19.86
		c-19.81-12.49-36.92-28.11-52.59-45.37C36.44,141.73,25.51,128,18.01,111.97C11.11,97.24,5.08,82.12,1.44,66.21
		C-1.21,54.66-0.23,43.24,4.58,32.4c2.56-5.77,5.75-11.28,9-16.71c4.04-6.74,9.97-11.21,17.76-12.83c5.3-1.1,10.65-1.97,16-2.79
		c2.72-0.42,4.91,0.81,6.44,3.06c1.22,1.79,2.34,3.65,3.43,5.52c7.35,12.7,14.6,25.45,22.04,38.1c3.66,6.22,3.67,9.64-1.48,14.72
		c-4.33,4.27-9.16,8.03-13.73,12.06c-2.81,2.49-5.63,4.98-8.29,7.63c-2.99,2.99-3.54,6.52-1.5,10.3c1.66,3.08,3.47,6.08,5.15,9.15
		c15.24,27.72,36.67,49.27,64.47,64.47c3.08,1.68,6.05,3.55,9.13,5.21c4.11,2.22,7.96,1.74,11.13-1.75
		c3.93-4.32,7.69-8.8,11.55-13.18c2.54-2.88,4.99-5.86,7.75-8.52c5.12-4.93,8.43-5.1,14.55-1.48c10.92,6.46,21.87,12.85,32.84,19.22
		c3.1,1.8,6.32,3.41,9.46,5.14c3.5,1.93,5.08,4.81,4.64,8.9c-0.77,7.17-2.07,14.23-5.06,20.81c-1.18,2.59-2.92,5.21-5.07,7.04
		C202.14,217.28,187.75,224.09,173.39,224.5z"/>
</g>
</svg>
