<?xml version="1.0" encoding="UTF-8"?><svg xmlns="http://www.w3.org/2000/svg" xmlns:xlink="http://www.w3.org/1999/xlink" width="150pt" zoomAndPan="magnify" viewBox="0 0 150 149.999998" height="149.999998pt" preserveAspectRatio="xMidYMid meet" version="1.2"><defs><clipPath xml:id="clip1" id="clip1"><path d="M 11.703125 11.703125 L 138.453125 11.703125 L 138.453125 138.453125 L 11.703125 138.453125 Z M 11.703125 11.703125 "/></clipPath></defs><g xml:id="surface1" id="surface1"><g clip-rule="nonzero" clip-path="url(#clip1)"><path style=" stroke:none;fill-rule:nonzero;fill:rgb(92.158508%,19.60907%,13.729858%);fill-opacity:1;" d="M 75.09375 20.53125 C 45.007812 20.53125 20.53125 45.007812 20.53125 75.09375 C 20.53125 105.179688 45.007812 129.65625 75.09375 129.65625 C 105.179688 129.65625 129.65625 105.179688 129.65625 75.09375 C 129.65625 45.007812 105.179688 20.53125 75.09375 20.53125 Z M 75.09375 138.472656 C 40.144531 138.472656 11.714844 110.039062 11.714844 75.09375 C 11.714844 40.144531 40.144531 11.714844 75.09375 11.714844 C 110.039062 11.714844 138.472656 40.144531 138.472656 75.09375 C 138.472656 110.039062 110.039062 138.472656 75.09375 138.472656 "/></g><path style=" stroke:none;fill-rule:nonzero;fill:rgb(92.158508%,19.60907%,13.729858%);fill-opacity:1;" d="M 36.675781 124.242188 C 35.617188 124.242188 34.558594 123.863281 33.710938 123.09375 C 31.910156 121.457031 31.78125 118.667969 33.417969 116.867188 L 112.753906 29.671875 C 114.394531 27.871094 117.179688 27.738281 118.984375 29.378906 C 120.785156 31.015625 120.914062 33.804688 119.277344 35.605469 L 39.9375 122.800781 C 39.070312 123.757812 37.875 124.242188 36.675781 124.242188 "/></g></svg>