<?xml version="1.0" encoding="UTF-8"?><svg xmlns="http://www.w3.org/2000/svg" xmlns:xlink="http://www.w3.org/1999/xlink" contentScriptType="text/ecmascript" width="375pt" zoomAndPan="magnify" contentStyleType="text/css" viewBox="0 0 375 374.999991" height="374.999991pt" preserveAspectRatio="xMidYMid meet" version="1.2"><defs><clipPath xml:id="clip1" id="clip1"><path d="M 26 69 L 367 69 L 367 362 L 26 362 Z M 26 69 "/></clipPath><clipPath xml:id="clip2" id="clip2"><path d="M 250.492188 37.5 L 415.425781 202.433594 L 191.625 426.234375 L 26.691406 261.300781 Z M 250.492188 37.5 "/></clipPath><clipPath xml:id="clip3" id="clip3"><path d="M 250.492188 37.5 L 415.425781 202.433594 L 177.835938 440.023438 L 12.902344 275.089844 Z M 250.492188 37.5 "/></clipPath></defs><g xml:id="surface1" id="surface1"><g clip-rule="nonzero" clip-path="url(#clip1)"><g clip-rule="nonzero" clip-path="url(#clip2)"><g clip-rule="nonzero" clip-path="url(#clip3)"><path style=" stroke:none;fill-rule:nonzero;fill:rgb(0%,0%,0%);fill-opacity:1;" d="M 338.84375 232.644531 C 333.28125 238.132812 326.242188 245.097656 317.128906 254.210938 C 308.546875 262.792969 294.582031 262.800781 286.003906 254.21875 L 247.542969 215.757812 C 238.960938 207.175781 238.957031 193.222656 247.539062 184.640625 L 253.695312 178.484375 C 260.238281 171.941406 270.148438 170.457031 278.339844 174.789062 L 304.253906 188.523438 C 306.34375 189.617188 307.125 192.199219 306.023438 194.277344 C 304.921875 196.351562 302.347656 197.144531 300.269531 196.039062 L 274.351562 182.324219 C 269.496094 179.75 263.617188 180.628906 259.726562 184.515625 L 253.570312 190.671875 C 248.316406 195.929688 248.320312 204.476562 253.570312 209.730469 L 292.03125 248.191406 C 297.28125 253.441406 305.839844 253.4375 311.097656 248.179688 C 321.066406 238.210938 328.582031 230.785156 334.363281 225.078125 C 335.078125 224.382812 335.757812 223.699219 336.421875 223.058594 C 353.816406 205.867188 353.796875 205.71875 360.6875 194.46875 C 371.507812 176.804688 366.519531 153.75 349.398438 142.089844 L 277.402344 96.609375 L 238.703125 71.621094 C 232.167969 67.824219 223.90625 68.824219 218.457031 74.050781 L 165.058594 123.84375 L 13.359375 275.542969 L 99.175781 361.363281 L 127.441406 333.097656 C 153.03125 307.507812 187.351562 292.277344 223.539062 291.25 C 223.878906 291.242188 224.199219 291.234375 224.539062 291.222656 C 248.980469 290.636719 273.324219 300.589844 297.527344 296.027344 C 309.476562 293.789062 324.675781 287.289062 336.753906 277.585938 C 350.867188 266.246094 351.253906 245.1875 338.84375 232.644531 "/></g></g></g><path style=" stroke:none;fill-rule:nonzero;fill:rgb(0%,0%,0%);fill-opacity:1;" d="M 83.761719 367.03125 L 18.421875 367.03125 C 12.867188 367.03125 8.339844 362.539062 8.339844 357.023438 L 8.339844 290.792969 C 8.339844 285.277344 12.867188 280.785156 18.421875 280.785156 L 83.761719 280.785156 C 89.316406 280.785156 93.839844 285.277344 93.839844 290.792969 L 93.839844 357.023438 C 93.839844 362.539062 89.316406 367.03125 83.761719 367.03125 Z M 83.761719 367.03125 "/><path style="fill:none;stroke-width:1;stroke-linecap:butt;stroke-linejoin:miter;stroke:rgb(90.19928%,90.589905%,93.328857%);stroke-opacity:1;stroke-miterlimit:4;" d="M -0.000102602 0.000260078 L 22.180051 0.000260078 " transform="matrix(3.706333,3.706333,-3.71231,3.71231,15.118533,278.089259)"/><path style=" stroke:none;fill-rule:nonzero;fill:rgb(0%,0%,0%);fill-opacity:1;" d="M 91.164062 351.394531 L 22.628906 282.859375 C 17.839844 278.074219 17.847656 270.269531 22.636719 265.476562 L 51.386719 236.730469 C 56.175781 231.9375 63.980469 231.933594 68.765625 236.71875 L 137.304688 305.257812 C 142.089844 310.042969 142.085938 317.847656 137.296875 322.640625 L 108.546875 351.386719 C 103.753906 356.179688 95.953125 356.183594 91.164062 351.394531 Z M 91.164062 351.394531 "/></g></svg>