<?xml version="1.0" encoding="UTF-8"?><svg xmlns="http://www.w3.org/2000/svg" xmlns:xlink="http://www.w3.org/1999/xlink" contentScriptType="text/ecmascript" width="768pt" zoomAndPan="magnify" contentStyleType="text/css" viewBox="0 0 768 767.999994" height="767.999994pt" preserveAspectRatio="xMidYMid meet" version="1.2"><defs><clipPath xml:id="clip1" id="clip1"><path d="M 116 83 L 669 83 L 669 709.675781 L 116 709.675781 Z M 116 83 "/></clipPath></defs><g xml:id="surface1" id="surface1"><g clip-rule="nonzero" clip-path="url(#clip1)"><path style=" stroke:none;fill-rule:nonzero;fill:rgb(0%,0%,0%);fill-opacity:1;" d="M 658.773438 647.460938 L 548.425781 530.757812 C 552.0625 527.390625 555.601562 523.921875 559.039062 520.351562 C 562.476562 516.78125 565.808594 513.113281 569.035156 509.351562 C 572.261719 505.589844 575.375 501.734375 578.378906 497.792969 C 581.382812 493.847656 584.273438 489.824219 587.042969 485.710938 C 589.816406 481.601562 592.46875 477.417969 595 473.152344 C 597.527344 468.890625 599.933594 464.558594 602.214844 460.15625 C 604.496094 455.753906 606.648438 451.289062 608.671875 446.761719 C 610.695312 442.234375 612.585938 437.65625 614.34375 433.019531 C 616.101562 428.382812 617.726562 423.699219 619.214844 418.972656 C 620.703125 414.242188 622.054688 409.472656 623.269531 404.664062 C 624.484375 399.859375 625.558594 395.019531 626.492188 390.148438 C 627.425781 385.28125 628.21875 380.386719 628.871094 375.472656 C 629.527344 370.558594 630.035156 365.625 630.402344 360.679688 C 630.773438 355.738281 630.996094 350.785156 631.082031 345.828125 C 631.164062 340.867188 631.101562 335.914062 630.898438 330.957031 C 630.695312 326.003906 630.351562 321.058594 629.863281 316.125 C 629.371094 311.191406 628.742188 306.273438 627.972656 301.375 C 627.199219 296.476562 626.285156 291.605469 625.234375 286.761719 C 624.179688 281.914062 622.988281 277.105469 621.65625 272.328125 C 620.328125 267.550781 618.859375 262.816406 617.257812 258.125 C 615.652344 253.433594 613.917969 248.792969 612.046875 244.199219 C 610.171875 239.609375 608.171875 235.074219 606.039062 230.597656 C 603.90625 226.125 601.644531 221.714844 599.257812 217.367188 C 596.871094 213.023438 594.363281 208.75 591.726562 204.550781 C 589.09375 200.351562 586.34375 196.230469 583.472656 192.1875 C 580.601562 188.148438 577.613281 184.191406 574.515625 180.324219 C 571.417969 176.453125 568.207031 172.679688 564.890625 168.996094 C 561.574219 165.3125 558.152344 161.726562 554.628906 158.242188 C 551.105469 154.757812 547.484375 151.375 543.765625 148.097656 C 540.046875 144.820312 536.238281 141.65625 532.335938 138.597656 C 528.433594 135.542969 524.449219 132.601562 520.375 129.777344 C 516.304688 126.949219 512.15625 124.242188 507.929688 121.65625 C 503.703125 119.070312 499.402344 116.609375 495.035156 114.269531 C 490.664062 111.933594 486.234375 109.722656 481.734375 107.640625 C 477.238281 105.558594 472.6875 103.609375 468.078125 101.789062 C 463.46875 99.972656 458.8125 98.285156 454.105469 96.738281 C 449.398438 95.1875 444.652344 93.773438 439.863281 92.5 C 435.074219 91.222656 430.253906 90.085938 425.402344 89.089844 C 420.546875 88.09375 415.671875 87.238281 410.769531 86.523438 C 405.867188 85.808594 400.945312 85.234375 396.011719 84.804688 C 391.074219 84.371094 386.132812 84.082031 381.179688 83.9375 C 376.226562 83.792969 371.273438 83.792969 366.320312 83.933594 C 361.367188 84.074219 356.425781 84.355469 351.488281 84.78125 C 346.550781 85.210938 341.632812 85.777344 336.730469 86.488281 C 331.828125 87.199219 326.949219 88.050781 322.09375 89.042969 C 317.238281 90.035156 312.417969 91.167969 307.628906 92.4375 C 302.839844 93.710938 298.089844 95.117188 293.382812 96.664062 C 288.675781 98.210938 284.015625 99.890625 279.40625 101.703125 C 274.796875 103.519531 270.242188 105.464844 265.742188 107.542969 C 261.242188 109.621094 256.808594 111.828125 252.4375 114.160156 C 248.066406 116.496094 243.765625 118.953125 239.535156 121.535156 C 235.308594 124.117188 231.15625 126.820312 227.082031 129.644531 C 223.007812 132.464844 219.019531 135.402344 215.113281 138.457031 C 211.210938 141.507812 207.398438 144.671875 203.675781 147.945312 C 199.953125 151.21875 196.332031 154.59375 192.804688 158.078125 C 189.277344 161.5625 185.851562 165.140625 182.53125 168.824219 C 179.210938 172.503906 176 176.277344 172.898438 180.140625 C 169.792969 184.007812 166.804688 187.960938 163.929688 192 C 161.054688 196.035156 158.300781 200.15625 155.664062 204.351562 C 153.027344 208.550781 150.511719 212.820312 148.121094 217.164062 C 145.730469 221.507812 143.464844 225.914062 141.328125 230.390625 C 139.191406 234.863281 137.1875 239.394531 135.3125 243.984375 C 133.433594 248.574219 131.695312 253.214844 130.085938 257.90625 C 128.476562 262.59375 127.007812 267.328125 125.671875 272.101562 C 124.335938 276.878906 123.140625 281.6875 122.082031 286.53125 C 121.027344 291.378906 120.109375 296.25 119.332031 301.144531 C 118.558594 306.042969 117.921875 310.960938 117.429688 315.894531 C 116.9375 320.828125 116.585938 325.769531 116.378906 330.726562 C 116.171875 335.679688 116.105469 340.636719 116.183594 345.59375 C 116.261719 350.550781 116.484375 355.503906 116.847656 360.449219 C 117.210938 365.394531 117.714844 370.324219 118.363281 375.242188 C 119.011719 380.15625 119.800781 385.050781 120.730469 389.921875 C 121.664062 394.792969 122.730469 399.632812 123.941406 404.441406 C 125.152344 409.25 126.496094 414.019531 127.984375 418.75 C 129.46875 423.480469 131.085938 428.164062 132.839844 432.800781 C 134.597656 437.4375 136.484375 442.023438 138.503906 446.550781 C 140.519531 451.078125 142.667969 455.542969 144.945312 459.949219 C 147.222656 464.351562 149.625 468.6875 152.152344 472.953125 C 154.675781 477.21875 157.324219 481.40625 160.09375 485.519531 C 162.859375 489.632812 165.746094 493.660156 168.746094 497.605469 C 171.746094 501.554688 174.859375 505.410156 178.082031 509.175781 C 181.304688 512.941406 184.632812 516.609375 188.066406 520.183594 C 191.503906 523.757812 195.039062 527.230469 198.671875 530.597656 C 202.308594 533.96875 206.035156 537.230469 209.859375 540.386719 C 213.683594 543.539062 217.59375 546.578125 221.589844 549.507812 C 225.589844 552.4375 229.667969 555.246094 233.828125 557.9375 C 237.992188 560.632812 242.226562 563.199219 246.535156 565.648438 C 250.84375 568.097656 255.21875 570.417969 259.660156 572.613281 C 264.105469 574.808594 268.605469 576.871094 273.167969 578.808594 C 277.730469 580.742188 282.34375 582.542969 287.007812 584.210938 C 291.675781 585.878906 296.382812 587.414062 301.136719 588.808594 C 305.890625 590.203125 310.683594 591.460938 315.507812 592.582031 C 320.335938 593.703125 325.191406 594.679688 330.074219 595.519531 C 334.957031 596.359375 339.859375 597.054688 344.78125 597.613281 C 349.707031 598.167969 354.640625 598.582031 359.589844 598.851562 C 364.535156 599.121094 369.484375 599.25 374.441406 599.234375 C 384.203125 599.234375 393.933594 598.675781 403.632812 597.550781 C 413.328125 596.429688 422.929688 594.753906 432.433594 592.523438 C 441.941406 590.292969 451.285156 587.519531 460.46875 584.210938 C 469.65625 580.898438 478.621094 577.070312 487.363281 572.726562 L 605.070312 698.265625 C 606.800781 700.082031 608.699219 701.703125 610.761719 703.132812 C 612.824219 704.5625 615.007812 705.769531 617.316406 706.75 C 619.625 707.730469 622.011719 708.46875 624.46875 708.960938 C 626.929688 709.453125 629.414062 709.691406 631.921875 709.675781 C 634.253906 709.691406 636.570312 709.488281 638.863281 709.0625 C 641.160156 708.636719 643.394531 707.996094 645.566406 707.148438 C 647.738281 706.296875 649.8125 705.246094 651.785156 704 C 653.761719 702.753906 655.597656 701.332031 657.300781 699.738281 C 658.1875 698.90625 659.027344 698.039062 659.828125 697.125 C 660.625 696.214844 661.375 695.265625 662.082031 694.277344 C 662.785156 693.289062 663.4375 692.273438 664.042969 691.21875 C 664.648438 690.167969 665.199219 689.089844 665.695312 687.984375 C 666.191406 686.878906 666.636719 685.75 667.019531 684.601562 C 667.40625 683.453125 667.734375 682.289062 668.007812 681.105469 C 668.277344 679.921875 668.488281 678.730469 668.644531 677.527344 C 668.796875 676.324219 668.890625 675.117188 668.925781 673.90625 C 668.957031 672.695312 668.933594 671.484375 668.847656 670.273438 C 668.761719 669.0625 668.617188 667.859375 668.414062 666.664062 C 668.210938 665.46875 667.945312 664.289062 667.625 663.117188 C 667.304688 661.949219 666.925781 660.796875 666.492188 659.667969 C 666.058594 658.535156 665.570312 657.425781 665.023438 656.34375 C 664.480469 655.257812 663.886719 654.207031 663.238281 653.179688 C 662.589844 652.15625 661.890625 651.164062 661.148438 650.210938 C 660.402344 649.253906 659.609375 648.335938 658.773438 647.460938 Z M 190.523438 341.53125 C 190.523438 338.515625 190.597656 335.507812 190.746094 332.496094 C 190.894531 329.488281 191.113281 326.484375 191.410156 323.488281 C 191.703125 320.488281 192.074219 317.5 192.515625 314.519531 C 192.957031 311.539062 193.472656 308.574219 194.058594 305.617188 C 194.644531 302.664062 195.304688 299.726562 196.035156 296.804688 C 196.765625 293.882812 197.570312 290.980469 198.445312 288.097656 C 199.316406 285.214844 200.261719 282.355469 201.273438 279.515625 C 202.289062 276.679688 203.371094 273.871094 204.523438 271.085938 C 205.675781 268.304688 206.894531 265.550781 208.183594 262.828125 C 209.46875 260.105469 210.820312 257.414062 212.242188 254.757812 C 213.660156 252.101562 215.144531 249.480469 216.691406 246.898438 C 218.238281 244.3125 219.847656 241.769531 221.519531 239.265625 C 223.191406 236.757812 224.925781 234.296875 226.71875 231.878906 C 228.511719 229.457031 230.363281 227.082031 232.269531 224.753906 C 234.179688 222.425781 236.144531 220.144531 238.167969 217.914062 C 240.1875 215.679688 242.265625 213.5 244.390625 211.371094 C 246.519531 209.238281 248.699219 207.164062 250.929688 205.140625 C 253.160156 203.117188 255.4375 201.148438 257.765625 199.238281 C 260.09375 197.328125 262.464844 195.476562 264.882812 193.679688 C 267.300781 191.886719 269.757812 190.152344 272.261719 188.476562 C 274.765625 186.804688 277.308594 185.191406 279.886719 183.644531 C 282.46875 182.09375 285.089844 180.609375 287.742188 179.191406 C 290.398438 177.769531 293.085938 176.417969 295.804688 175.128906 C 298.527344 173.839844 301.277344 172.621094 304.058594 171.46875 C 306.839844 170.316406 309.648438 169.230469 312.480469 168.214844 C 315.316406 167.203125 318.171875 166.257812 321.050781 165.382812 C 323.933594 164.507812 326.832031 163.703125 329.753906 162.972656 C 332.671875 162.242188 335.609375 161.582031 338.558594 160.992188 C 341.511719 160.40625 344.476562 159.890625 347.453125 159.449219 C 350.429688 159.007812 353.417969 158.636719 356.414062 158.34375 C 359.410156 158.046875 362.410156 157.824219 365.414062 157.679688 C 368.421875 157.53125 371.429688 157.457031 374.441406 157.457031 C 377.449219 157.457031 380.457031 157.53125 383.464844 157.679688 C 386.472656 157.824219 389.472656 158.046875 392.46875 158.34375 C 395.460938 158.636719 398.449219 159.007812 401.425781 159.449219 C 404.402344 159.890625 407.367188 160.40625 410.320312 160.992188 C 413.273438 161.582031 416.207031 162.242188 419.128906 162.972656 C 422.046875 163.703125 424.949219 164.507812 427.828125 165.382812 C 430.707031 166.257812 433.566406 167.203125 436.398438 168.214844 C 439.234375 169.230469 442.039062 170.316406 444.820312 171.46875 C 447.601562 172.621094 450.351562 173.839844 453.074219 175.128906 C 455.796875 176.417969 458.484375 177.769531 461.136719 179.191406 C 463.792969 180.609375 466.410156 182.09375 468.992188 183.644531 C 471.574219 185.191406 474.117188 186.804688 476.617188 188.476562 C 479.121094 190.152344 481.582031 191.886719 484 193.679688 C 486.417969 195.476562 488.789062 197.328125 491.113281 199.238281 C 493.441406 201.148438 495.71875 203.117188 497.949219 205.140625 C 500.179688 207.164062 502.359375 209.238281 504.488281 211.371094 C 506.617188 213.5 508.691406 215.679688 510.710938 217.914062 C 512.734375 220.144531 514.699219 222.425781 516.609375 224.753906 C 518.519531 227.082031 520.371094 229.457031 522.164062 231.878906 C 523.957031 234.296875 525.6875 236.757812 527.359375 239.265625 C 529.03125 241.769531 530.640625 244.3125 532.191406 246.898438 C 533.738281 249.480469 535.21875 252.101562 536.640625 254.757812 C 538.058594 257.414062 539.410156 260.105469 540.699219 262.828125 C 541.984375 265.550781 543.203125 268.304688 544.355469 271.085938 C 545.507812 273.871094 546.589844 276.679688 547.605469 279.515625 C 548.617188 282.355469 549.5625 285.214844 550.4375 288.097656 C 551.308594 290.980469 552.113281 293.882812 552.84375 296.804688 C 553.574219 299.726562 554.234375 302.664062 554.820312 305.617188 C 555.410156 308.574219 555.921875 311.539062 556.363281 314.519531 C 556.808594 317.5 557.175781 320.488281 557.46875 323.488281 C 557.765625 326.484375 557.988281 329.488281 558.132812 332.496094 C 558.28125 335.507812 558.355469 338.515625 558.355469 341.53125 C 558.355469 344.542969 558.28125 347.554688 558.132812 350.5625 C 557.988281 353.570312 557.765625 356.574219 557.46875 359.570312 C 557.175781 362.570312 556.808594 365.558594 556.363281 368.539062 C 555.921875 371.519531 555.410156 374.484375 554.820312 377.441406 C 554.234375 380.394531 553.574219 383.332031 552.84375 386.257812 C 552.113281 389.179688 551.308594 392.082031 550.4375 394.964844 C 549.5625 397.847656 548.617188 400.707031 547.605469 403.542969 C 546.589844 406.378906 545.507812 409.1875 544.355469 411.972656 C 543.203125 414.753906 541.984375 417.507812 540.699219 420.230469 C 539.410156 422.953125 538.058594 425.644531 536.640625 428.300781 C 535.21875 430.957031 533.738281 433.578125 532.191406 436.164062 C 530.640625 438.746094 529.03125 441.289062 527.359375 443.796875 C 525.6875 446.300781 523.957031 448.761719 522.164062 451.183594 C 520.371094 453.601562 518.519531 455.976562 516.609375 458.304688 C 514.699219 460.632812 512.734375 462.914062 510.710938 465.144531 C 508.691406 467.378906 506.617188 469.558594 504.488281 471.691406 C 502.359375 473.820312 500.179688 475.894531 497.949219 477.917969 C 495.71875 479.941406 493.441406 481.910156 491.113281 483.820312 C 488.789062 485.730469 486.417969 487.585938 484 489.378906 C 481.582031 491.171875 479.121094 492.90625 476.617188 494.582031 C 474.117188 496.253906 471.574219 497.867188 468.992188 499.414062 C 466.410156 500.964844 463.792969 502.449219 461.136719 503.867188 C 458.484375 505.289062 455.796875 506.640625 453.074219 507.929688 C 450.351562 509.21875 447.601562 510.4375 444.820312 511.589844 C 442.039062 512.746094 439.234375 513.828125 436.398438 514.84375 C 433.566406 515.859375 430.707031 516.804688 427.828125 517.675781 C 424.949219 518.550781 422.046875 519.355469 419.128906 520.085938 C 416.207031 520.820312 413.273438 521.480469 410.320312 522.066406 C 407.367188 522.652344 404.402344 523.167969 401.425781 523.609375 C 398.449219 524.054688 395.460938 524.421875 392.46875 524.71875 C 389.472656 525.011719 386.472656 525.234375 383.464844 525.382812 C 380.457031 525.53125 377.449219 525.601562 374.441406 525.605469 C 371.429688 525.601562 368.421875 525.53125 365.414062 525.382812 C 362.410156 525.234375 359.410156 525.011719 356.414062 524.71875 C 353.417969 524.421875 350.429688 524.054688 347.453125 523.609375 C 344.476562 523.167969 341.511719 522.652344 338.558594 522.066406 C 335.609375 521.480469 332.671875 520.820312 329.753906 520.085938 C 326.832031 519.355469 323.933594 518.550781 321.050781 517.675781 C 318.171875 516.804688 315.316406 515.859375 312.480469 514.84375 C 309.648438 513.828125 306.839844 512.746094 304.058594 511.589844 C 301.277344 510.4375 298.527344 509.21875 295.804688 507.929688 C 293.085938 506.640625 290.398438 505.289062 287.742188 503.867188 C 285.089844 502.449219 282.46875 500.964844 279.886719 499.414062 C 277.308594 497.867188 274.765625 496.253906 272.261719 494.582031 C 269.757812 492.90625 267.300781 491.171875 264.882812 489.378906 C 262.464844 487.585938 260.09375 485.730469 257.765625 483.820312 C 255.4375 481.910156 253.160156 479.941406 250.929688 477.917969 C 248.699219 475.894531 246.519531 473.820312 244.390625 471.691406 C 242.265625 469.558594 240.1875 467.378906 238.167969 465.144531 C 236.144531 462.914062 234.179688 460.632812 232.269531 458.304688 C 230.363281 455.976562 228.511719 453.601562 226.71875 451.183594 C 224.925781 448.761719 223.191406 446.300781 221.519531 443.796875 C 219.847656 441.289062 218.238281 438.746094 216.691406 436.164062 C 215.144531 433.578125 213.660156 430.957031 212.242188 428.300781 C 210.820312 425.644531 209.46875 422.953125 208.183594 420.230469 C 206.894531 417.507812 205.675781 414.753906 204.523438 411.972656 C 203.371094 409.1875 202.289062 406.378906 201.273438 403.542969 C 200.261719 400.707031 199.316406 397.847656 198.445312 394.964844 C 197.570312 392.082031 196.765625 389.179688 196.035156 386.257812 C 195.304688 383.332031 194.644531 380.394531 194.058594 377.441406 C 193.472656 374.484375 192.957031 371.519531 192.515625 368.539062 C 192.074219 365.558594 191.703125 362.570312 191.410156 359.570312 C 191.113281 356.574219 190.894531 353.570312 190.746094 350.5625 C 190.597656 347.554688 190.523438 344.542969 190.523438 341.53125 Z M 190.523438 341.53125 "/></g></g></svg>