<?xml version="1.0" encoding="UTF-8"?>
<svg xmlns="http://www.w3.org/2000/svg" xmlns:xlink="http://www.w3.org/1999/xlink" width="768pt" height="767.999994pt" viewBox="0 0 768 767.999994" version="1.2">
<defs>
<clipPath id="clip1">
  <path d="M 18 45 L 768 45 L 768 753 L 18 753 Z M 18 45 "/>
</clipPath>
<clipPath id="clip2">
  <path d="M 238.871094 -160.660156 L 801.550781 402.019531 L 238.871094 964.703125 L -323.808594 402.019531 Z M 238.871094 -160.660156 "/>
</clipPath>
<clipPath id="clip3">
  <path d="M 238.871094 -160.660156 L 801.550781 402.019531 L 238.871094 964.703125 L -323.808594 402.019531 Z M 238.871094 -160.660156 "/>
</clipPath>
</defs>
<g id="surface1">
<g clip-path="url(#clip1)" clip-rule="nonzero">
<g clip-path="url(#clip2)" clip-rule="nonzero">
<g clip-path="url(#clip3)" clip-rule="nonzero">
<path style=" stroke:none;fill-rule:nonzero;fill:rgb(6.269836%,5.879211%,5.099487%);fill-opacity:1;" d="M 18.878906 87.714844 L 18.878906 306.308594 C 18.878906 327.9375 35.292969 346 56.78125 348.058594 L 590.339844 399.304688 L 56.808594 450.519531 C 35.320312 452.578125 18.878906 470.667969 18.90625 492.269531 L 18.90625 710.863281 C 18.90625 741.550781 50.773438 761.835938 78.578125 748.851562 L 746.191406 437.292969 C 778.441406 422.222656 778.46875 376.355469 746.191406 361.316406 L 78.550781 49.726562 C 50.746094 36.746094 18.878906 57.03125 18.878906 87.714844 Z M 18.878906 87.714844 "/>
</g>
</g>
</g>
</g>
</svg>
