<?xml version="1.0" encoding="UTF-8"?><svg xmlns="http://www.w3.org/2000/svg" xmlns:xlink="http://www.w3.org/1999/xlink" contentScriptType="text/ecmascript" width="768pt" zoomAndPan="magnify" contentStyleType="text/css" viewBox="0 0 768 767.999994" height="767.999994pt" preserveAspectRatio="xMidYMid meet" version="1.2"><defs><clipPath xml:id="clip1" id="clip1"><path d="M 76.800781 76.800781 L 690.472656 76.800781 L 690.472656 690.910156 L 76.800781 690.910156 Z M 76.800781 76.800781 "/></clipPath></defs><g xml:id="surface1" id="surface1"><g clip-rule="nonzero" clip-path="url(#clip1)"><path style=" stroke:none;fill-rule:nonzero;fill:rgb(6.269836%,5.879211%,5.099487%);fill-opacity:1;" d="M 381.726562 267.074219 C 445.570312 265.875 498.238281 316.6875 499.4375 380.527344 C 499.4375 381.675781 499.4375 382.765625 499.4375 383.910156 C 500.144531 447.75 449.003906 500.089844 385.164062 500.800781 C 321.320312 501.507812 268.980469 450.367188 268.273438 386.527344 C 268.273438 385.652344 268.273438 384.78125 268.273438 383.910156 C 267.5625 320.394531 318.214844 268.21875 381.726562 267.074219 Z M 394.105469 77.074219 C 376.875 76.472656 359.59375 77.34375 342.527344 79.636719 C 336.476562 80.453125 331.515625 84.707031 329.714844 90.484375 L 312.707031 145.875 C 311.234375 150.566406 307.636719 154.328125 303.003906 155.960938 C 294.988281 158.851562 287.136719 162.070312 279.449219 165.722656 C 274.980469 167.902344 269.746094 167.792969 265.382812 165.449219 L 214.242188 138.296875 C 208.847656 135.464844 202.304688 136.007812 197.507812 139.714844 C 175.589844 156.34375 156.070312 175.917969 139.386719 197.777344 C 135.679688 202.632812 135.136719 209.121094 137.972656 214.515625 L 165.175781 265.710938 C 167.519531 270.019531 167.738281 275.25 165.722656 279.722656 C 162.015625 287.410156 158.742188 295.261719 155.90625 303.273438 C 154.273438 307.964844 150.511719 311.5625 145.765625 312.980469 L 90.429688 330.042969 C 84.597656 331.789062 80.34375 336.804688 79.582031 342.800781 C 75.875 370.117188 75.875 397.703125 79.582031 425.015625 C 80.34375 431.015625 84.597656 436.03125 90.429688 437.773438 L 145.765625 454.839844 C 150.511719 456.257812 154.273438 459.855469 155.90625 464.542969 C 158.742188 472.558594 162.015625 480.410156 165.722656 488.097656 C 167.738281 492.566406 167.519531 497.800781 165.175781 502.109375 L 137.972656 553.300781 C 135.136719 558.644531 135.679688 565.1875 139.386719 570.039062 C 156.070312 591.902344 175.589844 611.417969 197.507812 628.101562 C 202.304688 631.808594 208.847656 632.300781 214.242188 629.519531 L 265.382812 602.371094 C 269.746094 600.023438 274.980469 599.917969 279.449219 602.042969 C 287.136719 605.695312 294.988281 608.964844 303.003906 611.800781 C 307.636719 613.4375 311.234375 617.199219 312.707031 621.886719 L 329.714844 677.28125 C 331.515625 683.113281 336.476562 687.367188 342.527344 688.128906 C 369.789062 691.835938 397.429688 691.835938 424.691406 688.128906 C 430.6875 687.367188 435.703125 683.113281 437.503906 677.28125 L 454.511719 621.886719 C 455.984375 617.199219 459.582031 613.4375 464.214844 611.800781 C 472.230469 608.964844 480.136719 605.695312 487.769531 602.042969 C 492.238281 599.917969 497.417969 600.023438 501.78125 602.371094 L 552.976562 629.519531 C 558.371094 632.300781 564.914062 631.808594 569.710938 628.101562 C 591.628906 611.417969 611.148438 591.902344 627.832031 570.039062 C 631.539062 565.1875 632.082031 558.644531 629.246094 553.300781 L 602.097656 502.109375 C 599.699219 497.800781 599.535156 492.566406 601.550781 488.097656 C 605.203125 480.410156 608.476562 472.558594 611.3125 464.542969 C 612.945312 459.855469 616.707031 456.257812 621.453125 454.839844 L 676.84375 437.773438 C 682.621094 435.976562 686.875 431.015625 687.691406 425.015625 C 691.34375 397.703125 691.34375 370.117188 687.691406 342.800781 C 686.875 336.804688 682.621094 331.789062 676.84375 330.042969 L 621.453125 312.980469 C 616.707031 311.5625 612.945312 307.964844 611.3125 303.273438 C 608.476562 295.261719 605.203125 287.410156 601.550781 279.722656 C 599.535156 275.25 599.699219 270.019531 602.097656 265.710938 L 629.246094 214.515625 C 632.082031 209.121094 631.539062 202.632812 627.832031 197.777344 C 611.148438 175.917969 591.628906 156.34375 569.710938 139.714844 C 564.914062 136.007812 558.371094 135.464844 552.976562 138.296875 L 501.78125 165.449219 C 497.417969 167.792969 492.238281 167.902344 487.769531 165.777344 C 480.136719 162.125 472.230469 158.851562 464.214844 156.015625 C 459.582031 154.382812 455.984375 150.621094 454.511719 145.875 L 437.503906 90.539062 C 435.703125 84.707031 430.6875 80.453125 424.691406 79.636719 C 414.550781 78.273438 404.355469 77.398438 394.105469 77.074219 "/></g></g></svg>