<?xml version="1.0" encoding="UTF-8"?><svg xmlns="http://www.w3.org/2000/svg" xmlns:xlink="http://www.w3.org/1999/xlink" width="150pt" zoomAndPan="magnify" viewBox="0 0 150 149.999998" height="149.999998pt" preserveAspectRatio="xMidYMid meet" version="1.2"><defs><clipPath xml:id="clip1" id="clip1"><path d="M 16.675781 10.582031 L 133.675781 10.582031 L 133.675781 139.582031 L 16.675781 139.582031 Z M 16.675781 10.582031 "/></clipPath></defs><g xml:id="surface1" id="surface1"><g clip-rule="nonzero" clip-path="url(#clip1)"><path style=" stroke:none;fill-rule:nonzero;fill:rgb(14.118958%,14.118958%,14.118958%);fill-opacity:1;" d="M 114.085938 101.761719 C 109.15625 101.761719 104.742188 103.707031 101.371094 106.75 L 55.109375 79.867188 C 55.4375 78.378906 55.695312 76.890625 55.695312 75.335938 C 55.695312 73.78125 55.4375 72.292969 55.109375 70.800781 L 100.847656 44.183594 C 104.351562 47.421875 108.957031 49.429688 114.082031 49.429688 C 124.851562 49.429688 133.546875 40.75 133.546875 30 C 133.546875 19.25 124.851562 10.566406 114.082031 10.566406 C 103.316406 10.566406 94.621094 19.246094 94.621094 29.996094 C 94.621094 31.550781 94.878906 33.042969 95.207031 34.53125 L 49.46875 61.152344 C 45.964844 57.914062 41.359375 55.90625 36.234375 55.90625 C 25.464844 55.90625 16.773438 64.582031 16.773438 75.335938 C 16.773438 86.085938 25.464844 94.765625 36.234375 94.765625 C 41.359375 94.765625 45.964844 92.757812 49.460938 89.519531 L 95.652344 116.460938 C 95.328125 117.820312 95.132812 119.246094 95.132812 120.671875 C 95.132812 131.097656 103.632812 139.582031 114.078125 139.582031 C 124.523438 139.582031 133.019531 131.097656 133.019531 120.671875 C 133.019531 110.242188 124.523438 101.757812 114.078125 101.757812 Z M 114.085938 101.761719 "/></g></g></svg>