<?xml version="1.0" encoding="UTF-8"?><svg xmlns="http://www.w3.org/2000/svg" xmlns:xlink="http://www.w3.org/1999/xlink" contentScriptType="text/ecmascript" width="375pt" zoomAndPan="magnify" contentStyleType="text/css" viewBox="0 0 375 374.999991" height="374.999991pt" preserveAspectRatio="xMidYMid meet" version="1.2"><defs><g/><clipPath xml:id="clip1" id="clip1"><path d="M 105 62 L 279 62 L 279 212 L 105 212 Z M 105 62 "/></clipPath><clipPath xml:id="clip2" id="clip2"><path d="M 219.636719 46.613281 L 303.527344 130.5 L 189.695312 244.332031 L 105.804688 160.441406 Z M 219.636719 46.613281 "/></clipPath><clipPath xml:id="clip3" id="clip3"><path d="M 219.636719 46.613281 L 303.527344 130.5 L 182.683594 251.347656 L 98.792969 167.457031 Z M 219.636719 46.613281 "/></clipPath></defs><g xml:id="surface1" id="surface1"><g clip-rule="nonzero" clip-path="url(#clip1)"><g clip-rule="nonzero" clip-path="url(#clip2)"><g clip-rule="nonzero" clip-path="url(#clip3)"><path style=" stroke:none;fill-rule:nonzero;fill:rgb(0%,0%,0%);fill-opacity:1;" d="M 264.574219 145.867188 C 261.746094 148.660156 258.167969 152.199219 253.53125 156.835938 C 249.167969 161.203125 242.0625 161.203125 237.699219 156.839844 L 218.136719 137.277344 C 213.773438 132.914062 213.769531 125.816406 218.136719 121.453125 L 221.269531 118.320312 C 224.59375 114.992188 229.636719 114.238281 233.800781 116.441406 L 246.984375 123.425781 C 248.046875 123.980469 248.441406 125.296875 247.882812 126.351562 C 247.320312 127.410156 246.011719 127.808594 244.957031 127.25 L 231.773438 120.273438 C 229.304688 118.964844 226.3125 119.410156 224.335938 121.386719 L 221.203125 124.519531 C 218.53125 127.191406 218.53125 131.542969 221.203125 134.210938 L 240.765625 153.777344 C 243.4375 156.445312 247.789062 156.441406 250.464844 153.769531 C 255.535156 148.699219 259.359375 144.921875 262.296875 142.019531 C 262.660156 141.664062 263.007812 141.320312 263.34375 140.992188 C 272.191406 132.246094 272.183594 132.171875 275.6875 126.449219 C 281.191406 117.464844 278.652344 105.738281 269.945312 99.808594 L 233.324219 76.675781 L 213.640625 63.964844 C 210.316406 62.035156 206.113281 62.542969 203.34375 65.203125 L 176.183594 90.527344 L 99.023438 167.6875 L 142.671875 211.335938 L 157.050781 196.960938 C 170.066406 183.945312 187.523438 176.199219 205.929688 175.675781 C 206.101562 175.671875 206.265625 175.667969 206.4375 175.664062 C 218.871094 175.363281 231.253906 180.425781 243.5625 178.105469 C 249.640625 176.96875 257.371094 173.660156 263.511719 168.726562 C 270.691406 162.957031 270.890625 152.246094 264.574219 145.867188 "/></g></g></g><path style=" stroke:none;fill-rule:nonzero;fill:rgb(0%,0%,0%);fill-opacity:1;" d="M 134.832031 214.222656 L 101.597656 214.222656 C 98.773438 214.222656 96.472656 211.9375 96.472656 209.128906 L 96.472656 175.445312 C 96.472656 172.640625 98.773438 170.351562 101.597656 170.351562 L 134.832031 170.351562 C 137.65625 170.351562 139.960938 172.640625 139.960938 175.445312 L 139.960938 209.128906 C 139.960938 211.9375 137.65625 214.222656 134.832031 214.222656 Z M 134.832031 214.222656 "/><path style="fill:none;stroke-width:1;stroke-linecap:butt;stroke-linejoin:miter;stroke:rgb(90.19928%,90.589905%,93.328857%);stroke-opacity:1;stroke-miterlimit:4;" d="M -0.000758062 -0.000135093 L 22.179024 -0.000135093 " transform="matrix(1.885163,1.885163,-1.888203,1.888203,99.919143,168.982153)"/><path style=" stroke:none;fill-rule:nonzero;fill:rgb(0%,0%,0%);fill-opacity:1;" d="M 138.597656 206.269531 L 103.738281 171.410156 C 101.304688 168.972656 101.304688 165.003906 103.742188 162.566406 L 118.367188 147.945312 C 120.800781 145.507812 124.773438 145.507812 127.207031 147.941406 L 162.066406 182.800781 C 164.5 185.234375 164.5 189.203125 162.0625 191.640625 L 147.441406 206.265625 C 145.003906 208.699219 141.035156 208.703125 138.597656 206.269531 Z M 138.597656 206.269531 "/><g style="fill:rgb(0%,0%,0%);fill-opacity:1;"><g transform="translate(5.03955, 292.852545)"><path style="stroke:none;" d="M 38.796875 0 L 31.640625 0 L 15.984375 -22.96875 L 7.640625 -22.96875 L 7.640625 0 L 2.015625 0 L 2.015625 -53.640625 L 19.6875 -53.640625 C 25.570312 -53.640625 30.128906 -52.359375 33.359375 -49.796875 C 36.597656 -47.234375 38.21875 -43.40625 38.21875 -38.3125 C 38.21875 -36.0625 37.820312 -34.035156 37.03125 -32.234375 C 36.238281 -30.441406 35.15625 -28.914062 33.78125 -27.65625 C 32.414062 -26.394531 30.78125 -25.378906 28.875 -24.609375 C 26.96875 -23.847656 24.890625 -23.382812 22.640625 -23.21875 Z M 32.390625 -38.3125 C 32.390625 -41.945312 31.257812 -44.609375 29 -46.296875 C 26.738281 -47.984375 23.632812 -48.828125 19.6875 -48.828125 L 7.640625 -48.828125 L 7.640625 -27.78125 L 19.6875 -27.78125 C 23.632812 -27.78125 26.738281 -28.609375 29 -30.265625 C 31.257812 -31.921875 32.390625 -34.601562 32.390625 -38.3125 Z M 32.390625 -38.3125 "/></g></g><g style="fill:rgb(0%,0%,0%);fill-opacity:1;"><g transform="translate(50.973143, 292.852545)"><path style="stroke:none;" d="M 39.296875 -19.03125 C 39.296875 -16.039062 38.820312 -13.328125 37.875 -10.890625 C 36.925781 -8.453125 35.566406 -6.363281 33.796875 -4.625 C 32.035156 -2.882812 29.921875 -1.519531 27.453125 -0.53125 C 24.984375 0.445312 22.226562 0.9375 19.1875 0.9375 C 16.207031 0.9375 13.484375 0.445312 11.015625 -0.53125 C 8.546875 -1.519531 6.425781 -2.882812 4.65625 -4.625 C 2.894531 -6.363281 1.539062 -8.453125 0.59375 -10.890625 C -0.351562 -13.328125 -0.828125 -16.039062 -0.828125 -19.03125 C -0.828125 -21.9375 -0.351562 -24.640625 0.59375 -27.140625 C 1.539062 -29.648438 2.894531 -31.785156 4.65625 -33.546875 C 6.425781 -35.316406 8.546875 -36.703125 11.015625 -37.703125 C 13.484375 -38.703125 16.207031 -39.203125 19.1875 -39.203125 C 22.226562 -39.203125 24.984375 -38.703125 27.453125 -37.703125 C 29.921875 -36.703125 32.035156 -35.316406 33.796875 -33.546875 C 35.566406 -31.785156 36.925781 -29.648438 37.875 -27.140625 C 38.820312 -24.640625 39.296875 -21.9375 39.296875 -19.03125 Z M 33.65625 -19.03125 C 33.65625 -21.21875 33.332031 -23.234375 32.6875 -25.078125 C 32.050781 -26.929688 31.101562 -28.554688 29.84375 -29.953125 C 28.582031 -31.359375 27.050781 -32.457031 25.25 -33.25 C 23.457031 -34.039062 21.4375 -34.4375 19.1875 -34.4375 C 16.945312 -34.4375 14.925781 -34.039062 13.125 -33.25 C 11.332031 -32.457031 9.816406 -31.359375 8.578125 -29.953125 C 7.347656 -28.554688 6.410156 -26.929688 5.765625 -25.078125 C 5.128906 -23.234375 4.8125 -21.21875 4.8125 -19.03125 C 4.8125 -16.832031 5.128906 -14.804688 5.765625 -12.953125 C 6.410156 -11.109375 7.347656 -9.515625 8.578125 -8.171875 C 9.816406 -6.835938 11.332031 -5.785156 13.125 -5.015625 C 14.925781 -4.242188 16.945312 -3.859375 19.1875 -3.859375 C 21.4375 -3.859375 23.457031 -4.242188 25.25 -5.015625 C 27.050781 -5.785156 28.582031 -6.835938 29.84375 -8.171875 C 31.101562 -9.515625 32.050781 -11.109375 32.6875 -12.953125 C 33.332031 -14.804688 33.65625 -16.832031 33.65625 -19.03125 Z M 33.65625 -19.03125 "/></g></g><g style="fill:rgb(0%,0%,0%);fill-opacity:1;"><g transform="translate(96.906735, 292.852545)"><path style="stroke:none;" d="M 36.453125 0 L 1.9375 0 L 1.9375 -4.8125 L 28.03125 -33.5 L 6.828125 -33.5 L 6.828125 -22.96875 L 2.015625 -22.96875 L 2.015625 -38.3125 L 35.515625 -38.3125 L 35.515625 -33.5 L 9.40625 -4.8125 L 31.640625 -4.8125 L 31.640625 -15.328125 L 36.453125 -15.328125 Z M 36.453125 0 "/></g></g><g style="fill:rgb(0%,0%,0%);fill-opacity:1;"><g transform="translate(142.840328, 292.852545)"><path style="stroke:none;" d="M 38.21875 -38.3125 C 38.21875 -33.125 36.597656 -29.269531 33.359375 -26.75 C 30.128906 -24.226562 25.597656 -22.96875 19.765625 -22.96875 L 7.640625 -22.96875 L 7.640625 0 L 2.015625 0 L 2.015625 -53.640625 L 19.6875 -53.640625 C 25.570312 -53.640625 30.128906 -52.359375 33.359375 -49.796875 C 36.597656 -47.234375 38.21875 -43.40625 38.21875 -38.3125 Z M 32.59375 -38.3125 C 32.59375 -42.007812 31.425781 -44.6875 29.09375 -46.34375 C 26.769531 -48 23.660156 -48.828125 19.765625 -48.828125 L 7.640625 -48.828125 L 7.640625 -27.78125 L 19.765625 -27.78125 C 23.660156 -27.78125 26.769531 -28.609375 29.09375 -30.265625 C 31.425781 -31.921875 32.59375 -34.601562 32.59375 -38.3125 Z M 32.59375 -38.3125 "/></g></g><g style="fill:rgb(0%,0%,0%);fill-opacity:1;"><g transform="translate(188.773921, 292.852545)"><path style="stroke:none;" d="M 36.203125 -32.921875 C 34.179688 -33.929688 31.769531 -34.4375 28.96875 -34.4375 C 26.664062 -34.4375 24.609375 -33.941406 22.796875 -32.953125 C 20.992188 -31.972656 19.460938 -30.679688 18.203125 -29.078125 C 16.941406 -27.472656 15.972656 -25.632812 15.296875 -23.5625 C 14.628906 -21.5 14.296875 -19.367188 14.296875 -17.171875 L 14.296875 -4.8125 L 22.96875 -4.8125 L 22.96875 0 L 0 0 L 0 -4.8125 L 8.671875 -4.8125 L 8.671875 -33.5 L 0 -33.5 L 0 -38.3125 L 14.296875 -38.3125 L 14.296875 -28.6875 C 16.878906 -35.695312 21.769531 -39.203125 28.96875 -39.203125 C 30.914062 -39.203125 32.609375 -39.078125 34.046875 -38.828125 C 35.484375 -38.585938 36.820312 -38.15625 38.0625 -37.53125 Z M 36.203125 -32.921875 "/></g></g><g style="fill:rgb(0%,0%,0%);fill-opacity:1;"><g transform="translate(234.707514, 292.852545)"><path style="stroke:none;" d="M -0.078125 -10.359375 C -0.078125 -12.765625 0.519531 -14.78125 1.71875 -16.40625 C 2.925781 -18.039062 4.507812 -19.332031 6.46875 -20.28125 C 8.425781 -21.226562 10.671875 -21.910156 13.203125 -22.328125 C 15.742188 -22.753906 18.328125 -22.96875 20.953125 -22.96875 C 21.972656 -22.96875 22.882812 -22.953125 23.6875 -22.921875 C 24.5 -22.898438 25.265625 -22.863281 25.984375 -22.8125 C 26.710938 -22.757812 27.445312 -22.691406 28.1875 -22.609375 C 28.925781 -22.523438 29.738281 -22.425781 30.625 -22.3125 L 30.625 -25.078125 C 30.625 -26.929688 30.21875 -28.460938 29.40625 -29.671875 C 28.59375 -30.878906 27.597656 -31.832031 26.421875 -32.53125 C 25.242188 -33.226562 24.007812 -33.71875 22.71875 -34 C 21.4375 -34.289062 20.34375 -34.4375 19.4375 -34.4375 C 16.59375 -34.4375 13.960938 -34.050781 11.546875 -33.28125 C 9.140625 -32.519531 6.894531 -31.492188 4.8125 -30.203125 L 2.265625 -34.4375 C 4.566406 -35.832031 7.144531 -36.972656 10 -37.859375 C 12.863281 -38.753906 16.007812 -39.203125 19.4375 -39.203125 C 21.519531 -39.203125 23.566406 -38.9375 25.578125 -38.40625 C 27.597656 -37.875 29.40625 -37.050781 31 -35.9375 C 32.601562 -34.832031 33.882812 -33.375 34.84375 -31.5625 C 35.8125 -29.757812 36.296875 -27.597656 36.296875 -25.078125 L 36.296875 0 L 30.625 0 L 30.625 -6.40625 C 29.632812 -5.175781 28.515625 -4.09375 27.265625 -3.15625 C 26.023438 -2.226562 24.71875 -1.46875 23.34375 -0.875 C 21.976562 -0.289062 20.609375 0.15625 19.234375 0.46875 C 17.859375 0.78125 16.554688 0.9375 15.328125 0.9375 C 10.265625 0.9375 6.429688 -0.03125 3.828125 -1.96875 C 1.222656 -3.914062 -0.078125 -6.710938 -0.078125 -10.359375 Z M 15.328125 -3.859375 C 17.679688 -3.859375 19.796875 -4.207031 21.671875 -4.90625 C 23.554688 -5.601562 25.15625 -6.472656 26.46875 -7.515625 C 27.78125 -8.554688 28.800781 -9.664062 29.53125 -10.84375 C 30.257812 -12.03125 30.625 -13.101562 30.625 -14.0625 L 30.625 -17.671875 C 28.78125 -17.941406 27.015625 -18.09375 25.328125 -18.125 C 23.648438 -18.15625 22.191406 -18.171875 20.953125 -18.171875 C 18.929688 -18.171875 16.976562 -18.03125 15.09375 -17.75 C 13.21875 -17.476562 11.582031 -17.035156 10.1875 -16.421875 C 8.789062 -15.804688 7.664062 -15.003906 6.8125 -14.015625 C 5.96875 -13.023438 5.546875 -11.804688 5.546875 -10.359375 C 5.546875 -8.742188 6.332031 -7.253906 7.90625 -5.890625 C 9.488281 -4.535156 11.960938 -3.859375 15.328125 -3.859375 Z M 15.328125 -3.859375 "/></g></g><g style="fill:rgb(0%,0%,0%);fill-opacity:1;"><g transform="translate(280.641107, 292.852545)"><path style="stroke:none;" d="M 39.578125 -38.3125 L 22.96875 0 L 15.40625 0 L -1.28125 -38.3125 L 5.46875 -38.3125 L 19.1875 -4.71875 L 32.84375 -38.3125 Z M 39.578125 -38.3125 "/></g></g><g style="fill:rgb(0%,0%,0%);fill-opacity:1;"><g transform="translate(326.5747, 292.852545)"><path style="stroke:none;" d="M -0.078125 -10.359375 C -0.078125 -12.765625 0.519531 -14.78125 1.71875 -16.40625 C 2.925781 -18.039062 4.507812 -19.332031 6.46875 -20.28125 C 8.425781 -21.226562 10.671875 -21.910156 13.203125 -22.328125 C 15.742188 -22.753906 18.328125 -22.96875 20.953125 -22.96875 C 21.972656 -22.96875 22.882812 -22.953125 23.6875 -22.921875 C 24.5 -22.898438 25.265625 -22.863281 25.984375 -22.8125 C 26.710938 -22.757812 27.445312 -22.691406 28.1875 -22.609375 C 28.925781 -22.523438 29.738281 -22.425781 30.625 -22.3125 L 30.625 -25.078125 C 30.625 -26.929688 30.21875 -28.460938 29.40625 -29.671875 C 28.59375 -30.878906 27.597656 -31.832031 26.421875 -32.53125 C 25.242188 -33.226562 24.007812 -33.71875 22.71875 -34 C 21.4375 -34.289062 20.34375 -34.4375 19.4375 -34.4375 C 16.59375 -34.4375 13.960938 -34.050781 11.546875 -33.28125 C 9.140625 -32.519531 6.894531 -31.492188 4.8125 -30.203125 L 2.265625 -34.4375 C 4.566406 -35.832031 7.144531 -36.972656 10 -37.859375 C 12.863281 -38.753906 16.007812 -39.203125 19.4375 -39.203125 C 21.519531 -39.203125 23.566406 -38.9375 25.578125 -38.40625 C 27.597656 -37.875 29.40625 -37.050781 31 -35.9375 C 32.601562 -34.832031 33.882812 -33.375 34.84375 -31.5625 C 35.8125 -29.757812 36.296875 -27.597656 36.296875 -25.078125 L 36.296875 0 L 30.625 0 L 30.625 -6.40625 C 29.632812 -5.175781 28.515625 -4.09375 27.265625 -3.15625 C 26.023438 -2.226562 24.71875 -1.46875 23.34375 -0.875 C 21.976562 -0.289062 20.609375 0.15625 19.234375 0.46875 C 17.859375 0.78125 16.554688 0.9375 15.328125 0.9375 C 10.265625 0.9375 6.429688 -0.03125 3.828125 -1.96875 C 1.222656 -3.914062 -0.078125 -6.710938 -0.078125 -10.359375 Z M 15.328125 -3.859375 C 17.679688 -3.859375 19.796875 -4.207031 21.671875 -4.90625 C 23.554688 -5.601562 25.15625 -6.472656 26.46875 -7.515625 C 27.78125 -8.554688 28.800781 -9.664062 29.53125 -10.84375 C 30.257812 -12.03125 30.625 -13.101562 30.625 -14.0625 L 30.625 -17.671875 C 28.78125 -17.941406 27.015625 -18.09375 25.328125 -18.125 C 23.648438 -18.15625 22.191406 -18.171875 20.953125 -18.171875 C 18.929688 -18.171875 16.976562 -18.03125 15.09375 -17.75 C 13.21875 -17.476562 11.582031 -17.035156 10.1875 -16.421875 C 8.789062 -15.804688 7.664062 -15.003906 6.8125 -14.015625 C 5.96875 -13.023438 5.546875 -11.804688 5.546875 -10.359375 C 5.546875 -8.742188 6.332031 -7.253906 7.90625 -5.890625 C 9.488281 -4.535156 11.960938 -3.859375 15.328125 -3.859375 Z M 15.328125 -3.859375 "/></g></g><g style="fill:rgb(0%,0%,0%);fill-opacity:1;"><g transform="translate(7.712279, 330.976545)"><path style="stroke:none;" d="M 10.75 0 L 2.3125 0 L 2.3125 -22.234375 L 10.4375 -22.234375 L 10.4375 -20.609375 L 4.234375 -20.609375 L 4.359375 -19.828125 L 4.359375 -13.6875 L 4.234375 -12.90625 L 10.015625 -12.90625 L 10.015625 -11.15625 L 4.234375 -11.15625 L 4.359375 -10.375 L 4.359375 -2.53125 L 4.234375 -1.765625 L 10.75 -1.765625 Z M 10.75 0 "/></g></g><g style="fill:rgb(0%,0%,0%);fill-opacity:1;"><g transform="translate(30.105332, 330.976545)"><path style="stroke:none;" d="M 10.3125 0 C 9.632812 0 9.21875 -0.0546875 9.0625 -0.171875 C 8.90625 -0.285156 8.707031 -0.703125 8.46875 -1.421875 L 6.265625 -8.734375 L 5.6875 -8.734375 L 3.34375 -1.421875 C 3.070312 -0.722656 2.859375 -0.3125 2.703125 -0.1875 C 2.546875 -0.0625 2.140625 0 1.484375 0 L 0.765625 0 L 4.84375 -11 L 1.078125 -22.234375 L 1.796875 -22.234375 C 2.453125 -22.234375 2.863281 -22.171875 3.03125 -22.046875 C 3.195312 -21.929688 3.398438 -21.523438 3.640625 -20.828125 L 5.96875 -13 L 6.546875 -13 L 9.265625 -22.234375 L 9.453125 -22.234375 C 10.085938 -22.234375 10.507812 -22.210938 10.71875 -22.171875 C 10.925781 -22.140625 11.03125 -22.039062 11.03125 -21.875 C 11.03125 -21.226562 9.753906 -17.601562 7.203125 -11 L 10.96875 0 Z M 10.3125 0 "/></g></g><g style="fill:rgb(0%,0%,0%);fill-opacity:1;"><g transform="translate(52.436632, 330.976545)"><path style="stroke:none;" d="M 2.46875 0 L 2.3125 0 L 2.3125 -22.296875 L 6.453125 -22.609375 C 8.867188 -22.609375 10.425781 -22.195312 11.125 -21.375 C 11.382812 -21.039062 11.582031 -20.75 11.71875 -20.5 C 11.851562 -20.257812 11.960938 -19.882812 12.046875 -19.375 C 12.128906 -18.707031 12.171875 -17.84375 12.171875 -16.78125 C 12.171875 -15.726562 12.15625 -14.972656 12.125 -14.515625 C 12.09375 -14.066406 11.976562 -13.535156 11.78125 -12.921875 C 11.582031 -12.316406 11.289062 -11.878906 10.90625 -11.609375 C 9.9375 -10.910156 8.453125 -10.5625 6.453125 -10.5625 L 4.140625 -10.5625 L 4.265625 -9.796875 L 4.265625 -1.421875 C 4.265625 -0.722656 4.179688 -0.3125 4.015625 -0.1875 C 3.847656 -0.0625 3.332031 0 2.46875 0 Z M 6.453125 -12.328125 C 7.753906 -12.328125 8.582031 -12.441406 8.9375 -12.671875 C 9.300781 -12.910156 9.554688 -13.113281 9.703125 -13.28125 C 9.847656 -13.445312 9.953125 -13.734375 10.015625 -14.140625 C 10.085938 -14.554688 10.128906 -14.90625 10.140625 -15.1875 C 10.148438 -15.476562 10.15625 -15.941406 10.15625 -16.578125 C 10.15625 -17.222656 10.148438 -17.6875 10.140625 -17.96875 C 10.128906 -18.257812 10.085938 -18.609375 10.015625 -19.015625 C 9.953125 -19.429688 9.847656 -19.722656 9.703125 -19.890625 C 9.554688 -20.054688 9.347656 -20.234375 9.078125 -20.421875 C 8.628906 -20.703125 7.753906 -20.84375 6.453125 -20.84375 L 4.140625 -20.84375 L 4.265625 -20.078125 L 4.265625 -13.09375 L 4.140625 -12.328125 Z M 6.453125 -12.328125 "/></g></g><g style="fill:rgb(0%,0%,0%);fill-opacity:1;"><g transform="translate(77.114893, 330.976545)"><path style="stroke:none;" d="M 12.734375 0 C 11.679688 0 11.03125 -0.0625 10.78125 -0.1875 C 10.53125 -0.3125 10.253906 -0.722656 9.953125 -1.421875 L 5.78125 -10.5625 L 4.140625 -10.5625 L 4.265625 -9.796875 L 4.265625 -1.421875 L 4.296875 -1.421875 C 4.296875 -0.722656 4.21875 -0.3125 4.0625 -0.1875 C 3.90625 -0.0625 3.382812 0 2.5 0 L 2.3125 0 L 2.3125 -22.296875 L 5.84375 -22.609375 C 7.976562 -22.609375 9.359375 -22.195312 9.984375 -21.375 C 10.222656 -21.039062 10.40625 -20.75 10.53125 -20.5 C 10.65625 -20.257812 10.75 -19.882812 10.8125 -19.375 C 10.894531 -18.6875 10.9375 -17.851562 10.9375 -16.875 C 10.9375 -15.90625 10.921875 -15.164062 10.890625 -14.65625 C 10.859375 -14.15625 10.78125 -13.628906 10.65625 -13.078125 C 10.53125 -12.535156 10.351562 -12.109375 10.125 -11.796875 C 9.613281 -11.078125 8.8125 -10.675781 7.71875 -10.59375 L 12.84375 0 Z M 5.84375 -12.328125 C 6.882812 -12.328125 7.695312 -12.519531 8.28125 -12.90625 C 8.625 -13.175781 8.828125 -13.859375 8.890625 -14.953125 C 8.910156 -15.285156 8.921875 -15.832031 8.921875 -16.59375 C 8.921875 -17.351562 8.910156 -17.894531 8.890625 -18.21875 C 8.867188 -18.550781 8.8125 -18.929688 8.71875 -19.359375 C 8.632812 -19.796875 8.488281 -20.097656 8.28125 -20.265625 C 7.695312 -20.648438 6.882812 -20.84375 5.84375 -20.84375 L 4.265625 -20.84375 L 4.265625 -13.09375 L 4.140625 -12.328125 Z M 5.84375 -12.328125 "/></g></g><g style="fill:rgb(0%,0%,0%);fill-opacity:1;"><g transform="translate(101.607854, 330.976545)"><path style="stroke:none;" d="M 10.75 0 L 2.3125 0 L 2.3125 -22.234375 L 10.4375 -22.234375 L 10.4375 -20.609375 L 4.234375 -20.609375 L 4.359375 -19.828125 L 4.359375 -13.6875 L 4.234375 -12.90625 L 10.015625 -12.90625 L 10.015625 -11.15625 L 4.234375 -11.15625 L 4.359375 -10.375 L 4.359375 -2.53125 L 4.234375 -1.765625 L 10.75 -1.765625 Z M 10.75 0 "/></g></g><g style="fill:rgb(0%,0%,0%);fill-opacity:1;"><g transform="translate(124.000902, 330.976545)"><path style="stroke:none;" d="M 10.90625 -7.203125 L 10.90625 -6.515625 C 10.90625 -4.453125 10.71875 -3 10.34375 -2.15625 C 9.601562 -0.59375 8.03125 0.195312 5.625 0.21875 L 1.140625 -0.40625 L 1.140625 -2.125 L 5.65625 -1.828125 C 7.050781 -1.828125 7.945312 -2.132812 8.34375 -2.75 C 8.488281 -3 8.597656 -3.195312 8.671875 -3.34375 C 8.753906 -3.5 8.8125 -3.765625 8.84375 -4.140625 C 8.875 -4.515625 8.894531 -4.785156 8.90625 -4.953125 C 8.914062 -5.128906 8.914062 -5.441406 8.90625 -5.890625 C 8.894531 -6.347656 8.890625 -6.660156 8.890625 -6.828125 C 8.890625 -7.835938 7.984375 -9.125 6.171875 -10.6875 C 5.429688 -11.320312 4.679688 -11.976562 3.921875 -12.65625 C 3.160156 -13.34375 2.515625 -14.109375 1.984375 -14.953125 C 1.460938 -15.796875 1.203125 -16.582031 1.203125 -17.3125 C 1.203125 -18.039062 1.207031 -18.535156 1.21875 -18.796875 C 1.226562 -19.054688 1.257812 -19.414062 1.3125 -19.875 C 1.363281 -20.34375 1.453125 -20.671875 1.578125 -20.859375 C 1.703125 -21.054688 1.878906 -21.300781 2.109375 -21.59375 C 2.347656 -21.882812 2.65625 -22.078125 3.03125 -22.171875 C 4.039062 -22.460938 5.097656 -22.609375 6.203125 -22.609375 L 9.484375 -22 C 9.484375 -21.21875 9.273438 -20.796875 8.859375 -20.734375 C 8.703125 -20.710938 8.457031 -20.710938 8.125 -20.734375 L 6.390625 -20.90625 C 4.910156 -20.90625 3.992188 -20.585938 3.640625 -19.953125 C 3.441406 -19.628906 3.316406 -19.3125 3.265625 -19 C 3.210938 -18.6875 3.1875 -18.242188 3.1875 -17.671875 C 3.1875 -17.109375 3.375 -16.535156 3.75 -15.953125 C 4.132812 -15.367188 4.613281 -14.832031 5.1875 -14.34375 C 5.757812 -13.863281 6.375 -13.332031 7.03125 -12.75 C 7.695312 -12.175781 8.316406 -11.625 8.890625 -11.09375 C 9.472656 -10.570312 9.953125 -9.96875 10.328125 -9.28125 C 10.710938 -8.59375 10.90625 -7.898438 10.90625 -7.203125 Z M 10.90625 -7.203125 "/></g></g><g style="fill:rgb(0%,0%,0%);fill-opacity:1;"><g transform="translate(146.579244, 330.976545)"><path style="stroke:none;" d="M 10.90625 -7.203125 L 10.90625 -6.515625 C 10.90625 -4.453125 10.71875 -3 10.34375 -2.15625 C 9.601562 -0.59375 8.03125 0.195312 5.625 0.21875 L 1.140625 -0.40625 L 1.140625 -2.125 L 5.65625 -1.828125 C 7.050781 -1.828125 7.945312 -2.132812 8.34375 -2.75 C 8.488281 -3 8.597656 -3.195312 8.671875 -3.34375 C 8.753906 -3.5 8.8125 -3.765625 8.84375 -4.140625 C 8.875 -4.515625 8.894531 -4.785156 8.90625 -4.953125 C 8.914062 -5.128906 8.914062 -5.441406 8.90625 -5.890625 C 8.894531 -6.347656 8.890625 -6.660156 8.890625 -6.828125 C 8.890625 -7.835938 7.984375 -9.125 6.171875 -10.6875 C 5.429688 -11.320312 4.679688 -11.976562 3.921875 -12.65625 C 3.160156 -13.34375 2.515625 -14.109375 1.984375 -14.953125 C 1.460938 -15.796875 1.203125 -16.582031 1.203125 -17.3125 C 1.203125 -18.039062 1.207031 -18.535156 1.21875 -18.796875 C 1.226562 -19.054688 1.257812 -19.414062 1.3125 -19.875 C 1.363281 -20.34375 1.453125 -20.671875 1.578125 -20.859375 C 1.703125 -21.054688 1.878906 -21.300781 2.109375 -21.59375 C 2.347656 -21.882812 2.65625 -22.078125 3.03125 -22.171875 C 4.039062 -22.460938 5.097656 -22.609375 6.203125 -22.609375 L 9.484375 -22 C 9.484375 -21.21875 9.273438 -20.796875 8.859375 -20.734375 C 8.703125 -20.710938 8.457031 -20.710938 8.125 -20.734375 L 6.390625 -20.90625 C 4.910156 -20.90625 3.992188 -20.585938 3.640625 -19.953125 C 3.441406 -19.628906 3.316406 -19.3125 3.265625 -19 C 3.210938 -18.6875 3.1875 -18.242188 3.1875 -17.671875 C 3.1875 -17.109375 3.375 -16.535156 3.75 -15.953125 C 4.132812 -15.367188 4.613281 -14.832031 5.1875 -14.34375 C 5.757812 -13.863281 6.375 -13.332031 7.03125 -12.75 C 7.695312 -12.175781 8.316406 -11.625 8.890625 -11.09375 C 9.472656 -10.570312 9.953125 -9.96875 10.328125 -9.28125 C 10.710938 -8.59375 10.90625 -7.898438 10.90625 -7.203125 Z M 10.90625 -7.203125 "/></g></g><g style="fill:rgb(0%,0%,0%);fill-opacity:1;"><g transform="translate(169.157586, 330.976545)"><path style="stroke:none;" d=""/></g></g><g style="fill:rgb(0%,0%,0%);fill-opacity:1;"><g transform="translate(185.528824, 330.976545)"><path style="stroke:none;" d="M 6.828125 0 L 6.671875 0 C 5.785156 0 5.265625 -0.0625 5.109375 -0.1875 C 4.953125 -0.3125 4.875 -0.722656 4.875 -1.421875 L 4.875 -10.71875 L 0.765625 -22.234375 L 1.234375 -22.234375 C 2.015625 -22.234375 2.492188 -22.175781 2.671875 -22.0625 C 2.847656 -21.957031 3.0625 -21.546875 3.3125 -20.828125 L 5.8125 -13.34375 L 5.96875 -13.34375 L 9.078125 -22.234375 L 9.421875 -22.234375 C 9.972656 -22.234375 10.335938 -22.21875 10.515625 -22.1875 C 10.691406 -22.164062 10.78125 -22.070312 10.78125 -21.90625 C 10.78125 -21.21875 9.460938 -17.488281 6.828125 -10.71875 Z M 6.828125 0 "/></g></g><g style="fill:rgb(0%,0%,0%);fill-opacity:1;"><g transform="translate(207.613073, 330.976545)"><path style="stroke:none;" d="M 11.75 -2.421875 C 11.019531 -0.660156 9.582031 0.21875 7.4375 0.21875 C 5.300781 0.21875 3.863281 -0.660156 3.125 -2.421875 C 2.382812 -4.179688 2.015625 -7.132812 2.015625 -11.28125 C 2.015625 -15.4375 2.382812 -18.363281 3.125 -20.0625 C 3.863281 -21.757812 5.300781 -22.609375 7.4375 -22.609375 C 9.582031 -22.609375 11.019531 -21.757812 11.75 -20.0625 C 12.476562 -18.363281 12.84375 -15.4375 12.84375 -11.28125 C 12.84375 -7.132812 12.476562 -4.179688 11.75 -2.421875 Z M 7.4375 -1.546875 C 8.738281 -1.546875 9.617188 -2.332031 10.078125 -3.90625 C 10.546875 -5.476562 10.78125 -7.9375 10.78125 -11.28125 C 10.78125 -14.488281 10.5625 -16.84375 10.125 -18.34375 C 9.632812 -20.007812 8.738281 -20.84375 7.4375 -20.84375 C 6.144531 -20.84375 5.257812 -20.078125 4.78125 -18.546875 C 4.3125 -17.015625 4.078125 -14.875 4.078125 -12.125 C 4.078125 -9.375 4.160156 -7.332031 4.328125 -6 C 4.691406 -3.03125 5.726562 -1.546875 7.4375 -1.546875 Z M 7.4375 -1.546875 "/></g></g><g style="fill:rgb(0%,0%,0%);fill-opacity:1;"><g transform="translate(232.970713, 330.976545)"><path style="stroke:none;" d="M 10.28125 -9.171875 L 10.28125 -22.234375 L 10.5 -22.234375 C 11.382812 -22.234375 11.90625 -22.171875 12.0625 -22.046875 C 12.21875 -21.929688 12.296875 -21.523438 12.296875 -20.828125 L 12.296875 -9.171875 C 12.296875 -7.585938 12.28125 -6.429688 12.25 -5.703125 C 12.21875 -4.972656 12.117188 -4.132812 11.953125 -3.1875 C 11.785156 -2.238281 11.53125 -1.578125 11.1875 -1.203125 C 10.300781 -0.253906 8.992188 0.21875 7.265625 0.21875 C 5.535156 0.21875 4.378906 -0.117188 3.796875 -0.796875 C 3.546875 -1.085938 3.335938 -1.34375 3.171875 -1.5625 C 3.015625 -1.78125 2.882812 -2.132812 2.78125 -2.625 C 2.675781 -3.113281 2.59375 -3.519531 2.53125 -3.84375 C 2.46875 -4.164062 2.421875 -4.675781 2.390625 -5.375 C 2.359375 -6.070312 2.34375 -6.628906 2.34375 -7.046875 L 2.34375 -22.234375 L 2.5625 -22.234375 C 3.445312 -22.234375 3.96875 -22.171875 4.125 -22.046875 C 4.28125 -21.929688 4.359375 -21.523438 4.359375 -20.828125 L 4.359375 -9.171875 C 4.359375 -9.023438 4.359375 -8.628906 4.359375 -7.984375 C 4.359375 -7.335938 4.363281 -6.78125 4.375 -6.3125 C 4.382812 -5.851562 4.414062 -5.285156 4.46875 -4.609375 C 4.519531 -3.941406 4.597656 -3.46875 4.703125 -3.1875 C 4.816406 -2.914062 4.976562 -2.625 5.1875 -2.3125 C 5.5625 -1.800781 6.253906 -1.546875 7.265625 -1.546875 C 8.660156 -1.546875 9.507812 -2.054688 9.8125 -3.078125 C 10.125 -4.097656 10.28125 -6.128906 10.28125 -9.171875 Z M 10.28125 -9.171875 "/></g></g><g style="fill:rgb(0%,0%,0%);fill-opacity:1;"><g transform="translate(257.926889, 330.976545)"><path style="stroke:none;" d="M 12.734375 0 C 11.679688 0 11.03125 -0.0625 10.78125 -0.1875 C 10.53125 -0.3125 10.253906 -0.722656 9.953125 -1.421875 L 5.78125 -10.5625 L 4.140625 -10.5625 L 4.265625 -9.796875 L 4.265625 -1.421875 L 4.296875 -1.421875 C 4.296875 -0.722656 4.21875 -0.3125 4.0625 -0.1875 C 3.90625 -0.0625 3.382812 0 2.5 0 L 2.3125 0 L 2.3125 -22.296875 L 5.84375 -22.609375 C 7.976562 -22.609375 9.359375 -22.195312 9.984375 -21.375 C 10.222656 -21.039062 10.40625 -20.75 10.53125 -20.5 C 10.65625 -20.257812 10.75 -19.882812 10.8125 -19.375 C 10.894531 -18.6875 10.9375 -17.851562 10.9375 -16.875 C 10.9375 -15.90625 10.921875 -15.164062 10.890625 -14.65625 C 10.859375 -14.15625 10.78125 -13.628906 10.65625 -13.078125 C 10.53125 -12.535156 10.351562 -12.109375 10.125 -11.796875 C 9.613281 -11.078125 8.8125 -10.675781 7.71875 -10.59375 L 12.84375 0 Z M 5.84375 -12.328125 C 6.882812 -12.328125 7.695312 -12.519531 8.28125 -12.90625 C 8.625 -13.175781 8.828125 -13.859375 8.890625 -14.953125 C 8.910156 -15.285156 8.921875 -15.832031 8.921875 -16.59375 C 8.921875 -17.351562 8.910156 -17.894531 8.890625 -18.21875 C 8.867188 -18.550781 8.8125 -18.929688 8.71875 -19.359375 C 8.632812 -19.796875 8.488281 -20.097656 8.28125 -20.265625 C 7.695312 -20.648438 6.882812 -20.84375 5.84375 -20.84375 L 4.265625 -20.84375 L 4.265625 -13.09375 L 4.140625 -12.328125 Z M 5.84375 -12.328125 "/></g></g><g style="fill:rgb(0%,0%,0%);fill-opacity:1;"><g transform="translate(282.419866, 330.976545)"><path style="stroke:none;" d="M 10.90625 -7.203125 L 10.90625 -6.515625 C 10.90625 -4.453125 10.71875 -3 10.34375 -2.15625 C 9.601562 -0.59375 8.03125 0.195312 5.625 0.21875 L 1.140625 -0.40625 L 1.140625 -2.125 L 5.65625 -1.828125 C 7.050781 -1.828125 7.945312 -2.132812 8.34375 -2.75 C 8.488281 -3 8.597656 -3.195312 8.671875 -3.34375 C 8.753906 -3.5 8.8125 -3.765625 8.84375 -4.140625 C 8.875 -4.515625 8.894531 -4.785156 8.90625 -4.953125 C 8.914062 -5.128906 8.914062 -5.441406 8.90625 -5.890625 C 8.894531 -6.347656 8.890625 -6.660156 8.890625 -6.828125 C 8.890625 -7.835938 7.984375 -9.125 6.171875 -10.6875 C 5.429688 -11.320312 4.679688 -11.976562 3.921875 -12.65625 C 3.160156 -13.34375 2.515625 -14.109375 1.984375 -14.953125 C 1.460938 -15.796875 1.203125 -16.582031 1.203125 -17.3125 C 1.203125 -18.039062 1.207031 -18.535156 1.21875 -18.796875 C 1.226562 -19.054688 1.257812 -19.414062 1.3125 -19.875 C 1.363281 -20.34375 1.453125 -20.671875 1.578125 -20.859375 C 1.703125 -21.054688 1.878906 -21.300781 2.109375 -21.59375 C 2.347656 -21.882812 2.65625 -22.078125 3.03125 -22.171875 C 4.039062 -22.460938 5.097656 -22.609375 6.203125 -22.609375 L 9.484375 -22 C 9.484375 -21.21875 9.273438 -20.796875 8.859375 -20.734375 C 8.703125 -20.710938 8.457031 -20.710938 8.125 -20.734375 L 6.390625 -20.90625 C 4.910156 -20.90625 3.992188 -20.585938 3.640625 -19.953125 C 3.441406 -19.628906 3.316406 -19.3125 3.265625 -19 C 3.210938 -18.6875 3.1875 -18.242188 3.1875 -17.671875 C 3.1875 -17.109375 3.375 -16.535156 3.75 -15.953125 C 4.132812 -15.367188 4.613281 -14.832031 5.1875 -14.34375 C 5.757812 -13.863281 6.375 -13.332031 7.03125 -12.75 C 7.695312 -12.175781 8.316406 -11.625 8.890625 -11.09375 C 9.472656 -10.570312 9.953125 -9.96875 10.328125 -9.28125 C 10.710938 -8.59375 10.90625 -7.898438 10.90625 -7.203125 Z M 10.90625 -7.203125 "/></g></g><g style="fill:rgb(0%,0%,0%);fill-opacity:1;"><g transform="translate(304.998223, 330.976545)"><path style="stroke:none;" d="M 10.75 0 L 2.3125 0 L 2.3125 -22.234375 L 10.4375 -22.234375 L 10.4375 -20.609375 L 4.234375 -20.609375 L 4.359375 -19.828125 L 4.359375 -13.6875 L 4.234375 -12.90625 L 10.015625 -12.90625 L 10.015625 -11.15625 L 4.234375 -11.15625 L 4.359375 -10.375 L 4.359375 -2.53125 L 4.234375 -1.765625 L 10.75 -1.765625 Z M 10.75 0 "/></g></g><g style="fill:rgb(0%,0%,0%);fill-opacity:1;"><g transform="translate(327.391289, 330.976545)"><path style="stroke:none;" d="M 10.015625 0 L 2.3125 0 L 2.3125 -22.234375 L 2.5625 -22.234375 C 3.445312 -22.234375 3.96875 -22.171875 4.125 -22.046875 C 4.28125 -21.929688 4.359375 -21.523438 4.359375 -20.828125 L 4.359375 -2.53125 L 4.234375 -1.765625 L 8.21875 -1.765625 C 9.101562 -1.765625 9.625 -1.703125 9.78125 -1.578125 C 9.9375 -1.453125 10.015625 -1.039062 10.015625 -0.34375 Z M 10.015625 0 "/></g></g><g style="fill:rgb(0%,0%,0%);fill-opacity:1;"><g transform="translate(349.043215, 330.976545)"><path style="stroke:none;" d="M 4.359375 0 L 4.109375 0 C 3.222656 0 2.703125 -0.0625 2.546875 -0.1875 C 2.390625 -0.3125 2.3125 -0.722656 2.3125 -1.421875 L 2.3125 -22.234375 L 10.4375 -22.234375 L 10.4375 -20.609375 L 4.234375 -20.609375 L 4.359375 -19.828125 L 4.359375 -13.6875 L 4.234375 -12.90625 L 10.015625 -12.90625 L 10.015625 -11.15625 L 4.234375 -11.15625 L 4.359375 -10.375 Z M 4.359375 0 "/></g></g></g></svg>