<?xml version="1.0" encoding="UTF-8"?><svg xmlns="http://www.w3.org/2000/svg" xmlns:xlink="http://www.w3.org/1999/xlink" width="150pt" zoomAndPan="magnify" viewBox="0 0 150 149.999998" height="149.999998pt" preserveAspectRatio="xMidYMid meet" version="1.2"><defs><clipPath xml:id="clip1" id="clip1"><path d="M 2 35.144531 L 148 35.144531 L 148 114 L 2 114 Z M 2 35.144531 "/></clipPath></defs><g xml:id="surface1" id="surface1"><g clip-rule="nonzero" clip-path="url(#clip1)"><path style=" stroke:none;fill-rule:nonzero;fill:rgb(32.548523%,14.509583%,70.979309%);fill-opacity:1;" d="M 101.21875 35.082031 C 100.363281 35.105469 99.542969 35.289062 98.757812 35.632812 C 97.976562 35.980469 97.285156 36.457031 96.6875 37.070312 L 71.40625 62.285156 C 71.089844 62.585938 70.804688 62.917969 70.554688 63.277344 C 70.308594 63.636719 70.09375 64.015625 69.921875 64.417969 C 69.746094 64.820312 69.613281 65.234375 69.523438 65.660156 C 69.433594 66.089844 69.386719 66.519531 69.378906 66.957031 C 69.375 67.394531 69.414062 67.828125 69.496094 68.257812 C 69.578125 68.6875 69.703125 69.105469 69.867188 69.507812 C 70.035156 69.914062 70.238281 70.296875 70.480469 70.660156 C 70.722656 71.027344 71 71.363281 71.308594 71.671875 C 71.621094 71.980469 71.957031 72.257812 72.320312 72.496094 C 72.6875 72.738281 73.074219 72.945312 73.476562 73.109375 C 73.882812 73.273438 74.300781 73.398438 74.734375 73.480469 C 75.164062 73.5625 75.597656 73.601562 76.035156 73.597656 C 76.472656 73.589844 76.90625 73.542969 77.335938 73.453125 C 77.765625 73.363281 78.179688 73.230469 78.582031 73.058594 C 78.984375 72.882812 79.367188 72.671875 79.726562 72.421875 C 80.085938 72.171875 80.417969 71.890625 80.722656 71.574219 L 106.003906 46.359375 C 106.480469 45.898438 106.875 45.378906 107.195312 44.796875 C 107.511719 44.214844 107.738281 43.601562 107.871094 42.953125 C 108 42.300781 108.035156 41.648438 107.96875 40.988281 C 107.902344 40.332031 107.738281 39.695312 107.480469 39.085938 C 107.21875 38.476562 106.878906 37.917969 106.449219 37.414062 C 106.023438 36.90625 105.527344 36.476562 104.96875 36.117188 C 104.410156 35.761719 103.8125 35.492188 103.171875 35.316406 C 102.53125 35.140625 101.882812 35.0625 101.21875 35.082031 Z M 140.742188 35.082031 C 139.886719 35.105469 139.066406 35.289062 138.285156 35.632812 C 137.5 35.980469 136.8125 36.457031 136.214844 37.070312 L 74.996094 98.125 L 53.300781 76.492188 C 53 76.175781 52.667969 75.894531 52.308594 75.644531 C 51.945312 75.394531 51.566406 75.183594 51.164062 75.011719 C 50.761719 74.835938 50.347656 74.703125 49.917969 74.613281 C 49.488281 74.523438 49.054688 74.476562 48.617188 74.472656 C 48.179688 74.464844 47.746094 74.503906 47.3125 74.585938 C 46.882812 74.667969 46.464844 74.792969 46.058594 74.957031 C 45.652344 75.125 45.269531 75.328125 44.902344 75.570312 C 44.539062 75.8125 44.203125 76.085938 43.890625 76.394531 C 43.582031 76.703125 43.304688 77.039062 43.0625 77.40625 C 42.820312 77.769531 42.617188 78.152344 42.449219 78.558594 C 42.285156 78.960938 42.160156 79.378906 42.078125 79.808594 C 41.996094 80.238281 41.957031 80.671875 41.960938 81.109375 C 41.964844 81.546875 42.015625 81.976562 42.105469 82.40625 C 42.195312 82.832031 42.328125 83.246094 42.503906 83.648438 C 42.675781 84.050781 42.886719 84.429688 43.136719 84.789062 C 43.386719 85.148438 43.671875 85.480469 43.988281 85.78125 L 70.335938 112.0625 C 70.644531 112.367188 70.976562 112.640625 71.335938 112.878906 C 71.695312 113.117188 72.074219 113.320312 72.476562 113.484375 C 72.875 113.652344 73.285156 113.777344 73.710938 113.859375 C 74.132812 113.945312 74.5625 113.984375 74.996094 113.984375 C 75.429688 113.984375 75.855469 113.945312 76.28125 113.859375 C 76.703125 113.777344 77.117188 113.652344 77.515625 113.484375 C 77.914062 113.320312 78.296875 113.117188 78.65625 112.878906 C 79.015625 112.640625 79.347656 112.367188 79.652344 112.0625 L 145.53125 46.359375 C 146.007812 45.898438 146.402344 45.378906 146.722656 44.796875 C 147.039062 44.214844 147.265625 43.601562 147.394531 42.953125 C 147.527344 42.300781 147.558594 41.648438 147.492188 40.988281 C 147.425781 40.332031 147.265625 39.695312 147.003906 39.085938 C 146.746094 38.476562 146.402344 37.917969 145.976562 37.414062 C 145.546875 36.90625 145.054688 36.476562 144.496094 36.117188 C 143.9375 35.761719 143.339844 35.492188 142.699219 35.316406 C 142.058594 35.140625 141.40625 35.0625 140.742188 35.082031 Z M 9.054688 74.5 C 8.398438 74.5 7.757812 74.597656 7.132812 74.789062 C 6.503906 74.980469 5.917969 75.257812 5.375 75.621094 C 4.832031 75.988281 4.355469 76.421875 3.941406 76.929688 C 3.527344 77.4375 3.199219 77.996094 2.953125 78.601562 C 2.707031 79.207031 2.554688 79.832031 2.496094 80.484375 C 2.433594 81.136719 2.472656 81.78125 2.609375 82.421875 C 2.742188 83.058594 2.96875 83.667969 3.28125 84.238281 C 3.597656 84.8125 3.992188 85.324219 4.460938 85.78125 L 25.882812 107.160156 C 26.191406 107.464844 26.523438 107.738281 26.882812 107.980469 C 27.242188 108.21875 27.625 108.421875 28.023438 108.589844 C 28.425781 108.753906 28.835938 108.878906 29.261719 108.960938 C 29.6875 109.046875 30.117188 109.089844 30.546875 109.089844 C 30.980469 109.089844 31.410156 109.046875 31.835938 108.964844 C 32.261719 108.878906 32.671875 108.753906 33.074219 108.589844 C 33.472656 108.421875 33.855469 108.222656 34.214844 107.980469 C 34.574219 107.742188 34.90625 107.46875 35.214844 107.164062 C 35.519531 106.855469 35.792969 106.523438 36.035156 106.164062 C 36.277344 105.804688 36.480469 105.425781 36.644531 105.027344 C 36.808594 104.628906 36.933594 104.21875 37.019531 103.792969 C 37.105469 103.371094 37.144531 102.941406 37.144531 102.507812 C 37.144531 102.078125 37.105469 101.648438 37.019531 101.226562 C 36.933594 100.800781 36.808594 100.390625 36.644531 99.992188 C 36.476562 99.59375 36.273438 99.214844 36.03125 98.855469 C 35.792969 98.496094 35.519531 98.164062 35.210938 97.855469 L 13.777344 76.492188 C 13.15625 75.855469 12.4375 75.363281 11.617188 75.019531 C 10.796875 74.675781 9.945312 74.5 9.054688 74.5 Z M 9.054688 74.5 "/></g></g></svg>