<!-- Generator: Adobe Illustrator 25.0.1, SVG Export Plug-In  -->
<svg version="1.1" xmlns="http://www.w3.org/2000/svg" xmlns:xlink="http://www.w3.org/1999/xlink" x="0px" y="0px"
	 width="224.92px" height="224.92px" viewBox="0 0 224.92 224.92"
	 style="overflow:visible;enable-background:new 0 0 224.92 224.92;" xml:space="preserve">
<style type="text/css">
	.st0{fill:#1CB6EA;}
	.st1{fill:#FEFEFE;}
</style>
<defs>
</defs>
<g>
	<path class="st0" d="M224.92,104.12c0,5.71,0,11.42,0,17.13c-0.45,3.24-0.46,6.51-0.72,9.77c-0.38,4.76-1.55,9.37-2.95,13.9
		c-4.69,15.2-11.98,28.98-22.44,41.06c-9.87,11.41-21.33,20.81-34.78,27.65c-9.48,4.82-19.45,8.42-29.98,10.21
		c-3.66,0.62-7.4,0.64-11.11,0.87c-0.71,0.04-1.46-0.23-2.13,0.21c-4.1,0-8.2,0-12.3,0c-1.37-0.49-2.8-0.09-4.19-0.22
		c-14.06,0.3-27.15-3.48-39.75-9.38c-7.98-3.74-15.51-8.22-22.36-13.78c-10.93-8.88-20.3-19.14-27.47-31.34
		c-6.55-11.14-11.23-22.99-13.58-35.7c-0.7-3.8-0.68-7.7-0.94-11.55c-0.05-0.71,0.22-1.46-0.21-2.13c0-5.71,0-11.42,0-17.13
		c0.45-3.24,0.47-6.51,0.72-9.77c0.37-4.92,1.67-9.63,3.08-14.32c4.67-15.57,12.39-29.5,23.12-41.66
		c9.5-10.77,20.52-19.69,33.42-26.24c9.58-4.87,19.53-8.57,30.1-10.52c3.8-0.7,7.69-0.68,11.55-0.94c0.57-0.04,1.17,0.19,1.69-0.21
		c4.25,0,8.49,0,12.74,0c1.37,0.49,2.8,0.09,4.19,0.22c13.67-0.29,26.44,3.3,38.78,8.88c10.01,4.53,19.21,10.34,27.39,17.63
		c10.22,9.1,19,19.43,25.45,31.63c5.37,10.16,9.51,20.74,11.55,32.08c0.69,3.81,0.67,7.7,0.94,11.56
		C224.76,102.69,224.49,103.44,224.92,104.12z"/>
	<path class="st1" d="M87.42,143.11c-12.28-2.01-20.73-8.96-22.46-18.31c1.77,0.29,3.5,0.45,5.23,0.3c1.66-0.14,3.35-0.23,5.26-0.98
		c-5.91-1.88-10.54-5.12-14-9.96c-3.47-4.85-5.15-10.26-5.22-16.48c3.48,1.38,6.7,3.15,10.88,2.88c-5.46-4.42-8.74-9.82-9.9-16.38
		c-1.14-6.49-0.62-12.8,2.69-18.98c1.39,1.61,2.59,3.05,3.85,4.44c11.82,13.01,26.33,20.9,43.9,22.91c0.07,0.01,0.15,0.01,0.22,0.02
		c2.94,0.32,2.99,0.31,2.81-2.54c-0.48-7.8,1.09-14.99,6.22-21.12c9.27-11.07,24.5-11.93,34.86-1.91c1.19,1.15,2.19,1.3,3.67,0.88
		c4.58-1.31,8.89-3.25,13.11-5.62c-0.13,3.4-1.92,6.03-9.44,13.98c4.5-0.45,8.64-1.76,13.01-3.85c-1.54,3.13-3.45,5.47-5.47,7.7
		c-1.72,1.9-3.51,3.75-5.46,5.39c-1.36,1.15-1.87,2.32-1.87,4.1c-0.07,17.54-5.01,33.58-15.18,47.92
		c-20.78,29.31-60.03,37.09-90.4,17.93c-0.66-0.42-1.45-0.71-1.83-1.49C65.07,155.14,76.73,151.52,87.42,143.11z"/>
</g>
</svg>
