<!-- Generator: Adobe Illustrator 25.0.1, SVG Export Plug-In  -->
<svg version="1.1" xmlns="http://www.w3.org/2000/svg" xmlns:xlink="http://www.w3.org/1999/xlink" x="0px" y="0px"
	 width="225.01px" height="225.01px" viewBox="0 0 225.01 225.01"
	 style="overflow:visible;enable-background:new 0 0 225.01 225.01;" xml:space="preserve">
<style type="text/css">
	.st0{fill:#44476A;}
</style>
<defs>
</defs>
<g>
	<path class="st0" d="M112.7,0c61.85,0.11,112.41,50.85,112.31,112.7c-0.11,61.83-50.89,112.43-112.72,112.31
		C50.44,224.89-0.12,174.14,0,112.29C0.12,50.42,50.83-0.11,112.7,0z M159.66,94.03c-0.15-25.98-21.65-47.08-47.71-46.83
		c-25.61,0.24-46.54,21.36-46.61,47.02c-0.06,26.03,21.22,47.34,47.24,47.3C138.57,141.48,159.81,120.05,159.66,94.03z
		 M41.85,189.74c37.88,38.02,110.1,36.73,143.2-2.13C155.13,135.12,74.41,136.09,41.85,189.74z"/>
</g>
</svg>
